<svg width="801" height="1000" viewBox="0 0 801 1000" fill="none" xmlns="http://www.w3.org/2000/svg">
<g clip-path="url(#clip0_3_115)">
<path d="M525.366 181.482C525.366 579.74 645.079 854.801 783.815 983.324H645.211V931.324C645.211 847.993 578.603 780.393 495.222 780.393C411.824 780.393 345.218 847.993 345.218 931.324V983.324H198.095C336.831 854.801 456.576 581.711 456.576 183.469" fill="#ECE9E6"/>
<path d="M554.501 484.341H429.429V529.68H554.501V484.341Z" fill="#CCCCCC"/>
<path d="M527.402 180H448.19V225.339H527.402V180Z" fill="#CCCCCC"/>
<path d="M587.853 655.271H389.823V700.611H587.853V655.271Z" fill="#CCCCCC"/>
<path d="M426.678 169.154H555.233V124.548L490.939 16.1045L426.678 124.548V169.154Z" fill="#ECE9E6"/>
<path d="M555.233 185.83H426.678C417.459 185.83 410.001 178.364 410.001 169.154V124.548C410.001 121.56 410.799 118.622 412.329 116.048L476.591 7.6031C482.585 -2.52603 499.261 -2.5427 505.286 7.6031L569.581 116.048C571.112 118.622 571.909 121.552 571.909 124.548V169.154C571.909 178.364 564.451 185.83 555.233 185.83ZM443.354 152.478H538.557V129.118L490.939 48.8133L443.354 129.118V152.478Z" fill="#43525B"/>
<path d="M783.815 1000H645.211C635.992 1000 628.535 992.533 628.535 983.325V931.325C628.535 857.292 568.734 797.07 495.222 797.07C421.71 797.07 361.894 857.292 361.894 931.325V983.325C361.894 992.533 354.435 1000 345.218 1000H198.095C191.24 1000 185.068 995.798 182.576 989.406C180.068 983.023 181.729 975.752 186.76 971.094C345.266 824.249 439.9 529.81 439.9 183.469C439.9 174.26 447.359 166.793 456.576 166.793C465.795 166.793 473.253 174.26 473.253 183.469C473.253 517.783 386.029 806.197 238.223 966.648H328.541V931.325C328.541 838.905 403.307 763.717 495.222 763.717C587.121 763.717 661.887 838.905 661.887 931.325V966.648H743.704C595.914 806.123 508.689 516.985 508.689 181.483C508.689 172.273 516.149 164.807 525.366 164.807C534.584 164.807 542.042 172.273 542.042 181.483C542.042 529.085 636.661 824.265 795.15 971.094C800.181 975.752 801.842 983.023 799.334 989.406C796.842 995.798 790.671 1000 783.815 1000Z" fill="#43525B"/>
<path d="M688.04 657.179H302.386C293.169 657.179 285.71 649.711 285.71 640.502C285.71 631.292 293.169 623.826 302.386 623.826H688.04C697.257 623.826 704.716 631.292 704.716 640.502C704.716 649.711 697.257 657.179 688.04 657.179Z" fill="#43525B"/>
<path d="M580.916 485.783H409.513C400.294 485.783 392.836 478.315 392.836 469.107C392.836 459.897 400.294 452.431 409.513 452.431H580.916C590.133 452.431 597.592 459.897 597.592 469.107C597.592 478.315 590.133 485.783 580.916 485.783Z" fill="#43525B"/>
<path d="M144.632 343.016C133.004 332.774 125.171 320.151 121.816 306.398C121.327 304.404 120.953 302.483 120.677 300.593L118.787 298.704L120.4 290.154C122.403 268.714 137.825 247.088 163.424 247.088C180.507 247.088 195.98 257.209 202.869 272.891C209.822 256.98 224.544 247.088 241.285 247.088C263.857 247.088 282.015 265.58 284.457 291.05C284.849 295.049 284.327 300.528 282.926 306.293C279.522 320.168 271.706 332.797 260.273 342.853L202.869 393.16L144.632 343.016Z" fill="#FBD0C4"/>
<path d="M292.747 299.665L284.897 295.016L283.773 287.336C281.118 269.211 269.622 254.661 253.809 249.376L240.438 244.914L242.832 231.047C244.673 210.943 259.166 196.433 277.341 196.433C291.069 196.433 303.463 204.567 308.951 217.148C314.521 204.372 326.328 196.433 339.812 196.433C357.904 196.433 372.431 211.324 374.385 231.845C374.548 234.166 374.548 238.188 373.148 243.953C370.428 255.141 364.126 265.27 354.957 273.275L308.951 313.621L292.747 299.665Z" fill="#FFA8A6"/>
<path d="M308.95 330.298C305.075 330.298 301.198 328.955 298.071 326.259L280.711 311.309C273.725 305.3 272.943 294.771 278.953 287.794C284.978 280.783 295.514 280.034 302.468 286.034L308.852 291.531L343.997 260.711C350.576 254.97 355.038 247.829 356.943 240.028C357.985 235.786 357.773 233.483 357.773 233.458C356.781 222.84 350.381 213.109 339.811 213.109C332.971 213.109 327.157 217.107 324.242 223.8C321.587 229.882 315.594 233.824 308.967 233.824C308.95 233.824 308.95 233.824 308.95 233.824C302.321 233.824 296.313 229.899 293.675 223.817C290.825 217.31 284.425 213.109 277.341 213.109C266.754 213.109 260.339 222.84 259.475 232.447C259.427 233.001 259.345 233.556 259.247 234.101C259.247 234.085 259.247 234.076 259.247 234.076C259.312 234.076 259.28 236.324 260.176 240.053C262.342 249.01 256.854 258.023 247.897 260.189C238.955 262.381 229.917 256.876 227.767 247.919C225.471 238.457 225.894 231.845 226.301 228.89C229.103 200.837 250.959 179.757 277.341 179.757C288.967 179.757 299.96 183.697 308.77 190.561C317.402 183.649 328.183 179.757 339.811 179.757C366.176 179.757 388.015 200.829 390.8 228.873C391.241 231.862 391.664 238.489 389.351 247.942C385.801 262.461 377.706 275.555 365.95 285.814L319.943 326.162C316.8 328.914 312.874 330.298 308.95 330.298Z" fill="#43525B"/>
<path d="M202.868 409.836C198.991 409.836 195.115 408.492 191.988 405.797L133.59 355.524C119.405 343.008 109.78 327.424 105.596 310.316C102.826 298.9 103.396 291.18 103.868 287.948C107.207 255.108 132.71 230.412 163.424 230.412C178.146 230.412 192.005 235.827 202.671 245.134C213.111 235.753 226.628 230.412 241.285 230.412C272.194 230.412 297.844 255.401 300.937 288.542C301.118 289.112 302.273 297.295 299.113 310.283C294.912 327.473 285.287 343.065 271.249 355.402L213.859 405.699C210.718 408.459 206.792 409.836 202.868 409.836ZM136.782 293.29C136.83 293.29 136.602 296.645 138.003 302.417C140.559 312.856 146.618 322.538 155.509 330.388L202.77 371.068L249.248 330.346C258.091 322.563 264.15 312.881 266.706 302.385C268.22 296.14 267.862 292.686 267.845 292.654C266.429 277.786 256.936 263.765 241.285 263.765C231.123 263.765 222.474 269.668 218.143 279.569C215.505 285.635 209.512 289.559 202.883 289.568H202.868C196.256 289.568 190.262 285.652 187.591 279.594C183.374 269.976 173.896 263.765 163.424 263.765C147.79 263.765 138.313 277.786 137.025 291.637C136.96 292.199 136.879 292.753 136.782 293.298V293.29Z" fill="#43525B"/>
<path d="M129.509 799.146C191.824 799.146 242.341 748.629 242.341 686.313C242.341 623.997 191.824 573.48 129.509 573.48C67.1928 573.48 16.6758 623.997 16.6758 686.313C16.6758 748.629 67.1928 799.146 129.509 799.146Z" fill="#C0DFCF"/>
<path d="M129.517 815.845C58.1066 815.845 0 757.74 0 686.313C0 614.9 58.1066 556.811 129.517 556.811C200.93 556.811 259.02 614.9 259.02 686.313C259.02 757.74 200.93 815.845 129.517 815.845ZM129.517 590.163C76.4921 590.163 33.3524 633.296 33.3524 686.313C33.3524 739.345 76.4921 782.493 129.517 782.493C182.526 782.493 225.667 739.345 225.667 686.313C225.667 633.296 182.526 590.163 129.517 590.163Z" fill="#43525B"/>
<path d="M129.517 778.748C125.251 778.748 120.984 777.12 117.727 773.863C111.213 767.348 111.213 756.795 117.727 750.281L184.48 683.528C190.994 677.013 201.548 677.013 208.062 683.528C214.576 690.042 214.576 700.595 208.062 707.108L141.309 773.863C138.05 777.12 133.785 778.748 129.517 778.748Z" fill="#43525B"/>
<path d="M129.517 778.748C125.252 778.748 120.984 777.12 117.727 773.863L50.9576 707.108C44.4438 700.603 44.4438 690.042 50.9576 683.528C57.4713 677.013 68.024 677.013 74.5394 683.528L141.309 750.281C147.823 756.787 147.823 767.348 141.309 773.863C138.051 777.12 133.785 778.748 129.517 778.748Z" fill="#43525B"/>
<path d="M129.517 1000C120.3 1000 112.841 992.533 112.841 983.325V762.072C112.841 752.863 120.3 745.396 129.517 745.396C138.736 745.396 146.193 752.863 146.193 762.072V983.325C146.193 992.533 138.736 1000 129.517 1000Z" fill="#43525B"/>
</g>
<defs>
<clipPath id="clip0_3_115">
<rect width="800.488" height="1000" fill="white"/>
</clipPath>
</defs>
</svg>
