<svg width="878" height="1000" viewBox="0 0 878 1000" fill="none" xmlns="http://www.w3.org/2000/svg">
<g clip-path="url(#clip0_3_324)">
<path d="M528.037 983.299V685.478H349.353V983.299H118.549V525.313L437.59 304.084L758.856 538.492V983.299H528.037Z" fill="white"/>
<path d="M650.624 342.674V254.551H742.415V410.621L650.624 342.674Z" fill="#CCCCCC"/>
<path opacity="0.3" d="M650.624 342.674V303.807L742.415 369.487V410.621L650.624 342.674Z" fill="#43525B"/>
<path d="M759.117 411.633H725.714V271.252H667.325V345.528H633.922V237.849H759.117V411.633Z" fill="#43525B"/>
<path d="M766.848 584.976L437.59 353.34L126.557 572.189V464.9L438.976 239.561L766.848 476.824V584.976Z" fill="#CCCCCC"/>
<path d="M437.59 304.084L78.3448 553.171L23.8696 482.385L438.976 190.322L853.52 497.098L797.348 566.594L437.59 304.084Z" fill="#ECE9E6"/>
<path d="M800.341 589.453L437.344 324.578L74.8058 575.948L0 478.756L439.22 169.73L877.463 494.039L800.341 589.453ZM437.834 283.591L794.355 543.736L829.577 500.156L438.731 210.913L47.7395 486.014L81.8923 530.394L437.834 283.591Z" fill="#43525B"/>
<path d="M528.037 685.479H349.353V983.299H528.037V685.479Z" fill="#C0DFCF"/>
<path d="M408.9 834.372C408.9 842.576 402.23 849.246 394.009 849.246C385.822 849.246 379.102 842.576 379.102 834.372C379.102 826.168 385.822 819.481 394.009 819.481C402.23 819.481 408.9 826.168 408.9 834.372Z" fill="#43525B"/>
<path d="M544.738 983.299H511.335V702.18H366.054V983.299H332.651V668.777H544.738V983.299Z" fill="#43525B"/>
<path d="M135.25 983.299H101.847V521.742L109.343 516.792L119.218 530.728H135.25V983.299Z" fill="#43525B"/>
<path d="M775.557 983.299H742.155V546.436H775.557V983.299Z" fill="#43525B"/>
<path d="M805.373 1000H72V966.597H805.373V1000Z" fill="#43525B"/>
<path d="M529.57 455.376H347.82V637.135H529.57V455.376Z" fill="#CCCCCC"/>
<path d="M513.162 455.376H364.227V604.286H513.162V455.376Z" fill="#FFA8A6"/>
<path d="M529.864 620.987H347.526V438.674H529.864V620.987ZM380.929 587.585H496.461V472.077H380.929V587.585Z" fill="#43525B"/>
<path d="M455.4 604.286H421.997V455.376H455.4V604.286Z" fill="#43525B"/>
<path d="M513.162 546.532H364.227V513.129H513.162V546.532Z" fill="#43525B"/>
<path d="M769.294 118.036L786.844 133.187L833.393 92.3307C842.332 84.5177 848.954 74.2597 851.791 62.744C853.846 54.2463 852.9 49.5165 852.9 49.5165C851.203 30.5319 837.339 14.6138 818.029 14.6138C803.741 14.6138 792.227 23.225 786.844 35.5891C781.43 23.225 769.099 14.6138 754.844 14.6138C735.532 14.6138 721.67 30.5319 719.94 49.5165C719.94 49.5165 718.995 54.2463 721.116 62.744" fill="#FFA8A6"/>
<path d="M786.844 147.801C783.444 147.801 780.035 146.619 777.294 144.246L759.744 129.094C753.637 123.826 752.96 114.594 758.236 108.486C763.497 102.37 772.72 101.694 778.844 106.978L786.762 113.812L823.754 81.3461C830.767 75.2134 835.546 67.5808 837.602 59.2468C838.751 54.4835 838.473 51.8246 838.473 51.8013C837.39 40.0902 830.098 29.2276 818.029 29.2276C810.216 29.2276 803.571 33.7854 800.242 41.4196C797.927 46.7524 792.666 50.1946 786.861 50.2029C786.853 50.2029 786.853 50.2029 786.853 50.2029C781.037 50.2029 775.786 46.7691 773.461 41.4514C770.208 34.0225 762.901 29.2276 754.844 29.2276C742.774 29.2276 735.476 40.0985 734.497 50.8459C734.367 51.8096 734.106 54.4351 735.297 59.205C737.246 67.0347 732.483 74.9695 724.655 76.9269C716.768 78.8994 708.899 74.096 706.933 66.2831C704.234 55.4455 705.238 48.5144 705.612 46.6555C707.888 20.7215 729.147 0 754.844 0C766.717 0 777.922 4.2572 786.672 11.6042C795.235 4.20042 806.188 0 818.029 0C843.749 0 865.002 20.7299 867.457 48.2205C867.604 48.5061 868.606 55.3804 865.997 66.1779C862.482 80.4326 854.539 93.2526 843.008 103.332L796.484 144.172C793.727 146.587 790.286 147.801 786.844 147.801Z" fill="#43525B"/>
<path d="M690.191 90.1777C684.124 76.3472 670.325 66.6587 654.245 66.6587C632.65 66.6587 617.089 84.551 615.133 105.835C615.133 105.835 614.056 111.12 616.372 120.644C619.536 133.612 627.006 145.094 637.021 153.917L690.191 199.699L742.415 153.917C752.463 145.094 759.9 133.612 763.065 120.644C765.348 111.12 764.336 105.835 764.336 105.835C762.38 84.551 746.788 66.6587 725.159 66.6587C709.111 66.6587 696.225 76.3472 690.191 90.1777Z" fill="#FBD0C4"/>
<path d="M690.191 214.313C686.799 214.313 683.399 213.131 680.658 210.774L627.487 164.992C614.659 153.697 605.949 139.597 602.175 124.112C599.304 112.319 600.404 104.905 600.812 102.916C603.332 74.5936 626.403 52.0449 654.245 52.0449C667.691 52.0449 680.341 57.0604 690.019 65.6633C699.472 56.9869 711.795 52.0449 725.159 52.0449C753.042 52.0449 776.137 74.5936 778.884 104.498C779.065 105.052 780.075 112.376 777.278 124.053C773.47 139.637 764.752 153.747 752.064 164.893L699.823 210.692C697.066 213.107 693.632 214.313 690.191 214.313ZM654.245 81.2725C639.688 81.2725 630.871 94.3046 629.68 107.173C629.542 108.257 629.168 111.43 630.57 117.196C632.927 126.826 638.497 135.739 646.684 142.949L690.101 180.341L732.785 142.924C740.94 135.764 746.51 126.859 748.867 117.179C750.261 111.357 749.902 108.118 749.902 108.087C748.598 94.3046 739.766 81.2725 725.159 81.2725C715.684 81.2725 707.619 86.7856 703.583 96.0249C701.266 101.343 696.013 104.783 690.208 104.791C690.2 104.791 690.2 104.791 690.2 104.791C684.393 104.791 679.142 101.358 676.808 96.0499C672.87 87.0712 664.013 81.2725 654.245 81.2725Z" fill="#43525B"/>
</g>
<defs>
<clipPath id="clip0_3_324">
<rect width="877.463" height="1000" fill="white"/>
</clipPath>
</defs>
</svg>
