<svg width="1021" height="1000" viewBox="0 0 1021 1000" fill="none" xmlns="http://www.w3.org/2000/svg">
<g clip-path="url(#clip0_3_312)">
<path d="M918.213 558.763C903.968 376.267 720.322 210.162 499.426 210.162C457.918 210.162 417.869 215.282 380.062 224.732C282.152 191.441 158.416 202.35 150.135 219.881C145.111 230.561 171.051 274.58 199.291 317.389C153.796 357.018 119.383 405.599 100.095 459.673H34.662C30.771 459.673 26.9545 461.179 24.0215 464.112C21.0885 466.996 19.6318 470.832 19.6318 474.703V602.876C19.6318 608.263 21.0689 613.689 24.0608 618.578C27.0507 623.468 31.2304 627.149 36.0245 629.564L100.729 662.655C127.894 737.386 183.953 801.459 258.034 845.764V965.358C258.034 969.211 259.49 973.045 262.423 975.959C265.376 978.911 269.191 980.368 273.007 980.368H386.656C392.235 980.368 397.872 978.815 402.876 975.576C407.898 972.374 411.638 967.868 413.939 962.827L439.493 906.731C459.049 909.165 479.063 910.373 499.426 910.373C531.557 910.373 562.864 907.324 592.907 901.574V965.358C592.907 969.172 594.344 973.045 597.297 975.959C600.192 978.854 604.026 980.368 607.861 980.368H722.297C727.684 980.368 733.147 978.911 738.055 975.922C742.963 972.853 746.703 968.636 749.098 963.805C749.098 963.805 891.738 678.873 893.212 675.328C901.112 656.251 907.114 636.35 910.985 615.951C913.9 600.558 915.587 584.836 916.046 568.829" fill="#FBD0C4"/>
<path d="M722.297 1000H607.861C598.773 1000 589.878 996.301 583.417 989.841C576.917 983.417 573.275 974.695 573.275 965.358V924.751C533.091 930.503 491.22 931.51 451.477 927.78L431.806 970.965C427.818 979.689 421.473 987.002 413.42 992.132C405.522 997.25 396.223 1000 386.656 1000H273.007C263.784 1000 255.099 996.398 248.544 989.841C242.024 983.36 238.402 974.646 238.402 965.358V856.73C166.987 811.485 112.98 748.113 85.0454 676.678L27.0901 647.038C18.9605 642.945 12.0972 636.629 7.30503 628.826C2.53055 621.004 0 612.031 0 602.876V474.703C0 465.359 3.64172 456.624 10.2577 450.116C16.7185 443.656 25.4213 440.041 34.6621 440.041H86.5806C105.349 393.789 135.162 350.73 173.715 314.111C126.054 239.945 126.687 223.592 132.362 211.524C149.674 174.877 292.733 176.304 380.867 204.335C419.363 195.171 459.222 190.53 499.426 190.53C717.024 190.53 914.13 351.708 936.618 545.17C964.896 537.559 980.674 522.768 981.556 510.19C982.304 499.446 970.476 489.706 950.671 484.759L960.181 446.665C1007.4 458.456 1022.41 488.632 1020.73 512.933C1018.65 542.534 991.219 575.058 934.777 585.891C933.876 597.289 932.362 608.571 930.271 619.605C926.188 641.096 919.823 662.367 911.35 682.843C909.893 686.322 831.863 842.332 766.661 972.596C762.615 980.733 756.307 987.664 748.466 992.571C740.413 997.47 731.441 1000 722.297 1000ZM612.539 960.736H722.297C724.233 960.736 726.151 960.191 727.837 959.156C729.37 958.206 730.656 956.788 731.518 955.082C770.36 877.466 871.874 674.58 875.345 667.188C882.534 649.818 888.114 631.136 891.699 612.29C894.402 597.998 895.992 583.178 896.414 568.263L897.757 551.017C878.335 375.951 698.352 229.793 499.426 229.793C460.506 229.793 421.933 234.501 384.817 243.779L379.218 245.179L373.734 243.32C293.079 215.904 199.215 221.061 171.184 229.707C174.942 239.313 185.602 260.977 215.682 306.578L225.135 320.917L212.193 332.19C168.73 370.036 136.369 416.403 118.577 466.268L113.938 479.305H39.2638V602.876C39.2638 604.824 39.7821 606.663 40.8167 608.332C41.7747 609.922 43.1372 611.169 44.8628 612.031L116.545 648.687L119.172 655.945C144.306 725.077 197.2 786.503 268.117 828.912L277.666 834.635V960.736H386.656C388.036 960.736 390.107 960.45 392.196 959.099C394.383 957.709 395.514 955.934 396.07 954.68L427.608 885.47L441.928 887.252C489.341 893.128 541.028 891.499 589.206 882.295L612.539 877.829V960.736Z" fill="#43525B"/>
<path d="M259.557 470.899C280.125 470.899 296.799 454.225 296.799 433.657C296.799 413.089 280.125 396.415 259.557 396.415C238.989 396.415 222.315 413.089 222.315 433.657C222.315 454.225 238.989 470.899 259.557 470.899Z" fill="#43525B"/>
<path d="M475.708 289.36L360.334 174.09C360.41 174.052 360.467 174.052 360.487 173.966C343.003 157.67 331.94 134.683 331.94 108.839C331.94 59.5572 371.875 19.6318 421.185 19.6318C470.457 19.6318 510.429 59.5572 510.429 108.839C510.429 59.5572 550.345 19.6318 599.674 19.6318C648.926 19.6318 688.899 59.5572 688.899 108.839C688.899 134.683 677.703 157.727 660.219 174.052L660.448 174.09L545.15 289.36" fill="#F48886"/>
<path d="M475.708 308.992C470.687 308.992 465.663 307.076 461.829 303.25L346.454 187.979C345.896 187.414 345.38 186.821 344.881 186.207C323.85 165.53 312.308 138.171 312.308 108.839C312.308 48.8226 361.158 0 421.185 0C458.071 0 490.721 18.4245 510.429 46.559C530.138 18.4245 562.788 0 599.674 0C659.701 0 708.531 48.8226 708.531 108.839C708.531 138.105 696.952 165.481 675.844 186.256C675.383 186.858 674.866 187.424 674.328 187.972L559.03 303.24C551.362 310.91 538.937 310.91 531.269 303.24C523.6 295.572 523.6 283.139 531.269 275.481L644.574 162.195C645.246 161.311 645.994 160.479 646.818 159.702C661.293 146.185 669.267 128.126 669.267 108.839C669.267 70.4766 638.056 39.2638 599.674 39.2638C561.292 39.2638 530.061 70.4766 530.061 108.839C530.061 119.68 521.28 128.471 510.429 128.471C499.579 128.471 490.797 119.68 490.797 108.839C490.797 70.4766 459.567 39.2638 421.185 39.2638C382.802 39.2638 351.572 70.4766 351.572 108.839C351.572 128.175 359.489 146.205 373.868 159.605C374.732 160.402 375.499 161.264 376.188 162.175L489.59 275.471C497.258 283.139 497.258 295.562 489.59 303.232C485.756 307.076 480.732 308.992 475.708 308.992Z" fill="#43525B"/>
<path d="M604.888 312.673H381.556C370.705 312.673 361.924 303.884 361.924 293.042C361.924 282.201 370.705 273.41 381.556 273.41H604.888C615.741 273.41 624.52 282.201 624.52 293.042C624.52 303.884 615.741 312.673 604.888 312.673Z" fill="#43525B"/>
</g>
<defs>
<clipPath id="clip0_3_312">
<rect width="1020.85" height="1000" fill="white"/>
</clipPath>
</defs>
</svg>
