<svg width="940" height="1000" viewBox="0 0 940 1000" fill="none" xmlns="http://www.w3.org/2000/svg">
<path d="M18.1741 281.044V139.396H138.391V19.2256H318.67V139.396H619.128V19.2256H799.501V139.396H919.681V281.044H18.1741Z" fill="#C0DFCF"/>
<path d="M919.681 281.044H18.1741V980.774H919.681V281.044Z" fill="white"/>
<path d="M911.194 288.217H28.7637V339.988H911.194V288.217Z" fill="#CCCCCC"/>
<path d="M920.732 1000H19.2257C8.60737 1000 0 991.393 0 980.774V139.396C0 128.778 8.60737 120.17 19.2257 120.17H120.217V19.2257C120.217 8.60736 128.824 0 139.442 0H319.72C330.337 0 338.946 8.60736 338.946 19.2257V120.17H600.953V19.2257C600.953 8.60736 609.562 0 620.178 0H800.533C811.149 0 819.759 8.60736 819.759 19.2257V120.17H920.73C931.349 120.17 939.956 128.778 939.956 139.396V980.774C939.958 991.393 931.351 1000 920.732 1000ZM38.4515 961.548H901.507V158.622H800.535C789.917 158.622 781.309 150.013 781.309 139.396V38.4515H639.406V139.396C639.406 150.013 630.797 158.622 620.18 158.622H319.722C309.106 158.622 300.496 150.013 300.496 139.396V38.4515H158.668V139.396C158.668 150.013 150.059 158.622 139.442 158.622H38.4515V961.548Z" fill="#43525B"/>
<path d="M921.784 300.27H35.0352V261.818H921.784V300.27Z" fill="#43525B"/>
<path d="M229.601 218.72C218.983 218.72 210.376 210.112 210.376 199.494V79.3063C210.376 68.6879 218.983 60.0806 229.601 60.0806C240.218 60.0806 248.827 68.6879 248.827 79.3063V199.494C248.827 210.112 240.218 218.72 229.601 218.72Z" fill="#43525B"/>
<path d="M710.357 218.72C699.74 218.72 691.131 210.112 691.131 199.494V79.3063C691.131 68.6879 699.74 60.0806 710.357 60.0806C720.975 60.0806 729.582 68.6879 729.582 79.3063V199.494C729.582 210.112 720.975 218.72 710.357 218.72Z" fill="#43525B"/>
<path d="M495.326 602.569V428.213H455.185V397.431H529.909V602.569H495.326Z" fill="#43525B"/>
<path d="M671.399 521.404V472.757H703.635V521.404H733.525V552.177H703.635V602.569H671.399V552.177H573.523V526.36L643.555 397.431H676.975L610.454 521.404H671.399Z" fill="#43525B"/>
<path d="M240.116 701.382V759.023H330.875V788.986H240.116V870.94H206.433V671.117H340.599L340.299 701.382H240.116Z" fill="#43525B"/>
<path d="M411.306 701.382V755.324H508.956V785.569H411.306V840.694H523.788V870.94H377.625V671.117H520.353V701.382H411.306Z" fill="#43525B"/>
<path d="M658.745 671.117C700.125 671.117 725.808 689.948 725.808 721.057C725.808 743.627 712.404 760.468 690.7 765.611C717.53 770.174 733.526 789.288 733.526 816.136C733.526 850.381 705.852 870.94 660.735 870.94H571.966V671.117H658.745ZM605.647 753.897H657.017C678.459 753.897 691.281 743.907 691.281 727.066C691.281 710.226 678.459 701.082 657.017 701.082H605.647V753.897ZM605.647 840.957H657.017C683.283 840.957 698.998 830.687 698.998 811.836C698.998 794.15 683.283 783.58 657.017 783.58H605.647V840.957Z" fill="#43525B"/>
<path d="M316.981 436.888C308.006 416.591 287.842 402.397 264.223 402.397C232.568 402.397 209.701 428.655 206.771 459.888C206.771 459.888 205.212 467.622 208.63 481.618C213.323 500.638 224.307 517.461 238.953 530.415L316.982 597.594L393.622 530.415C408.324 517.461 419.269 500.638 423.906 481.618C427.267 467.622 425.821 459.888 425.821 459.888C422.911 428.655 400.08 402.397 368.275 402.397C344.748 402.397 325.842 416.591 316.981 436.888Z" fill="#FFA8A6"/>
<path d="M316.981 614.895C312.962 614.895 308.937 613.505 305.687 610.708L227.658 543.531C209.539 527.506 197.214 507.585 191.825 485.769C187.695 468.833 189.422 458.394 189.806 456.469C193.457 416.555 225.564 385.095 264.221 385.095C284.216 385.095 302.973 393.095 316.754 406.659C330.196 392.982 348.409 385.095 368.273 385.095C407.643 385.095 439.093 415.878 443.046 458.282C443.186 458.611 444.745 468.918 440.727 485.656C435.377 507.594 423.051 527.543 405.063 543.398L328.385 610.604C325.119 613.468 321.055 614.895 316.981 614.895ZM264.223 419.698C240.389 419.698 225.951 440.727 223.997 461.502C223.818 462.854 223.134 468.074 225.443 477.517C229.123 492.433 237.759 506.262 250.413 517.451L316.877 574.669L382.214 517.405C394.829 506.289 403.448 492.481 407.09 477.517C409.389 467.97 408.741 462.656 408.734 462.6C406.659 440.727 392.184 419.698 368.273 419.698C352.681 419.698 339.425 428.711 332.834 443.815C330.092 450.105 323.888 454.179 317.015 454.189C317.015 454.189 316.986 454.189 316.977 454.189C310.125 454.189 303.919 450.152 301.15 443.882C294.658 429.19 280.163 419.698 264.223 419.698Z" fill="#43525B"/>
</svg>
