<svg width="1274" height="1000" viewBox="0 0 1274 1000" fill="none" xmlns="http://www.w3.org/2000/svg">
<g clip-path="url(#clip0_3_216)">
<path d="M705.216 910.388H568.413V978.778H705.216V910.388Z" fill="#969696"/>
<path d="M726.438 1000H547.191V889.166H726.438V1000ZM589.635 957.556H683.994V931.61H589.635V957.556Z" fill="#434A54"/>
<path d="M773.606 773.564H500.021V910.388H773.606V773.564Z" fill="#C8C8C8"/>
<path d="M794.828 931.61H478.799V752.342H794.828V931.61ZM521.243 889.166H752.384V794.786H521.243V889.166Z" fill="#43525B"/>
<path d="M315.738 778.456C240.271 778.456 179.103 717.277 179.103 641.839H179.092C179.081 717.277 117.913 778.456 42.4438 778.456C117.913 778.456 179.081 839.634 179.081 915.112H179.092C179.092 839.634 240.271 778.456 315.738 778.456Z" fill="#C0DFCF"/>
<path d="M179.092 936.334C167.433 936.334 157.983 926.948 157.87 915.331V915.32C157.87 915.31 157.87 915.299 157.87 915.289V915.259C157.87 915.259 157.87 915.259 157.87 915.248C157.87 915.248 157.87 915.238 157.87 915.227V915.216C157.87 915.206 157.87 915.206 157.87 915.206V915.187C157.87 915.166 157.87 915.166 157.87 915.144V915.134C157.87 915.123 157.87 915.123 157.87 915.123C157.86 851.468 106.078 799.678 42.4439 799.678C30.7251 799.678 21.2219 790.175 21.2219 778.456C21.2219 766.735 30.7251 757.234 42.4439 757.234C106.078 757.234 157.86 705.463 157.87 641.839C157.87 630.119 167.371 620.617 179.092 620.617C190.811 620.617 200.314 630.119 200.314 641.839V641.85H200.325C200.325 642.224 200.325 642.616 200.325 643C200.955 706.095 252.488 757.234 315.738 757.234C327.459 757.234 336.96 766.735 336.96 778.456C336.96 790.175 327.459 799.678 315.738 799.678C252.094 799.678 200.314 851.457 200.314 915.112C200.314 926.833 190.811 936.334 179.092 936.334ZM121.436 778.456C145.311 792.309 165.236 812.247 179.092 836.122C192.935 812.247 212.873 792.309 236.748 778.456C212.873 764.602 192.946 744.675 179.092 720.811C165.236 744.675 145.311 764.602 121.436 778.456Z" fill="#43525B"/>
<path d="M226.116 123.807C169.538 123.807 123.673 77.9232 123.673 21.3667C123.662 77.9444 77.8103 123.807 21.2219 123.807C77.8103 123.807 123.662 169.672 123.662 226.25H123.673C123.673 169.672 169.538 123.807 226.116 123.807Z" fill="#C0DFCF"/>
<path d="M123.673 247.472C112.069 247.472 102.638 238.155 102.451 226.591C102.451 226.581 102.451 226.57 102.451 226.56C102.451 226.56 102.451 226.54 102.451 226.53V226.498C102.451 226.498 102.451 226.498 102.451 226.487C102.451 226.487 102.451 226.477 102.451 226.466V226.458C102.451 226.436 102.451 226.426 102.451 226.426V226.405C102.451 226.405 102.451 226.394 102.451 226.383V226.373C102.451 226.364 102.451 226.364 102.451 226.364V226.343C102.451 226.322 102.451 226.301 102.451 226.301V226.29C102.451 226.282 102.451 226.271 102.451 226.271C102.451 226.26 102.451 226.26 102.451 226.26C102.441 181.463 66.0088 145.029 21.222 145.029C9.50319 145.029 0 135.528 0 123.807C0 112.088 9.50319 102.585 21.222 102.585C66.0088 102.585 102.441 66.1512 102.451 21.3665C102.451 9.6456 111.954 0.144531 123.673 0.144531C135.394 0.144531 144.895 9.6456 144.895 21.3665C144.895 66.1512 181.329 102.585 226.116 102.585C237.835 102.585 247.338 112.088 247.338 123.807C247.338 135.528 237.835 145.029 226.116 145.029C181.329 145.029 144.895 181.463 144.895 226.25C144.895 237.968 135.394 247.472 123.673 247.472ZM90.4204 123.807C103.508 132.678 114.804 143.972 123.673 157.06C132.533 143.972 143.828 132.678 156.915 123.807C143.838 114.949 132.533 103.642 123.673 90.5649C114.804 103.642 103.508 114.938 90.4204 123.807Z" fill="#43525B"/>
<path d="M1252.1 614.151C1195.52 614.151 1149.66 568.267 1149.66 511.71C1149.66 568.267 1103.79 614.151 1047.21 614.151C1103.79 614.151 1149.66 659.995 1149.66 716.572C1149.66 659.995 1195.52 614.151 1252.1 614.151Z" fill="#C0DFCF"/>
<path d="M1149.66 737.794C1137.93 737.794 1128.43 728.291 1128.43 716.572C1128.43 671.796 1092 635.373 1047.21 635.373C1035.49 635.373 1025.99 625.872 1025.99 614.151C1025.99 602.432 1035.49 592.929 1047.21 592.929C1092 592.929 1128.43 556.495 1128.43 511.71C1128.43 499.99 1137.93 490.489 1149.66 490.489C1161.37 490.489 1170.88 499.99 1170.88 511.71C1170.88 556.495 1207.31 592.929 1252.1 592.929C1263.81 592.929 1273.32 602.432 1273.32 614.151C1273.32 625.872 1263.81 635.373 1252.1 635.373C1207.31 635.373 1170.88 671.796 1170.88 716.572C1170.88 728.291 1161.37 737.794 1149.66 737.794ZM1116.41 614.151C1129.49 623.011 1140.79 634.306 1149.66 647.382C1158.51 634.306 1169.82 623.011 1182.9 614.151C1169.82 605.291 1158.51 593.986 1149.66 580.909C1140.79 593.986 1129.49 605.291 1116.41 614.151Z" fill="#43525B"/>
<path d="M944.604 329.002C944.604 159.018 806.808 21.2222 636.814 21.2222C466.832 21.2222 329.023 159.018 329.023 329.002C329.023 405.911 357.291 476.168 403.922 530.093C403.922 530.093 500.021 636.782 500.021 773.564H636.814H773.606C773.606 636.782 869.706 530.093 869.706 530.093C916.358 476.168 944.604 405.911 944.604 329.002Z" fill="#FBD0C4"/>
<path d="M794.828 794.786H478.799V773.564C478.799 646.918 389.041 545.283 388.141 544.278C336.237 484.26 307.801 407.92 307.801 329.002C307.801 147.588 455.392 0 636.814 0C818.238 0 965.826 147.588 965.826 329.002C965.826 407.941 937.393 484.292 885.758 543.978C884.587 545.283 794.828 646.918 794.828 773.564V794.786ZM520.539 752.342H753.089C761.888 619.571 849.997 520.259 853.936 515.885C898.619 464.23 923.383 397.744 923.383 329.002C923.383 170.998 794.828 42.4439 636.814 42.4439C478.799 42.4439 350.245 170.998 350.245 329.002C350.245 397.725 375.011 464.209 419.974 516.207C423.641 520.28 511.742 619.571 520.539 752.342Z" fill="#43525B"/>
<path d="M595.376 556.599L458.178 419.526C458.263 419.486 458.324 419.486 458.386 419.382C437.578 400.004 424.439 372.668 424.439 341.934C424.439 283.345 471.898 235.865 530.549 235.865C589.117 235.865 636.659 283.345 636.659 341.934C636.659 283.345 684.117 235.865 742.769 235.865C801.337 235.865 848.878 283.345 848.878 341.934C848.878 372.668 835.572 400.066 814.766 419.486L815.057 419.526L677.942 556.599" fill="#F48886"/>
<path d="M595.376 577.821C589.945 577.821 584.517 575.748 580.372 571.613L443.185 434.541C442.512 433.879 441.901 433.174 441.34 432.438C416.729 408.262 403.217 376.263 403.217 341.935C403.217 271.749 460.334 214.643 530.549 214.643C574.786 214.643 613.83 237.317 636.659 271.637C659.487 237.317 698.531 214.643 742.769 214.643C812.984 214.643 870.1 271.749 870.1 341.935C870.1 376.191 856.535 408.221 831.822 432.531C831.283 433.236 830.693 433.9 830.061 434.53L692.946 571.603C684.657 579.892 671.227 579.892 662.938 571.603C654.649 563.314 654.649 549.874 662.938 541.595L797.74 406.833C798.487 405.806 799.336 404.853 800.289 403.973C817.937 387.496 827.657 365.465 827.657 341.935C827.657 295.149 789.576 257.087 742.769 257.087C695.962 257.087 657.881 295.149 657.881 341.935C657.881 353.653 648.378 363.157 636.659 363.157C624.94 363.157 615.437 353.653 615.437 341.935C615.437 295.149 577.356 257.087 530.549 257.087C483.742 257.087 445.661 295.149 445.661 341.935C445.661 365.54 455.319 387.528 472.853 403.847C473.846 404.781 474.727 405.785 475.514 406.844L610.369 541.584C618.669 549.874 618.669 563.303 610.39 571.603C606.246 575.748 600.804 577.821 595.376 577.821Z" fill="#43525B"/>
<path d="M668.657 568.392H604.991V773.564H668.657V568.392Z" fill="white"/>
<path d="M689.879 794.786H583.77V547.17H689.879V794.786ZM626.213 752.342H647.435V589.614H626.213V752.342Z" fill="#43525B"/>
</g>
<defs>
<clipPath id="clip0_3_216">
<rect width="1273.32" height="1000" fill="white"/>
</clipPath>
</defs>
</svg>
