<svg width="917" height="1000" viewBox="0 0 917 1000" fill="none" xmlns="http://www.w3.org/2000/svg">
<g clip-path="url(#clip0_3_155)">
<path d="M458.316 338.13C458.316 211.596 560.839 109.031 687.5 109.031C813.989 109.031 916.632 211.596 916.632 338.13C916.632 404.519 887.968 463.661 843.012 505.586L843.612 505.688L458.316 890.951L72.8825 505.688C73.0526 505.586 73.1912 505.586 73.3281 505.405C28.3877 463.567 0 404.519 0 338.13C0 211.596 102.539 109.031 229.184 109.031C355.674 109.031 458.316 211.596 458.316 338.13Z" fill="#C0DFCF"/>
<path d="M339.312 400.039V594.881L159.83 982.456H756.801L576 594.881V400.039" fill="white"/>
<path d="M339.312 400.039V493.019H576V400.039" fill="#CCCCCC"/>
<path d="M289.456 703.912L159.83 982.456H756.801L627.945 703.912" fill="#FBD0C4"/>
<path d="M557.993 797.012C576.359 797.012 591.163 811.849 591.163 830.232C591.163 848.547 576.359 863.435 557.993 863.435C539.593 863.435 524.723 848.547 524.723 830.232C524.723 811.849 539.593 797.012 557.993 797.012Z" fill="#FFA8A6"/>
<path d="M425.112 929.895C443.464 929.895 458.342 915.017 458.342 896.665C458.342 878.313 443.464 863.435 425.112 863.435C406.76 863.435 391.882 878.313 391.882 896.665C391.882 915.017 406.76 929.895 425.112 929.895Z" fill="#FFA8A6"/>
<path d="M358.689 730.59C377.072 730.59 391.909 745.442 391.909 763.809C391.909 782.125 377.072 797.012 358.689 797.012C340.289 797.012 325.468 782.125 325.468 763.809C325.468 745.442 340.289 730.59 358.689 730.59Z" fill="#FFA8A6"/>
<path d="M756.802 1000H159.83C153.818 1000 148.214 996.916 144.993 991.837C141.79 986.747 141.395 980.367 143.983 974.935L321.769 600.354V386.83C321.769 377.142 329.616 369.286 339.312 369.286C349.009 369.286 356.856 377.142 356.856 386.83V604.303C356.856 606.907 356.274 609.477 355.16 611.825L187.586 964.912H729.098L562.226 611.8C561.13 609.453 560.546 606.9 560.546 604.303V386.83C560.546 377.142 568.393 369.286 578.09 369.286H629.283C638.981 369.286 646.826 377.142 646.826 386.83C646.826 396.519 638.981 404.374 629.283 404.374H595.633V600.363L772.667 974.961C775.237 980.391 774.842 986.765 771.621 991.846C768.4 996.924 762.814 1000 756.802 1000Z" fill="#43525B"/>
<path d="M571.82 404.374H288.137C278.441 404.374 270.593 396.519 270.593 386.83C270.593 377.142 278.441 369.286 288.137 369.286H571.82C581.518 369.286 589.363 377.142 589.363 386.83C589.363 396.519 581.518 404.374 571.82 404.374Z" fill="#43525B"/>
<path d="M577.646 625.651H339.776C330.078 625.651 322.232 617.796 322.232 608.107C322.232 598.419 330.078 590.563 339.776 590.563H577.646C587.342 590.563 595.19 598.419 595.19 608.107C595.19 617.796 587.342 625.651 577.646 625.651Z" fill="#43525B"/>
<path d="M422.32 559.879H333.744V524.791H422.32V559.879Z" fill="#43525B"/>
<path d="M422.32 510.049H333.744V474.961H422.32V510.049Z" fill="#43525B"/>
<path d="M422.32 460.253H333.744V425.165H422.32V460.253Z" fill="#43525B"/>
<path d="M462.788 175.49C454.735 157.021 436.282 144.128 414.867 144.128C386.051 144.128 365.233 167.977 362.612 196.391C362.612 196.391 361.191 203.433 364.309 216.137C368.558 233.476 378.477 248.793 391.858 260.546L462.788 321.632L532.535 260.546C545.916 248.793 555.835 233.476 560.084 216.137C563.151 203.433 561.796 196.391 561.796 196.391C559.158 167.977 538.36 144.128 509.509 144.128C488.093 144.128 470.856 157.021 462.788 175.49Z" fill="#FFA8A6"/>
<path d="M462.788 339.175C458.71 339.175 454.631 337.761 451.342 334.926L380.414 273.84C363.675 259.14 352.265 240.672 347.261 220.309C343.954 206.791 344.64 197.779 345.205 194.105C349.077 155.565 378.923 126.584 414.867 126.584C432.96 126.584 449.921 133.558 462.616 145.439C475.037 133.454 491.553 126.584 509.509 126.584C545.675 126.584 575.658 155.898 579.272 194.774C579.375 194.875 580.9 204.649 577.131 220.258C572.128 240.672 560.717 259.14 544.116 273.728L474.352 334.832C471.045 337.728 466.916 339.175 462.788 339.175ZM379.814 199.826C379.847 199.826 379.454 204.256 381.338 211.956C384.61 225.304 392.252 237.544 403.44 247.361L462.684 298.391L520.97 247.344C532.14 237.544 539.782 225.304 543.037 211.965C545.024 203.767 544.475 199.211 544.475 199.167C542.66 179.953 530.153 161.672 509.509 161.672C496.024 161.672 484.563 169.468 478.858 182.514C476.065 188.905 469.76 193.033 462.788 193.033C455.796 193.033 449.493 188.897 446.7 182.505C441.182 169.846 428.693 161.672 414.867 161.672C394.223 161.672 381.749 179.953 380.088 198.002C380.019 198.619 379.933 199.228 379.814 199.835C379.814 199.826 379.814 199.826 379.814 199.826Z" fill="#43525B"/>
<path d="M626.971 42.772C620.493 27.9264 605.709 17.5439 588.457 17.5439C565.276 17.5439 548.588 36.7071 546.464 59.5527C546.464 59.5527 545.367 65.2492 547.886 75.4352C551.262 89.3211 559.228 101.656 569.986 111.105L626.971 160.207L682.978 111.088C693.753 101.656 701.72 89.3211 705.146 75.4352C707.614 65.2492 706.5 59.5527 706.5 59.5527C704.393 36.7071 687.706 17.5439 664.525 17.5439C647.29 17.5439 633.464 27.9264 626.971 42.772Z" fill="#FFA8A6"/>
<path d="M626.97 177.751C622.893 177.751 618.814 176.339 615.525 173.495L558.542 124.391C544.511 112.082 534.984 96.6281 530.839 79.5807C527.651 66.7228 528.8 58.4649 529.228 56.2386C532.072 24.9018 557.633 0 588.456 0C602.779 0 616.262 5.12281 626.798 13.9807C637.095 5.06316 650.288 0 664.525 0C695.176 0 720.618 24.6105 723.907 57.3439C724.386 60.6158 724.918 68.3158 722.193 79.5649C717.962 96.7053 708.402 112.142 694.525 124.289L638.535 173.4C635.228 176.295 631.098 177.751 626.97 177.751ZM588.456 35.0877C573.944 35.0877 565.139 48.2105 563.939 61.1807C563.802 62.2088 563.476 65.4211 564.916 71.221C567.365 81.2947 573.121 90.5035 581.569 97.9211L626.867 136.958L671.412 97.8965C679.858 90.5035 685.632 81.286 688.116 71.2298C689.504 65.4895 689.179 62.2684 689.162 62.2351C687.842 48.2035 679.037 35.0877 664.525 35.0877C655.102 35.0877 647.067 40.5877 643.041 49.8053C640.248 56.186 633.942 60.3158 626.97 60.3158C626.97 60.3158 626.97 60.3158 626.953 60.3158C619.979 60.3158 613.676 56.1772 610.883 49.7877C606.993 40.8614 598.188 35.0877 588.456 35.0877Z" fill="#43525B"/>
</g>
<defs>
<clipPath id="clip0_3_155">
<rect width="916.632" height="1000" fill="white"/>
</clipPath>
</defs>
</svg>
