<svg width="697" height="1000" viewBox="0 0 697 1000" fill="none" xmlns="http://www.w3.org/2000/svg">
<g clip-path="url(#clip0_3_627)">
<path d="M596.491 171.944H100.26V244.14H596.491V171.944Z" fill="#CCCCCC"/>
<path d="M90.9229 982.456C50.4562 982.456 17.5439 949.544 17.5439 909.095V436.591C17.5439 404.914 26.4352 373.972 43.2422 347.073L84.772 280.598C89.2948 273.368 92.9439 265.282 95.6352 256.528L99.4545 244.14H597.314L601.133 256.528C603.823 265.3 607.474 273.403 611.979 280.582L653.509 347.073C670.316 373.972 679.207 404.914 679.207 436.591V909.095C679.207 949.544 646.295 982.456 605.828 982.456H90.9229Z" fill="#C0DFCF"/>
<path d="M605.828 1000H90.9228C40.793 1000 0 959.224 0 909.095V436.591C0 401.624 9.81579 367.444 28.3719 337.77L69.9018 271.296C78.2789 257.881 82.7158 242.428 82.7158 226.596V171.944C82.7158 162.246 90.5632 154.4 100.26 154.4H596.491C606.188 154.4 614.035 162.246 614.035 171.944V226.596C614.035 242.428 618.472 257.881 626.849 271.296L668.379 337.77C686.935 367.444 696.751 401.624 696.751 436.591V909.095C696.751 959.224 655.958 1000 605.828 1000ZM117.804 189.488V226.596C117.804 249.023 111.533 270.902 99.6439 289.902L58.114 356.377C43.0544 380.465 35.0877 408.203 35.0877 436.591V909.095C35.0877 939.865 60.1351 964.912 90.9228 964.912H605.828C636.616 964.912 661.663 939.865 661.663 909.095V436.591C661.663 408.203 653.697 380.465 638.637 356.377L597.107 289.902C585.218 270.902 578.947 249.023 578.947 226.596V189.488H117.804Z" fill="#43525B"/>
<path d="M593.989 261.684H100.26C90.5632 261.684 82.7158 253.837 82.7158 244.14C82.7158 234.444 90.5632 226.596 100.26 226.596H593.989C603.686 226.596 611.533 234.444 611.533 244.14C611.533 253.837 603.686 261.684 593.989 261.684Z" fill="#43525B"/>
<path d="M591.419 899.756H96.1318V436.591H591.419C596.491 436.591 600.637 438.769 600.637 441.423V894.925C600.637 897.581 596.491 899.756 591.419 899.756Z" fill="white"/>
<path d="M591.419 917.3H78.5879V419.047H591.419C606.669 419.047 618.181 428.66 618.181 441.423V894.925C618.181 907.689 606.669 917.3 591.419 917.3ZM591.419 882.212V899.756V882.212ZM113.676 882.212H583.093V454.135H113.676V882.212Z" fill="#43525B"/>
<path d="M613.041 17.5439H83.7109V171.944H613.041V17.5439Z" fill="white"/>
<path d="M613.041 189.488H83.7108C74.0126 189.488 66.167 181.64 66.167 171.944V17.5439C66.167 7.84737 74.0126 0 83.7108 0H613.041C622.739 0 630.584 7.84737 630.584 17.5439V171.944C630.584 181.64 622.739 189.488 613.041 189.488ZM101.255 154.4H595.497V35.0877H101.255V154.4Z" fill="#43525B"/>
<path d="M149.876 189.488C140.179 189.488 132.332 181.64 132.332 171.944V23.0614C132.332 13.3632 140.179 5.51758 149.876 5.51758C159.574 5.51758 167.42 13.3632 167.42 23.0614V171.944C167.42 181.64 159.574 189.488 149.876 189.488Z" fill="#43525B"/>
<path d="M216.042 189.488C206.346 189.488 198.499 181.64 198.499 171.944V23.0614C198.499 13.3632 206.346 5.51758 216.042 5.51758C225.741 5.51758 233.586 13.3632 233.586 23.0614V171.944C233.586 181.64 225.741 189.488 216.042 189.488Z" fill="#43525B"/>
<path d="M282.209 189.488C272.512 189.488 264.665 181.64 264.665 171.944V23.0614C264.665 13.3632 272.512 5.51758 282.209 5.51758C291.907 5.51758 299.753 13.3632 299.753 23.0614V171.944C299.753 181.64 291.907 189.488 282.209 189.488Z" fill="#43525B"/>
<path d="M348.376 189.488C338.679 189.488 330.832 181.64 330.832 171.944V23.0614C330.832 13.3632 338.679 5.51758 348.376 5.51758C358.072 5.51758 365.92 13.3632 365.92 23.0614V171.944C365.92 181.64 358.072 189.488 348.376 189.488Z" fill="#43525B"/>
<path d="M414.542 189.488C404.846 189.488 396.999 181.64 396.999 171.944V23.0614C396.999 13.3632 404.846 5.51758 414.542 5.51758C424.239 5.51758 432.086 13.3632 432.086 23.0614V171.944C432.086 181.64 424.239 189.488 414.542 189.488Z" fill="#43525B"/>
<path d="M480.709 189.488C471.011 189.488 463.165 181.64 463.165 171.944V23.0614C463.165 13.3632 471.011 5.51758 480.709 5.51758C490.405 5.51758 498.253 13.3632 498.253 23.0614V171.944C498.253 181.64 490.405 189.488 480.709 189.488Z" fill="#43525B"/>
<path d="M546.876 189.488C537.178 189.488 529.332 181.64 529.332 171.944V23.0614C529.332 13.3632 537.178 5.51758 546.876 5.51758C556.572 5.51758 564.42 13.3632 564.42 23.0614V171.944C564.42 181.64 556.572 189.488 546.876 189.488Z" fill="#43525B"/>
<path d="M231.805 734.444C208.658 713.457 192.777 686.969 185.907 657.895C183.388 647.239 182.651 638.878 182.565 633.071L181.453 631.837L183.114 623.683C187.054 579.035 218.235 533.702 270.13 533.702C300.421 533.702 326.84 549.481 342.567 577.013L348.411 587.223L302.34 640.711L402.172 653.988L322.3 727.197L375.547 760.469L346.182 838.234L231.805 734.444Z" fill="#FFA8A6"/>
<path d="M368.353 779.555L375.547 760.469L322.316 727.197L402.172 653.988L302.323 640.711L347.93 587.737C361.789 554.928 393.091 533.7 427.717 533.7C479.56 533.7 510.844 579.735 514.939 625.205C514.991 625.274 516.789 637.353 511.94 657.895C505.07 686.986 489.223 713.421 466.11 734.341L394.993 797.818L368.353 779.555Z" fill="#FBD0C4"/>
<path d="M347.93 857.37C343.698 857.37 339.484 855.846 336.142 852.814L220.018 747.43C194.249 724.077 176.535 694.507 168.842 661.937C163.669 640.093 165.056 625.872 165.672 621.64C171.362 560.477 215.204 516.154 270.13 516.154C300.953 516.154 328.93 530.135 348.084 553.982C367.634 530.356 396.553 516.154 427.718 516.154C482.644 516.154 526.486 560.477 532.176 621.64C532.791 625.872 534.179 640.093 529.023 661.919C521.295 694.523 503.598 724.093 477.797 747.446L359.614 852.914C356.274 855.881 352.111 857.37 347.93 857.37ZM200.314 627.142C200.332 627.142 198.944 636.788 202.988 653.868C209.053 679.498 223.084 702.868 243.591 721.44L348.034 816.217L454.341 721.354C474.746 702.868 488.795 679.5 494.877 653.851C498.937 636.616 497.481 626.935 497.481 626.849C494.021 588.523 469.076 551.242 427.718 551.242C400.167 551.242 375.188 568.254 364.104 594.588C361.362 601.081 354.99 605.312 347.93 605.312C340.872 605.312 334.516 601.098 331.774 594.588C320.312 567.449 297.269 551.242 270.13 551.242C228.772 551.242 203.827 588.523 200.572 625.34C200.521 625.942 200.435 626.542 200.314 627.142Z" fill="#43525B"/>
<path d="M347.262 851.133C345.413 851.133 343.527 850.809 341.677 850.107C333.521 847.023 329.409 837.909 332.493 829.752L356.205 766.996L313.939 740.595C309.742 737.974 307.035 733.552 306.572 728.637C306.127 723.737 307.993 718.888 311.627 715.565L366.588 665.177L300.249 656.372C294.511 655.602 289.644 651.745 287.59 646.331C285.516 640.917 286.595 634.802 290.381 630.416L335.972 577.475C341.66 570.861 351.63 570.109 358.227 575.814C364.841 581.502 365.577 591.473 359.89 598.07L333.351 628.909L404.262 638.331C410.328 639.154 415.398 643.403 417.232 649.245C419.083 655.105 417.369 661.495 412.846 665.624L348.272 724.817L383.909 747.073C390.298 751.065 392.972 759.016 390.316 766.056L362.03 840.926C359.649 847.245 353.635 851.133 347.262 851.133Z" fill="#43525B"/>
</g>
<defs>
<clipPath id="clip0_3_627">
<rect width="696.751" height="1000" fill="white"/>
</clipPath>
</defs>
</svg>
