<svg width="788" height="1000" viewBox="0 0 788 1000" fill="none" xmlns="http://www.w3.org/2000/svg">
<path d="M431.005 585.335C409.18 585.335 393.945 559.457 393.945 536.23V493.49C393.945 471.745 372.493 452.67 348.078 452.67C326.48 452.67 294.433 469.808 294.433 493.49V536.23C294.433 578.955 276.92 585.335 266.455 585.335H228.108V336.588H559.782V419.498H534C497.753 419.498 460.287 439.193 460.287 472.118V536.23C460.287 580.533 439.812 585.335 431.005 585.335Z" fill="white"/>
<path d="M228.108 900.423V585.335H266.455C284.245 585.335 294.433 567.432 294.433 536.23V493.49C294.433 471.517 324.642 452.67 349.382 452.67C373.112 452.67 393.945 471.745 393.945 493.49V536.23C393.945 559.945 409.358 585.335 432.292 585.335C450.082 585.335 460.287 567.432 460.287 536.23V472.119C460.287 439.617 498.552 419.499 534 419.499H559.782V900.423H228.108Z" fill="#FBD0C4"/>
<path d="M58.1382 983.333L16.6665 850.667H771.223L729.768 983.333H58.1382Z" fill="#C0DFCF"/>
<path d="M729.768 1000H58.1384C50.8467 1000 44.4084 995.263 42.2284 988.305L0.756715 855.64C-0.821619 850.578 0.0967145 845.068 3.23838 840.797C6.38005 836.523 11.36 834 16.6667 834H771.223C776.522 834 781.51 836.523 784.652 840.797C787.793 845.068 788.712 850.578 787.133 855.64L745.678 988.305C743.505 995.263 737.06 1000 729.768 1000ZM70.3934 966.667H717.513L748.552 867.333H39.3384L70.3934 966.667Z" fill="#43525B"/>
<path d="M559.782 867.334C550.577 867.334 543.115 859.872 543.115 850.667V353.255H244.775V850.667C244.775 859.872 237.314 867.334 228.109 867.334C218.905 867.334 211.442 859.872 211.442 850.667V336.589C211.442 327.385 218.905 319.922 228.109 319.922H559.782C568.985 319.922 576.449 327.385 576.449 336.589V850.667C576.449 859.872 568.985 867.334 559.782 867.334Z" fill="#43525B"/>
<path d="M393.945 336.67C384.742 336.67 377.278 329.207 377.278 320.003V253.662C377.278 244.458 384.742 236.995 393.945 236.995C403.148 236.995 410.612 244.458 410.612 253.662V320.003C410.612 329.207 403.148 336.67 393.945 336.67Z" fill="#43525B"/>
<path d="M432.292 602.002C398.869 602.002 377.279 567.993 377.279 536.23V493.49C377.279 481.072 363.72 469.337 349.382 469.337C331.835 469.337 311.1 482.878 311.1 493.49V536.23C311.1 597.257 276.929 602.002 266.455 602.002H244.694C235.49 602.002 228.027 594.54 228.027 585.335C228.027 576.132 235.49 568.668 244.694 568.668H266.455C277.45 568.668 277.767 539.55 277.767 536.23V493.49C277.767 458.398 319.409 436.003 348.079 436.003C381.999 436.003 410.612 462.867 410.612 493.49V536.23C410.612 550.92 419.71 568.668 431.005 568.668C443.302 568.668 443.62 539.55 443.62 536.23V472.118C443.62 428.752 489.575 402.832 534 402.832H543.197C552.4 402.832 559.864 410.295 559.864 419.498C559.864 428.703 552.4 436.165 543.197 436.165H534C507.015 436.165 476.954 450.928 476.954 472.118V536.23C476.954 597.257 442.765 602.002 432.292 602.002Z" fill="#43525B"/>
<path d="M394.467 159.928C387.728 144.628 372.46 133.87 354.687 133.87C330.728 133.87 313.477 153.695 311.278 177.295C311.278 177.295 310.123 183.138 312.678 193.668C316.21 208.057 324.478 220.768 335.547 230.518L394.467 281.25L452.295 230.518C463.443 220.768 471.68 208.057 475.195 193.668C477.767 183.138 476.595 177.295 476.595 177.295C474.447 153.695 457.193 133.87 433.235 133.87C415.413 133.87 401.138 144.628 394.467 159.928Z" fill="#FFA8A6"/>
<path d="M394.467 297.917C390.592 297.917 386.718 296.573 383.593 293.88L324.675 243.148C310.425 230.598 300.732 214.908 296.492 197.64C293.702 186.148 294.262 178.393 294.743 175.163C298.095 142.073 323.772 117.203 354.687 117.203C369.523 117.203 383.503 122.697 394.262 132.128C404.785 122.623 418.432 117.203 433.235 117.203C464.185 117.203 489.835 142.082 493.132 175.172C493.62 178.442 494.182 186.19 491.39 197.623C487.15 214.973 477.425 230.68 463.265 243.067L405.46 293.783C402.312 296.533 398.388 297.917 394.467 297.917ZM327.645 180.468C327.685 180.468 327.457 183.878 328.873 189.738C331.47 200.317 337.59 210.107 346.565 218.01L394.36 259.172L441.3 217.985C450.293 210.132 456.405 200.358 459.008 189.713C460.538 183.438 460.148 179.988 460.148 179.957C458.715 164.755 449.113 150.537 433.235 150.537C422.908 150.537 414.127 156.535 409.742 166.593C407.097 172.657 401.115 176.587 394.498 176.595C394.482 176.595 394.473 176.595 394.467 176.595C387.858 176.595 381.877 172.697 379.215 166.642C374.902 156.86 365.275 150.537 354.687 150.537C338.818 150.537 329.183 164.778 327.872 178.842C327.823 179.395 327.742 179.94 327.637 180.485C327.645 180.468 327.645 180.468 327.645 180.468Z" fill="#43525B"/>
<path d="M523.6 117.432C519.335 117.432 515.071 115.803 511.816 112.548C505.305 106.038 505.305 95.4918 511.816 88.9818L533.3 67.4968C539.811 60.9868 550.358 60.9868 556.868 67.4968C563.378 74.0068 563.378 84.5534 556.868 91.0651L535.383 112.548C532.128 115.803 527.865 117.432 523.6 117.432Z" fill="#43525B"/>
<path d="M264.307 117.398C260.05 117.398 255.785 115.78 252.53 112.533L231.03 91.0799C224.52 84.5782 224.503 74.0232 231.005 67.5049C237.492 60.9949 248.047 60.9699 254.582 67.4799L276.082 88.9315C282.592 95.4349 282.608 105.99 276.107 112.508C272.852 115.763 268.578 117.398 264.307 117.398Z" fill="#43525B"/>
<path d="M393.962 63.6883C384.765 63.6883 377.303 56.2417 377.295 47.0383L377.262 16.6833C377.253 7.47833 384.708 0.00833333 393.912 0H393.928C403.125 0 410.587 7.44667 410.595 16.65L410.628 47.005C410.637 56.21 403.182 63.68 393.978 63.6883C393.978 63.6883 393.97 63.6883 393.962 63.6883Z" fill="#43525B"/>
<path d="M210.611 247.07H210.603L180.2 247.053C170.995 247.047 163.533 239.583 163.542 230.38C163.55 221.175 171.003 213.72 180.208 213.72H180.217L210.62 213.737C219.823 213.745 227.286 221.208 227.278 230.412C227.27 239.617 219.815 247.07 210.611 247.07Z" fill="#43525B"/>
<path d="M607.665 247.07H607.658L577.335 247.053C568.132 247.047 560.668 239.583 560.677 230.38C560.685 221.175 568.14 213.72 577.343 213.72H577.352L607.673 213.737C616.878 213.745 624.34 221.208 624.332 230.412C624.325 239.617 616.87 247.07 607.665 247.07Z" fill="#43525B"/>
</svg>
