<svg width="724" height="1000" viewBox="0 0 724 1000" fill="none" xmlns="http://www.w3.org/2000/svg">
<g clip-path="url(#clip0_3_516)">
<path d="M89.9898 293.066L16.6665 366.39V910.01L89.9898 983.333H633.627L706.933 910.01V366.39L633.627 293.066H629.02H89.9898Z" fill="#FBD0C4"/>
<path d="M633.627 1000H89.99C85.5717 1000 81.3317 998.242 78.2067 995.117L4.88333 921.793C1.75833 918.668 0 914.437 0 910.01V366.39C0 361.963 1.75833 357.732 4.88333 354.607L78.2067 281.283C81.3317 278.158 85.5717 276.4 89.99 276.4H633.627C638.045 276.4 642.285 278.158 645.41 281.283L718.717 354.607C721.842 357.732 723.6 361.963 723.6 366.39V910.01C723.6 914.437 721.842 918.668 718.717 921.793L645.41 995.117C642.285 998.242 638.045 1000 633.627 1000ZM96.8917 966.667H626.725L690.267 903.108V373.292L626.725 309.733H96.8917L33.3333 373.292V903.108L96.8917 966.667Z" fill="#43525B"/>
<path d="M474.836 197.917L543.05 138.248V76.3348L474.836 16.6665H248.78L180.55 76.3348V138.248L248.78 197.917H474.836Z" fill="white"/>
<path d="M180.55 107.292V138.248L248.78 197.917H474.836L543.05 138.248V107.292" fill="#CCCCCC"/>
<path d="M474.837 214.583H248.78C244.743 214.583 240.845 213.118 237.81 210.465L169.58 150.798C165.958 147.623 163.883 143.05 163.883 138.248V76.335C163.883 71.5333 165.958 66.96 169.58 63.785L237.81 4.11833C240.845 1.465 244.743 0 248.78 0H474.837C478.873 0 482.772 1.465 485.807 4.11833L554.02 63.785C557.642 66.96 559.717 71.5333 559.717 76.335V138.248C559.717 143.05 557.642 147.623 554.02 150.798L485.807 210.465C482.772 213.118 478.873 214.583 474.837 214.583ZM255.037 181.25H468.578L526.383 130.68V83.9033L468.578 33.3333H255.037L197.217 83.9033V130.68L255.037 181.25Z" fill="#43525B"/>
<path d="M383.627 152.473H278.027L267.26 148.535L233.552 120.02C226.528 114.078 225.65 103.548 231.59 96.5334C237.547 89.5017 248.045 88.64 255.085 94.5634L284.13 119.14H383.627C392.83 119.14 400.293 126.595 400.293 135.807C400.293 145.02 392.83 152.473 383.627 152.473Z" fill="#43525B"/>
<path d="M491.455 261.165H232.162C222.958 261.165 215.495 253.712 215.495 244.498C215.495 235.287 222.958 227.832 232.162 227.832H491.455C500.659 227.832 508.122 235.287 508.122 244.498C508.122 253.712 500.659 261.165 491.455 261.165Z" fill="#43525B"/>
<path d="M184.326 472.624C180.061 472.624 175.798 470.997 172.543 467.742L54.2165 349.414C47.7065 342.904 47.7065 332.357 54.2165 325.847C60.7265 319.337 71.2731 319.337 77.7848 325.847L196.111 444.174C202.621 450.684 202.621 461.23 196.111 467.742C192.855 470.997 188.59 472.624 184.326 472.624Z" fill="#43525B"/>
<path d="M539.273 472.624C535.01 472.624 530.745 470.997 527.49 467.742C520.98 461.23 520.98 450.684 527.49 444.174L645.8 325.847C652.312 319.337 662.858 319.337 669.368 325.847C675.878 332.357 675.878 342.904 669.368 349.414L551.058 467.742C547.803 470.997 543.538 472.624 539.273 472.624Z" fill="#43525B"/>
<path d="M65.9984 955.94C61.7334 955.94 57.47 954.314 54.215 951.059C47.705 944.549 47.705 934 54.215 927.49L172.542 809.18C179.052 802.67 189.598 802.67 196.11 809.18C202.62 815.69 202.62 826.237 196.11 832.747L77.7834 951.059C74.5284 954.314 70.2634 955.94 65.9984 955.94Z" fill="#43525B"/>
<path d="M657.585 955.94C653.32 955.94 649.057 954.314 645.8 951.059L527.49 832.747C520.98 826.237 520.98 815.69 527.49 809.18C534 802.67 544.547 802.67 551.058 809.18L669.368 927.49C675.878 934 675.878 944.549 669.368 951.059C666.113 954.314 661.848 955.94 657.585 955.94Z" fill="#43525B"/>
<path d="M563.183 441.472H160.4V844.255H563.183V441.472Z" fill="#C0DFCF"/>
<path d="M579.85 860.922H143.733V424.805H579.85V860.922ZM177.067 827.589H546.517V458.139H177.067V827.589Z" fill="#43525B"/>
<path d="M403.71 656.77L424.625 674.74L479.98 626.171C490.625 616.895 498.487 604.72 501.872 590.95C504.314 580.891 503.224 575.26 503.224 575.26C501.14 552.701 484.652 533.821 461.719 533.821C444.744 533.821 431.039 543.993 424.625 558.658C418.245 543.993 403.58 533.821 386.622 533.821C363.689 533.821 347.135 552.701 345.069 575.26C345.069 575.26 343.962 580.891 346.435 590.95" fill="#FFA8A6"/>
<path d="M424.625 691.407C420.76 691.407 416.887 690.071 413.762 687.386L392.847 669.416C385.863 663.411 385.067 652.896 391.072 645.915C397.078 638.931 407.585 638.135 414.575 644.125L424.512 652.67L468.987 613.64C477.45 606.266 483.203 597.053 485.685 586.978C487.11 581.12 486.76 577.848 486.76 577.815C485.417 563.72 476.473 550.488 461.718 550.488C452.115 550.488 443.962 556.038 439.892 565.331C437.24 571.403 431.25 575.325 424.625 575.325C424.617 575.325 424.617 575.325 424.617 575.325C417.985 575.325 411.987 571.386 409.342 565.315C405.428 556.298 396.508 550.488 386.622 550.488C371.818 550.488 362.867 563.72 361.662 576.773C361.613 577.326 361.54 577.881 361.433 578.418C361.458 578.32 361.035 580.501 362.622 586.963C364.82 595.915 359.35 604.931 350.415 607.128C341.495 609.44 332.455 603.89 330.248 594.938C327.53 583.886 328.067 576.335 328.523 573.16C331.73 541.195 356.608 517.155 386.622 517.155C400.797 517.155 414.135 522.281 424.463 531.12C434.587 522.216 447.615 517.155 461.718 517.155C491.862 517.155 516.837 541.471 519.817 573.73C520.003 574.251 521.127 582.275 518.067 594.89C513.932 611.718 504.548 626.871 490.933 638.736L435.62 687.271C432.47 690.023 428.548 691.407 424.625 691.407Z" fill="#43525B"/>
<path d="M309.7 623.633C302.456 607.193 286.1 595.638 266.991 595.638C241.325 595.638 222.801 616.927 220.376 642.22C220.376 642.22 219.205 648.503 221.955 659.83C225.715 675.26 234.585 688.932 246.498 699.382L309.698 753.808L371.808 699.382C383.755 688.932 392.56 675.26 396.336 659.83C399.103 648.503 397.898 642.22 397.898 642.22C395.555 616.927 377.016 595.638 351.3 595.638C332.193 595.638 316.895 607.193 309.7 623.633Z" fill="white"/>
<path d="M309.7 770.475C305.827 770.475 301.953 769.125 298.828 766.438L235.628 712.012C220.517 698.763 210.23 682.113 205.762 663.77C202.425 650.033 203.565 641.455 203.995 639.16C207.16 605.485 234.325 578.972 266.992 578.972C283 578.972 298.063 585.042 309.505 595.443C320.687 584.962 335.368 578.972 351.302 578.972C384.065 578.972 411.238 605.502 414.493 640.69C414.713 641.39 415.893 650 412.532 663.785C408.023 682.21 397.738 698.845 382.78 711.93L320.687 766.342C317.545 769.092 313.623 770.475 309.7 770.475ZM266.992 612.305C249.267 612.305 238.468 628.158 236.97 643.815C236.848 644.775 236.408 648.73 238.15 655.892C240.99 667.53 247.672 678.238 257.487 686.848L309.603 731.738L360.823 686.848C370.605 678.288 377.278 667.578 380.152 655.875C381.885 648.763 381.445 644.84 381.437 644.808C379.858 628.125 369.083 612.305 351.302 612.305C339.745 612.305 329.907 619.043 324.967 630.322C322.313 636.377 316.332 640.283 309.725 640.3C309.717 640.3 309.708 640.3 309.7 640.3C303.092 640.3 297.11 636.393 294.45 630.355C289.615 619.385 278.842 612.305 266.992 612.305Z" fill="#43525B"/>
</g>
<defs>
<clipPath id="clip0_3_516">
<rect width="723.6" height="1000" fill="white"/>
</clipPath>
</defs>
</svg>
