<svg width="1000" height="1000" viewBox="0 0 1000 1000" fill="none" xmlns="http://www.w3.org/2000/svg">
<path d="M500 1000C776.142 1000 1000 776.142 1000 500C1000 223.858 776.142 0 500 0C223.858 0 0 223.858 0 500C0 776.142 223.858 1000 500 1000Z" fill="#C0DFCF"/>
<path d="M500 199.236C490.479 199.236 482.759 191.524 482.759 181.995V129.31C482.759 119.781 490.479 112.069 500 112.069C509.521 112.069 517.241 119.781 517.241 129.31V181.995C517.241 191.524 509.521 199.236 500 199.236Z" fill="#43525B"/>
<path d="M500 887.931C490.479 887.931 482.759 880.219 482.759 870.689V817.989C482.759 808.46 490.479 800.748 500 800.748C509.521 800.748 517.241 808.46 517.241 817.989V870.689C517.241 880.219 509.521 887.931 500 887.931Z" fill="#43525B"/>
<path d="M870.69 517.209H818.022C808.502 517.209 800.781 509.497 800.781 499.965C800.781 490.436 808.502 482.724 818.022 482.724H870.69C880.21 482.724 887.931 490.436 887.931 499.965C887.931 509.497 880.21 517.209 870.69 517.209Z" fill="#43525B"/>
<path d="M181.986 517.209H129.31C119.79 517.209 112.069 509.497 112.069 499.965C112.069 490.436 119.79 482.724 129.31 482.724H181.986C191.507 482.724 199.227 490.436 199.227 499.965C199.227 509.497 191.507 517.209 181.986 517.209Z" fill="#43525B"/>
<path d="M724.862 292.346C720.45 292.346 716.031 290.662 712.672 287.294C705.936 280.56 705.936 269.648 712.672 262.913L749.933 225.67C756.667 218.934 767.595 218.934 774.314 225.67C781.048 232.405 781.048 243.315 774.314 250.05L737.052 287.294C733.684 290.662 729.274 292.346 724.862 292.346Z" fill="#43525B"/>
<path d="M237.877 779.364C233.467 779.364 229.055 777.679 225.688 774.312C218.953 767.577 218.953 756.667 225.688 749.931L262.948 712.67C269.683 705.936 280.593 705.936 287.329 712.67C294.064 719.405 294.064 730.315 287.329 737.052L250.069 774.312C246.7 777.681 242.288 779.364 237.877 779.364Z" fill="#43525B"/>
<path d="M762.122 779.331C757.712 779.331 753.3 777.646 749.941 774.279L712.679 737.052C705.936 730.334 705.936 719.407 712.664 712.67C719.398 705.936 730.326 705.936 737.043 712.67L774.305 749.898C781.048 756.615 781.048 767.543 774.321 774.279C770.953 777.646 766.534 779.331 762.122 779.331Z" fill="#43525B"/>
<path d="M275.138 292.346C270.726 292.346 266.315 290.662 262.948 287.294L225.688 250.05C218.953 243.315 218.953 232.405 225.688 225.67C232.407 218.934 243.333 218.934 250.069 225.67L287.329 262.913C294.064 269.648 294.064 280.56 287.329 287.294C283.969 290.662 279.55 292.346 275.138 292.346Z" fill="#43525B"/>
<path d="M500 443.764C500 376.819 554.25 322.519 621.312 322.519C688.309 322.519 742.626 376.819 742.626 443.764C742.626 478.936 727.438 510.236 703.647 532.462L703.95 532.529L500 736.514L295.941 532.531C296.017 532.464 296.102 532.464 296.186 532.379C272.395 510.188 257.359 478.938 257.359 443.766C257.359 376.821 311.626 322.521 378.688 322.521C445.641 322.519 500 376.819 500 443.764Z" fill="#FFA8A6"/>
<path d="M500 753.755C495.588 753.755 491.178 752.072 487.81 748.703L283.75 544.721C283.11 544.081 282.521 543.39 281.991 542.667C254.959 516.267 240.117 481.279 240.117 443.765C240.117 367.409 302.281 305.279 378.688 305.279C430.85 305.279 476.369 334.238 500 376.905C523.631 334.238 569.15 305.279 621.312 305.279C697.712 305.279 759.867 367.409 759.867 443.765C759.867 481.228 744.957 516.267 717.807 542.784C717.302 543.459 716.755 544.114 716.14 544.721L512.19 748.703C508.822 752.071 504.412 753.755 500 753.755ZM310.362 522.562L500 712.133L689.571 522.528C690.236 521.567 691.002 520.676 691.878 519.867C713.488 499.679 725.384 472.657 725.384 443.764C725.384 386.416 678.695 339.76 621.312 339.76C563.931 339.76 517.241 386.416 517.241 443.764C517.241 453.293 509.521 461.005 500 461.005C490.479 461.005 482.759 453.293 482.759 443.764C482.759 386.416 436.069 339.76 378.688 339.76C321.29 339.76 274.6 386.416 274.6 443.764C274.6 472.724 286.445 499.714 307.947 519.767C308.855 520.626 309.662 521.552 310.362 522.562Z" fill="#43525B"/>
<path d="M328.714 488.45C319.471 488.45 311.817 481.126 311.49 471.814C310.1 431.86 347 384.059 396.669 382.324C406.274 381.886 414.171 389.429 414.509 398.943C414.838 408.455 407.395 416.454 397.883 416.774C369.445 417.783 345.157 447.721 345.957 470.602C346.284 480.116 338.843 488.112 329.322 488.433C329.119 488.45 328.915 488.45 328.714 488.45Z" fill="white"/>
</svg>
