<svg width="1001" height="1000" viewBox="0 0 1001 1000" fill="none" xmlns="http://www.w3.org/2000/svg">
<g clip-path="url(#clip0_3_76)">
<path d="M573.666 404.356C504.462 343.388 411.273 330.588 345.257 330.588C298.482 330.588 247.117 337.044 200.655 348.747L187.329 318.443C245.429 280.175 313.116 259.95 383.115 259.95C471.667 259.95 556.684 292.925 622.603 352.763L635.648 364.595L585.465 414.78L573.666 404.356Z" fill="#C0DFCF"/>
<path d="M651.417 799.754C665.642 743.147 703.698 548.999 595.89 426.596L585.466 414.763L635.65 364.595L647.483 377.625C707.337 443.51 740.279 528.578 740.279 617.146C740.279 687.193 720.023 754.946 681.705 813.063L651.417 799.754Z" fill="#C0DFCF"/>
<path d="M690.062 323.114L685.309 318.869L677.344 313.969L677.245 304.725L677.18 175.25L677.344 174.037C676.722 156.239 683.179 139.653 695.503 127.296C706.878 115.889 723.038 109.365 739.853 109.365C756.669 109.365 772.827 115.921 784.268 127.328C808.72 151.813 808.754 191.623 784.3 216.059C795.675 204.685 811.867 198.147 828.649 198.13C845.466 198.13 861.626 204.669 872.999 216.059C884.864 227.926 891.388 243.692 891.388 260.425C891.388 277.159 884.864 292.925 872.999 304.792C861.134 316.706 845.269 323.016 827.142 323.016L825.897 323.181L690.062 323.114Z" fill="#FFA8A6"/>
<path d="M159.722 986.299C150.757 986.299 143.317 979.218 142.964 970.179L138.695 862.945L21.4701 867.303C11.7346 867.598 4.41734 860.412 4.0733 851.152C3.72926 841.893 10.9659 834.099 20.2249 833.755L154.175 828.772C163.713 828.544 171.203 835.631 171.564 844.883L176.496 968.851C176.865 978.112 169.662 985.913 160.395 986.282C160.173 986.29 159.943 986.299 159.722 986.299Z" fill="#43525B"/>
<path d="M239.047 906.94C230.081 906.94 222.642 899.862 222.289 890.822L218.037 783.546L100.828 787.881C91.348 788.472 83.7757 780.982 83.4316 771.73C83.096 762.462 90.3243 754.677 99.5832 754.333L233.517 749.384C242.94 748.949 250.544 756.258 250.905 765.493L255.823 889.495C256.192 898.756 248.98 906.564 239.72 906.925C239.496 906.934 239.268 906.94 239.047 906.94Z" fill="#43525B"/>
<path d="M106.466 910.579C102.171 910.579 97.8779 908.941 94.5986 905.664C88.0433 899.107 88.0433 888.487 94.5986 881.932L671.608 304.956C678.163 298.4 688.783 298.4 695.34 304.956C701.896 311.511 701.896 322.133 695.34 328.688L118.331 905.664C115.053 908.941 110.759 910.579 106.466 910.579Z" fill="#43525B"/>
<path d="M635.65 886.496C633.659 886.496 631.635 886.135 629.668 885.39L262.54 745.393C258.058 743.68 254.518 740.132 252.822 735.641L114.922 370.545C111.645 361.875 116.02 352.19 124.69 348.912C133.36 345.65 143.047 350.002 146.324 358.68L281.552 716.72L641.633 854.02C650.294 857.323 654.638 867.025 651.335 875.687C648.777 882.374 642.411 886.496 635.65 886.496Z" fill="#43525B"/>
<path d="M635.65 886.488C631.357 886.488 627.054 884.848 623.784 881.57C617.229 875.015 617.229 864.387 623.784 857.84C688.104 793.544 723.529 708.073 723.537 617.162C723.545 526.244 688.129 440.773 623.816 376.503C559.522 312.183 474.052 276.765 383.149 276.765C292.246 276.765 206.775 312.183 142.49 376.494C135.949 383.05 125.313 383.041 118.757 376.503C112.202 369.947 112.202 359.319 118.757 352.764C189.37 282.109 283.272 243.2 383.14 243.2H383.149C483.025 243.2 576.919 282.109 647.549 352.764C718.203 423.377 757.111 517.279 757.102 617.162C757.094 717.047 718.178 810.949 647.517 881.57C644.237 884.848 639.944 886.488 635.65 886.488Z" fill="#43525B"/>
<path d="M643.836 871.991L614.942 854.898C636.241 818.891 707.468 561.095 573.338 426.957C438.98 292.615 181.439 364.015 145.489 385.369L128.345 356.508C173.276 329.834 448.673 254.854 597.07 403.226C745.212 551.376 670.437 827.004 643.836 871.991Z" fill="#43525B"/>
<path d="M68.8523 423.745C30.8699 423.745 0 392.868 0 354.911C0 316.953 30.8783 286.075 68.8355 286.075C78.1029 286.075 85.6182 293.59 85.6182 302.858C85.6182 312.127 78.1029 319.64 68.8355 319.64C49.3895 319.64 33.5652 335.465 33.5652 354.911C33.5652 374.357 49.3811 390.179 68.8188 390.179C77.5625 390.164 85.7407 386.214 93.1166 378.437C93.3952 378.109 93.6889 377.797 93.9927 377.487L118.757 352.739C125.312 346.199 135.941 346.19 142.498 352.747C149.045 359.303 149.045 369.931 142.489 376.486L118.233 400.719C104.343 415.739 87.2645 423.704 68.8523 423.745Z" fill="#43525B"/>
<path d="M646.753 1000C646.696 999.984 646.631 999.992 646.599 1000C629.021 1000 612.377 993.068 599.765 980.472C586.695 967.419 579.5 949.931 579.5 931.23C579.46 912.989 586.384 895.903 599.06 882.883C599.438 882.391 599.839 881.923 600.282 881.473L624.308 856.757C630.749 850.095 641.386 849.964 648.04 856.43C654.686 862.886 654.834 873.515 648.368 880.161L625.899 903.279C625.357 904.007 624.751 904.689 624.08 905.335C616.957 912.154 613.042 921.332 613.065 931.198C613.065 940.957 616.769 950.013 623.489 956.725C629.757 962.985 637.977 966.435 646.639 966.435C646.664 966.435 646.688 966.435 646.713 966.435C655.457 966.435 663.709 962.985 669.985 956.716C676.697 950.013 680.392 940.957 680.392 931.23C680.392 921.963 687.907 914.448 697.175 914.448C706.444 914.448 713.957 921.963 713.957 931.23C713.957 949.931 706.763 967.419 693.709 980.464C681.089 993.059 664.422 1000 646.753 1000Z" fill="#43525B"/>
<path d="M826.487 339.947C826.487 339.947 826.487 339.947 826.478 339.947L677.237 339.897C667.978 339.897 660.463 332.383 660.463 323.122L660.397 173.915C660.397 173.227 660.439 172.547 660.522 171.874C660.471 150.463 668.609 130.517 683.613 115.454C698.65 100.409 718.621 92.1416 739.853 92.1416C761.11 92.1416 781.096 100.425 796.133 115.463C814.129 133.482 821.685 158.033 818.8 181.519C842.811 178.577 867.508 186.837 884.873 204.211C899.91 219.248 908.188 239.243 908.171 260.5C908.154 281.716 899.879 301.661 884.85 316.641C870.017 331.572 850.038 339.824 828.641 339.824L828.559 339.816C827.879 339.905 827.183 339.947 826.487 339.947ZM694.02 306.34L824.085 306.382C825.028 306.242 825.978 306.185 826.995 306.226C827.035 306.226 827.077 306.226 827.118 306.226C841.097 306.226 852.578 301.498 861.092 292.925C869.819 284.232 874.597 272.717 874.606 260.475C874.614 248.191 869.828 236.636 861.134 227.943C843.778 210.587 813.507 210.595 796.167 227.935C789.61 234.473 778.982 234.482 772.426 227.926C769.157 224.649 767.517 220.346 767.517 216.053C767.517 211.758 769.157 207.463 772.435 204.186C790.34 186.297 790.323 157.141 772.394 139.187C755.021 121.83 724.742 121.79 707.37 139.161C698.371 148.192 693.661 160.378 694.119 173.448C694.152 174.44 694.102 175.415 693.963 176.374L694.02 306.34Z" fill="#43525B"/>
<path d="M983.496 249.888H952.75C943.481 249.888 935.968 242.373 935.968 233.106C935.968 223.837 943.481 216.323 952.75 216.323H983.496C992.763 216.323 1000.28 223.837 1000.28 233.106C1000.28 242.373 992.763 249.888 983.496 249.888Z" fill="#43525B"/>
<path d="M767.223 64.3126C757.963 64.3126 750.449 56.8142 750.441 47.5451L750.407 16.7994C750.399 7.53036 757.906 0.0083913 767.173 0C767.181 0 767.181 0 767.181 0C776.45 0 783.964 7.49847 783.972 16.7658L784.006 47.5132C784.014 56.7806 776.508 64.3042 767.238 64.3126C767.238 64.3126 767.232 64.3126 767.223 64.3126Z" fill="#43525B"/>
<path d="M898.435 118.658C894.151 118.658 889.856 117.028 886.578 113.757C880.023 107.211 880.006 96.5821 886.553 90.0185L908.253 68.2699C914.783 61.7146 925.412 61.6894 931.992 68.2447C938.549 74.7933 938.564 85.4217 932.017 91.9854L910.317 113.734C907.04 117.012 902.738 118.658 898.435 118.658Z" fill="#43525B"/>
<path d="M636.01 118.674C631.709 118.674 627.414 117.036 624.137 113.75L602.405 91.9851C595.856 85.4298 595.865 74.8014 602.42 68.2528C608.977 61.7143 619.597 61.6975 626.152 68.2696L647.884 90.0349C654.433 96.5902 654.424 107.219 647.867 113.766C644.59 117.036 640.305 118.674 636.01 118.674Z" fill="#43525B"/>
<path d="M920.135 402.816C915.832 402.816 911.539 401.177 908.261 397.891L886.561 376.159C880.014 369.604 880.023 358.975 886.578 352.427C893.133 345.888 903.753 345.871 910.309 352.443L932.008 374.175C938.555 380.732 938.549 391.361 931.992 397.907C928.714 401.177 924.429 402.816 920.135 402.816Z" fill="#43525B"/>
</g>
<defs>
<clipPath id="clip0_3_76">
<rect width="1000.28" height="1000" fill="white"/>
</clipPath>
</defs>
</svg>
