<svg width="876" height="1000" viewBox="0 0 876 1000" fill="none" xmlns="http://www.w3.org/2000/svg">
<path d="M438.449 858.674C635.294 858.674 794.869 699.099 794.869 502.254C794.869 305.409 635.294 145.835 438.449 145.835C241.604 145.835 82.0298 305.409 82.0298 502.254C82.0298 699.099 241.604 858.674 438.449 858.674Z" fill="#C0DFCF"/>
<path d="M775.199 147.843C768.266 132.102 752.592 121.073 734.266 121.073C709.702 121.073 691.939 141.457 689.684 165.689C689.684 165.689 688.49 171.692 691.111 182.572C694.759 197.332 703.284 210.369 714.645 220.454L775.199 272.564L834.707 220.454C846.101 210.369 854.576 197.332 858.224 182.572C860.812 171.692 859.668 165.689 859.668 165.689C857.429 141.457 839.683 121.073 815.02 121.073C796.759 121.073 782.098 132.102 775.199 147.843Z" fill="#FFA8A6"/>
<path d="M775.199 287.856C771.649 287.856 768.091 286.612 765.231 284.157L704.677 232.046C690.299 219.275 680.537 203.502 676.275 186.237C673.091 173.019 674.259 164.892 674.691 162.703C677.568 130.925 703.276 105.781 734.265 105.781C749.657 105.781 764.127 111.702 775.024 121.803C785.664 111.62 799.737 105.781 815.02 105.781C846.067 105.781 871.809 130.942 874.885 164.279C875.092 164.991 876.196 173.053 873.093 186.104C868.781 203.553 859.021 219.341 844.841 231.897L785.265 284.058C782.388 286.578 778.789 287.856 775.199 287.856ZM734.265 136.365C716.868 136.365 706.328 151.823 704.901 167.098C704.76 168.209 704.296 172.04 705.971 178.99C708.724 190.135 715.242 200.551 724.795 209.025L775.107 252.33L824.639 208.959C834.092 200.583 840.602 190.169 843.389 178.907C845.031 171.991 844.575 168.109 844.575 168.076C843.032 151.823 832.476 136.365 815.02 136.365C803.683 136.365 794.032 142.949 789.197 153.979C786.766 159.536 781.277 163.117 775.216 163.134C775.207 163.134 775.207 163.134 775.207 163.134C769.136 163.134 763.655 159.551 761.208 153.996C756.49 143.281 745.909 136.365 734.265 136.365Z" fill="#43525B"/>
<path d="M469.546 372.79C480.178 372.79 491.737 370.186 503.928 365.044L510.944 362.092L513.282 354.86C516.219 351.578 541.842 322.769 497.493 266.594L496.598 265.449L495.502 264.486C484.292 254.519 385.84 163.914 378.376 56.8385L374.429 0L347.279 50.0876C346.4 51.7129 258.597 214.416 274.568 253.656L278.498 263.326L291.766 264.189C294.17 264.271 342.848 266.727 430.85 358.378C433.307 360.881 446.145 372.79 469.546 372.79Z" fill="#CCCCCC"/>
<path d="M196.269 982.252C205.822 979.467 216.006 968.188 220.516 961.952C303.228 860.002 341.656 776.958 345.769 767.821C365.986 715.66 395.127 711.015 400.767 710.601L402.492 710.385C602.212 674.445 627.937 499.22 628.932 491.774C641.753 410.422 691.642 378.678 731.23 366.438L760.355 357.415L736.952 337.877C718.974 322.835 690.978 303.496 672.303 295.651C668.207 293.926 663.28 293.065 657.641 293.065C610.14 293.065 523.532 354.463 519.867 357.084C502.768 367.267 485.468 372.79 469.546 372.79C444.353 372.773 431.599 359.207 431.086 358.609C354.908 279.298 307.657 266.56 294.985 264.537L291.303 263.957L287.737 265.001C286.692 264.903 285.648 264.503 284.619 264.106L282.413 263.277L280.091 263.077C201.476 256.443 146.297 227.884 120.408 211.464L66.4716 177.265L96.9552 233.373C134.354 302.27 255.412 464.888 352.038 586.858C320.709 600.59 300.276 660.878 299.413 663.432L299.016 664.643L298.8 665.87C292.863 700.434 191.393 749.063 46.3038 786.928L44.7447 787.342L43.3181 788.038C33.5 792.748 26.3347 797.557 22.0226 802.335L11.6729 813.778L22.3537 824.925C28.5578 831.36 40.8147 837.363 49.5884 840.216C43.4845 846.882 39.0722 852.92 36.5519 858.112L28.2096 875.444L46.5687 881.148C51.9932 882.84 59.274 883.737 67.5993 883.737C74.5319 883.737 79.9055 883.105 80.3046 883.073C77.6841 889.89 76.2575 895.279 75.4949 899.392L56.1881 910.703L83.8864 924.303C87.1031 925.862 91.1842 926.676 96.0109 926.676C106.575 926.676 117.488 922.778 117.953 922.595C116.196 943.708 120.474 951.023 123.825 954.688L128.767 960.094L136.364 960.26H143.86L145.054 958.934C156.132 955.882 166.548 948.386 167.08 947.988C170.098 962.151 174.311 972.202 179.717 977.808L186.667 985.039L196.269 982.252Z" fill="white"/>
<path d="M512.727 372.059C508.032 372.059 503.355 370.12 500.006 366.338C493.787 359.305 494.441 348.575 501.456 342.355C501.871 341.907 520.007 322.536 484.174 277.142C471.065 265.449 370.175 172.023 361.559 59.4079C314.331 146.747 282.007 234.086 291.684 249.211C300.93 250.77 306.636 259.113 305.068 268.369C303.501 277.606 294.197 283.328 284.967 281.852C274.245 280.028 265.737 273.625 261.01 263.824C238.869 217.882 313.229 76.5578 336.541 34.3488C341.88 24.546 354.536 1.50966 374.172 4.8435C387.151 7.14816 393.494 19.5868 395.111 30.4664C395.286 31.6451 395.335 32.856 395.261 34.0499C387.988 147.245 506.473 251.533 507.667 252.579C508.438 253.242 509.143 253.989 509.782 254.785C567.989 327.395 525.804 366.171 523.98 367.797C520.746 370.65 516.723 372.059 512.727 372.059Z" fill="#43525B"/>
<path d="M191.094 1000C180.106 1000 166.365 994.759 156.986 972.799C150.718 975.287 143.602 977.194 136.487 977.194C126.479 977.194 117.853 973.544 111.527 966.629C106.236 960.841 102.894 953.161 101.468 943.426C99.6758 943.576 97.8433 943.659 96.0023 943.659C77.8826 943.659 68.5451 935.598 63.9002 928.831C58.7015 921.251 56.8028 911.832 58.2039 900.354C37.8374 898.761 24.7924 891.679 19.3781 879.29C14.4104 867.913 17.909 856.32 23.2673 846.899C12.0718 840.165 0.991817 829.883 0.0628228 815.354C-1.54551 790.244 27.936 776.46 37.6217 771.932C38.5592 771.503 39.5374 771.153 40.5411 770.888C154.689 741.233 278.98 690.815 282.064 663.001C282.197 661.873 282.429 660.761 282.778 659.667C284.734 653.614 300.092 607.937 327.451 583.141C49.6375 231.217 64.8292 199.754 69.863 189.338C73.5128 181.792 80.9176 177.281 89.6827 177.281C95.4469 177.281 101.807 179.188 109.701 183.285C110.82 183.866 111.865 184.562 112.828 185.374C113.466 185.905 181.144 241.401 293.036 247.238C298.458 247.404 351.931 251.667 442.903 346.419C443.458 346.998 452.223 355.806 469.538 355.806C482.35 355.806 496.713 351.097 512.246 341.791C520.571 335.754 605.307 276.081 657.65 276.081C665.552 276.081 672.692 277.39 678.887 279.994C704.179 290.625 762.76 330.53 773.663 353.568C776.102 358.708 775.795 364.729 772.86 369.588C769.924 374.464 764.749 377.55 759.061 377.798C755.221 377.997 663.081 384.167 645.658 494.792C645.476 496.268 618.16 689.488 404.423 727.285C403.445 727.468 402.458 727.551 401.463 727.551C401.04 727.601 378.766 729.674 361.99 773.028C360.158 777.274 322.252 863.5 233.164 973.38C230.567 977.094 213.212 1000 191.094 1000ZM167.161 930.953C169.218 930.953 171.283 931.319 173.248 932.081C178.654 934.155 182.626 938.849 183.796 944.505C186.848 959.348 190.43 964.407 191.758 965.849C195.192 964.689 202.14 958.468 206.113 952.864C292.971 845.688 330.204 760.97 330.569 760.124C353.458 700.964 389.936 694.364 399.515 693.666C588.033 659.733 611.816 491.673 612.039 489.982C626.809 396.174 687.321 362.457 725.509 350.432C708.194 336.053 682.221 318.24 665.718 311.308C663.753 310.477 660.958 310.048 657.65 310.048C622.431 310.048 554.19 353.433 530.87 370.152C508.829 383.436 488.578 389.773 469.538 389.773C437.038 389.773 419.839 371.562 417.983 369.49C337.452 285.634 291.694 281.205 291.246 281.155C205.002 276.66 143.221 245.811 112.621 226.639C147.459 290.061 258.323 441.238 365.349 576.309C368.625 580.439 369.794 585.845 368.517 590.954C367.248 596.079 363.675 600.308 358.848 602.414C339.974 610.673 321.887 649.815 315.535 668.789C304.555 732.128 112.505 787.209 50.6429 803.362C40.9657 808.007 36.6944 811.557 34.9026 813.447C38.3452 816.796 47.2751 821.64 54.8225 824.044C60.354 825.819 64.5999 830.298 66.0842 835.902C67.5601 841.525 66.0588 847.512 62.1118 851.775C56.1574 858.21 53.3704 862.522 52.0695 865.059C54.9057 865.89 59.8802 866.736 67.6094 866.736C73.4635 866.736 77.9913 866.238 78.348 866.204C84.2361 865.458 90.1073 867.979 93.7401 872.673C97.3796 877.383 98.3086 883.636 96.1687 889.191C90.7951 903.107 91.7071 908.596 91.9738 909.626C92.0808 909.359 93.4989 909.692 95.9955 909.692C103.584 909.692 112.091 906.657 112.174 906.623C117.631 904.6 123.735 905.512 128.395 909.045C133.023 912.577 135.518 918.25 135.005 924.055C133.629 939.545 136.581 943.676 136.605 943.725C142.435 943.227 152.849 937.388 157.104 934.255C160.064 932.081 163.596 930.953 167.161 930.953Z" fill="#43525B"/>
<path d="M648.428 358.602C657.583 358.602 665.005 351.18 665.005 342.025C665.005 332.869 657.583 325.447 648.428 325.447C639.272 325.447 631.85 332.869 631.85 342.025C631.85 351.18 639.272 358.602 648.428 358.602Z" fill="#43525B"/>
</svg>
