<svg width="690" height="1000" viewBox="0 0 690 1000" fill="none" xmlns="http://www.w3.org/2000/svg">
<g clip-path="url(#clip0_3_890)">
<path d="M223.517 409.246C195.776 409.246 169.741 400.275 146.171 382.581C112.851 357.604 81.0221 313.063 51.5594 250.282C36.1831 217.443 25.639 188.312 20.7068 173.878L12.978 151.136L36.978 152.227C52.2712 152.939 83.2729 154.943 118.91 160.504C187.468 171.246 239.11 189.371 272.412 214.397C315.381 246.607 324.7 288.682 324.948 318.31C325.146 344.081 318.775 364.804 316.027 372.485L314.288 377.334L298.961 388.275L300.086 389.251L275.076 399.117C270.575 400.887 265.824 402.559 260.676 403.998C248.246 407.492 235.766 409.246 223.517 409.246ZM271.237 363.976L260.975 354.988L271.237 363.976ZM176.493 354.293L252.5 347.573L254.586 349.395L252.5 347.558L176.493 354.293ZM213.537 313.427L120.334 231.759L187.997 291.049L128.261 296.329L187.997 291.049L213.537 313.427Z" fill="#C0DFCF"/>
<path d="M313.676 402.161L299.656 390.212L313.146 377.681C314.222 376.605 314.603 376.042 315.298 374.42C316.788 370.631 325.18 347.739 324.947 318.31C324.7 288.698 315.381 246.607 272.412 214.397C239.11 189.371 187.468 171.246 118.91 160.52L97.1763 157.359L96.4153 141.949C96.3 139.88 96.2 137.844 96.1848 135.725C96.0678 101.38 107.141 72.0509 128.178 50.9136C149.68 29.3306 181.393 16.9492 215.192 16.9492C238.2 16.9492 260.561 22.5441 279.827 33.1204C308.049 48.6458 324.534 71.3052 333.405 87.5933C335.658 91.7967 339.91 94.3289 344.595 94.3289C349.246 94.3289 353.5 91.8136 355.685 87.7424C364.541 71.4051 381.025 48.7119 409.329 33.1374C428.612 22.5441 450.958 16.9492 473.947 16.9492C507.73 16.9492 539.444 29.3306 560.978 50.8967C582.015 72.017 593.088 101.331 592.99 135.676C592.973 137.695 592.873 139.632 592.758 141.568L592.029 157.392L570.264 160.52C501.739 171.246 450.097 189.354 416.778 214.38C373.793 246.607 364.458 288.698 364.208 318.326C363.993 344.446 370.714 365.598 373.097 372.253L374.124 374.951C374.388 375.663 374.77 376.341 375.117 376.803L387.861 389.136L375.447 401.864L344.644 428.778L313.676 402.161Z" fill="#FFA8A6"/>
<path d="M465.258 409.18C453.159 409.18 440.812 407.458 428.563 404.033C420.536 401.765 412.458 398.736 404.48 395.028L380.695 383.955L376.905 387.034L370.217 363C367.386 352.887 364.059 336.931 364.208 318.343C364.458 288.699 373.793 246.59 416.778 214.38C450.097 189.372 501.739 171.246 570.264 160.521C605.917 154.943 636.919 152.924 652.212 152.228L676.212 151.119L668.483 173.862C663.6 188.178 653.122 217.162 637.614 250.265C608.134 313.08 576.322 357.604 543.036 382.582C519.432 400.243 493.281 409.18 465.258 409.18ZM420.883 351.448L409.032 361.031L422.025 350.536L420.883 351.463L437.203 268.821L420.883 351.448ZM471.829 310.233L492.222 293.731L560.863 299.823L492.222 293.731L471.829 310.233Z" fill="#C0DFCF"/>
<path d="M609.161 152.858L575.395 149.844C575.817 145.127 576.007 140.41 576.041 135.627C576.124 105.898 566.771 80.7237 548.978 62.8814C530.597 44.4576 503.253 33.8983 473.948 33.8983C453.797 33.8983 434.281 38.7644 417.507 47.9847C392.778 61.5898 378.361 81.4678 370.622 95.7695C365.475 105.32 355.495 111.278 344.595 111.278C333.646 111.278 323.649 105.303 318.509 95.6864C310.78 81.4525 296.322 61.5407 271.676 47.9678C254.9 38.7644 235.361 33.8983 215.192 33.8983C185.871 33.8983 158.536 44.4576 140.18 62.8644C122.393 80.7559 113.034 105.932 113.134 135.676C113.149 140.493 113.381 145.21 113.746 149.812L79.9458 152.493C79.517 147.064 79.2509 141.486 79.2357 135.775C79.1018 96.8458 91.8729 63.361 116.163 38.9475C140.841 14.1847 176.932 0 215.192 0C241.037 0 266.214 6.30678 287.995 18.2559C316.2 33.7831 333.976 55.5475 344.578 73.0441C355.171 55.5644 372.915 33.8322 401.178 18.2729C422.951 6.32203 448.11 0 473.948 0C512.192 0 548.283 14.2017 572.978 38.9475C597.268 63.3119 610.054 96.7949 609.939 135.775C609.905 141.568 609.666 147.212 609.161 152.858Z" fill="#43525B"/>
<path d="M344.636 449.815L334.383 442.067C332.098 440.347 326.842 435.844 319.395 429.422C311.251 422.388 300.293 412.92 287.624 402.344L309.339 376.323C322.183 387.033 333.298 396.633 341.549 403.75C342.609 404.677 343.619 405.538 344.57 406.366C350.529 401.184 358.341 394.332 366.385 387.249L381.853 373.676L404.198 399.166L388.764 412.722C369.125 429.969 358.697 439.122 354.858 442.035L344.636 449.815Z" fill="#43525B"/>
<path d="M465.622 426.212C451.834 426.212 437.798 424.225 423.92 420.335C391.139 411.051 368.802 393.901 366.361 391.983C364.63 390.493 363.125 389.086 361.644 387.1C360.229 385.229 359.037 383.061 358.208 380.776C358.076 380.512 346.961 354.029 347.259 318.178C347.541 284.725 358.068 237.205 406.615 200.824C442.168 174.125 496.351 154.925 567.641 143.769C613.869 136.552 651.632 135.162 662.11 134.915C662.11 134.915 662.136 134.915 662.151 134.915C671.139 134.915 678.968 138.82 683.885 145.359C688.932 152.227 690.414 160.934 687.956 168.813C687.93 168.912 675.625 209.1 652.958 257.464C622.278 322.829 588.71 369.488 553.19 396.137C526.575 416.098 497.112 426.212 465.622 426.212ZM389.112 366.674C394.334 370.447 410.661 381.339 433.122 387.712C468.346 397.576 503.046 391.337 532.856 369.025C563.891 345.735 593.975 303.363 622.269 243.064C637.1 211.417 647.254 183.544 652.154 169.193C636.454 169.954 606.819 171.957 572.88 177.271C507.127 187.549 458.034 204.598 426.958 227.935C389.492 256.008 381.373 292.671 381.158 318.474C380.959 342.095 387.068 361.013 389.112 366.674Z" fill="#43525B"/>
<path d="M387.356 395.523C382.415 395.523 377.517 393.372 374.173 389.234C368.281 381.952 369.415 371.291 376.69 365.4L558.181 218.584C565.447 212.708 576.124 213.834 582.015 221.1C587.908 228.383 586.774 239.042 579.5 244.935L398.008 391.75C394.871 394.283 391.105 395.523 387.356 395.523Z" fill="#43525B"/>
<path d="M560.878 316.771C560.381 316.771 559.878 316.754 559.364 316.704L497.295 311.209C487.976 310.382 481.081 302.154 481.91 292.836C482.737 283.517 490.773 276.517 500.29 277.443L562.359 282.939C571.678 283.766 578.573 291.992 577.746 301.31C576.968 310.134 569.568 316.771 560.878 316.771Z" fill="#43525B"/>
<path d="M496.674 308.461C495.581 308.461 494.481 308.363 493.363 308.148C484.185 306.326 478.21 297.405 480.03 288.219L492.13 227.076C493.951 217.905 502.822 211.931 512.051 213.736C521.229 215.556 527.203 224.476 525.383 233.663L513.283 294.807C511.686 302.866 504.602 308.461 496.674 308.461Z" fill="#43525B"/>
<path d="M503.973 374.702C503.476 374.702 502.98 374.685 502.468 374.636L422.951 367.634C413.632 366.807 406.739 358.597 407.558 349.261C408.378 339.942 416.514 333.009 425.931 333.868L505.446 340.87C514.765 341.698 521.659 349.907 520.839 359.242C520.061 368.064 512.663 374.702 503.973 374.702Z" fill="#43525B"/>
<path d="M421.759 364.043C420.676 364.043 419.566 363.945 418.457 363.729C409.28 361.907 403.305 352.987 405.117 343.817L420.576 265.543C422.396 256.356 431.285 250.414 440.488 252.185C449.666 254.006 455.642 262.928 453.829 272.097L438.369 350.372C436.773 358.448 429.688 364.043 421.759 364.043Z" fill="#43525B"/>
<path d="M223.525 426.212H223.517C192.012 426.212 162.566 416.082 135.992 396.137C100.429 369.456 66.8627 322.795 36.2169 257.465C13.5491 209.1 1.24233 168.912 1.13385 168.532C-1.2814 160.968 0.199953 152.195 5.20673 145.443C10.2542 138.788 18.0915 134.898 26.2694 134.898C37.5237 135.163 75.2711 136.553 121.525 143.77C192.871 154.943 247.054 174.143 282.575 200.824C331.097 237.188 341.615 284.726 341.897 318.178C342.137 351 332.736 376.407 330.849 381.175C329.747 383.739 328.705 385.544 327.439 387.215C326.454 388.59 324.964 390.161 323.136 391.702C322.805 391.966 299.922 410.52 265.253 420.319C251.341 424.226 237.305 426.212 223.525 426.212ZM37.0186 169.193C41.9678 183.676 52.1067 211.5 66.9034 243.065C95.1661 303.331 125.258 345.704 156.342 369.026C176.924 384.468 199.517 392.314 223.517 392.314H223.525C234.21 392.314 245.159 390.758 256.068 387.695C278.776 381.273 295.22 370.183 300.112 366.626C302.147 360.931 308.173 342.046 307.998 318.442C307.783 292.654 299.664 256.009 262.232 227.936C231.181 204.615 182.08 187.566 116.286 177.271C82.2559 171.958 53.1576 169.939 37.0186 169.193Z" fill="#43525B"/>
<path d="M287.863 395.524C283.898 395.524 279.919 394.134 276.698 391.32L109.161 244.505C102.125 238.33 101.414 227.622 107.588 220.586C113.746 213.552 124.446 212.841 131.505 219.015L299.044 365.83C306.078 372.003 306.79 382.713 300.617 389.747C297.264 393.571 292.581 395.524 287.863 395.524Z" fill="#43525B"/>
<path d="M128.246 313.277C119.556 313.277 112.156 306.64 111.378 297.818C110.559 288.5 117.444 280.272 126.771 279.445L188.857 273.967C198.21 273.155 206.412 280.042 207.23 289.361C208.049 298.679 201.164 306.905 191.837 307.732L129.751 313.211C129.246 313.261 128.741 313.277 128.246 313.277Z" fill="#43525B"/>
<path d="M192.449 304.952C184.513 304.952 177.429 299.358 175.841 291.28L163.773 230.171C161.961 221.002 167.936 212.08 177.115 210.259C186.317 208.471 195.222 214.43 197.027 223.617L209.093 284.725C210.905 293.895 204.93 302.817 195.752 304.637C194.642 304.852 193.534 304.952 192.449 304.952Z" fill="#43525B"/>
<path d="M176.478 371.243C167.788 371.243 160.388 364.605 159.61 355.783C158.783 346.465 165.676 338.239 174.996 337.41L254.495 330.377C264.046 329.499 272.056 336.451 272.876 345.77C273.703 355.088 266.808 363.314 257.49 364.143L177.991 371.177C177.478 371.226 176.974 371.243 176.478 371.243Z" fill="#43525B"/>
<path d="M258.707 360.583C250.778 360.583 243.695 354.988 242.097 346.927L226.622 268.637C224.808 259.451 230.776 250.529 239.963 248.708C249.173 246.954 258.061 252.896 259.875 262.049L275.351 340.34C277.163 349.527 271.195 358.447 262.008 360.269C260.9 360.484 259.791 360.583 258.707 360.583Z" fill="#43525B"/>
<path d="M360.303 827.099H326.405V406.746H360.303V827.099Z" fill="#43525B"/>
<path d="M171.736 455.095C216.707 455.095 253.08 457.329 253.08 523.239V557.286C253.08 662.027 196.39 692.134 149.878 727.125C112.512 755.296 90.3577 794.856 90.3577 836.979C90.3577 917.688 168.5 983.051 264.798 983.051H375.1H424.392C520.741 983.051 598.832 917.688 598.832 836.979C598.832 794.856 576.67 755.296 539.312 727.125C492.817 692.134 436.11 662.027 436.11 557.286V523.239C436.11 457.329 472.525 455.095 517.446 455.095H171.736Z" fill="#ECE9E6"/>
<path d="M440.761 460.44H246.781V521.186H440.761V460.44Z" fill="#CCCCCC"/>
<path d="M424.392 1000H264.798C159.263 1000 73.4084 926.873 73.4084 836.979C73.4084 790.32 97.5576 745.349 139.675 713.586C144.217 710.176 148.844 706.8 153.512 703.423C196 672.52 236.13 643.356 236.13 557.286V523.239C236.13 474.013 217.542 472.044 171.736 472.044C162.375 472.044 154.786 464.462 154.786 455.095C154.786 445.727 162.375 438.146 171.736 438.146H517.446C526.807 438.146 534.395 445.727 534.395 455.095C534.395 464.462 526.807 472.044 517.446 472.044C471.647 472.044 453.059 474.013 453.059 523.239V557.286C453.059 643.339 493.181 672.52 535.661 703.407C540.329 706.8 544.964 710.159 549.507 713.586C591.632 745.349 615.781 790.32 615.781 836.979C615.781 926.873 529.927 1000 424.392 1000ZM259.105 472.044C265.898 484.21 270.029 500.761 270.029 523.239V557.286C270.029 660.62 216.475 699.549 173.441 730.832C168.929 734.11 164.453 737.371 160.066 740.664C126.541 765.939 107.307 801.046 107.307 836.979C107.307 908.169 177.959 966.101 264.798 966.101H424.392C511.231 966.101 581.883 908.169 581.883 836.979C581.883 801.062 562.649 765.956 529.107 740.664C524.729 737.371 520.244 734.11 515.725 730.817C472.707 699.534 419.161 660.603 419.161 557.286V523.239C419.161 500.761 423.292 484.21 430.085 472.044H259.105Z" fill="#43525B"/>
<path d="M305.366 932.519C236.122 932.519 175.683 888.291 166.603 828.074C165.205 818.807 171.578 810.183 180.839 808.776C190.034 807.551 198.724 813.757 200.122 823.01C207.28 870.515 260.693 904.198 319.03 897.908C328.374 896.849 336.683 903.651 337.676 912.969C338.661 922.273 331.917 930.63 322.605 931.607C316.82 932.22 311.061 932.519 305.366 932.519Z" fill="#43525B"/>
</g>
<defs>
<clipPath id="clip0_3_890">
<rect width="689.117" height="1000" fill="white"/>
</clipPath>
</defs>
</svg>
