<svg width="686" height="1000" viewBox="0 0 686 1000" fill="none" xmlns="http://www.w3.org/2000/svg">
<path d="M333.313 801.462C517.397 801.462 666.627 652.232 666.627 468.148C666.627 284.064 517.397 134.835 333.313 134.835C149.229 134.835 0 284.064 0 468.148C0 652.232 149.229 801.462 333.313 801.462Z" fill="#C0DFCF"/>
<path d="M282.365 1000C273.162 1000 265.698 992.537 265.698 983.334C265.698 954.435 289.095 940.382 306.185 930.11C323.088 919.964 330.493 914.559 330.493 905.485C330.493 896.427 323.088 891.04 306.202 880.892C289.103 870.63 265.698 856.575 265.698 827.67C265.698 798.78 289.103 784.734 306.193 774.479C323.088 764.34 330.493 758.952 330.493 749.902C330.493 740.837 323.08 735.45 306.17 725.31C289.088 715.064 265.698 701.042 265.698 672.2C265.698 643.31 289.112 629.272 306.21 619.019C323.097 608.895 330.493 603.515 330.493 594.499C330.493 585.295 337.957 577.832 347.16 577.832C356.365 577.832 363.827 585.295 363.827 594.499C363.827 623.34 340.438 637.362 323.357 647.607C306.447 657.747 299.032 663.135 299.032 672.2C299.032 681.217 306.43 686.597 323.317 696.72C340.413 706.975 363.827 721.012 363.827 749.902C363.827 778.769 340.43 792.807 323.348 803.06C306.438 813.209 299.032 818.595 299.032 827.67C299.032 836.76 306.447 842.164 323.357 852.32C340.438 862.574 363.827 876.62 363.827 905.485C363.827 934.375 340.43 948.43 323.348 958.684C306.447 968.849 299.032 974.244 299.032 983.334C299.032 992.537 291.57 1000 282.365 1000Z" fill="#43525B"/>
<path d="M593.97 276.635C623.463 249.162 642.245 210.352 642.245 166.83C642.245 83.887 574.96 16.667 492.017 16.667C408.977 16.667 341.757 83.887 341.757 166.83C341.757 83.887 274.488 16.667 191.562 16.667C108.522 16.667 41.3334 83.887 41.3334 166.83C41.3334 210.352 59.9217 249.057 89.38 276.497C89.3 276.635 89.2334 276.635 89.1034 276.702L330.202 517.66L305.315 533.155L293.157 577.312H390.39L378.248 533.155L353.345 517.66L594.362 276.702L593.97 276.635Z" fill="#FFA8A6"/>
<path d="M390.39 593.979H293.157C287.468 593.979 282.17 591.074 279.11 586.28C276.05 581.487 275.643 575.455 278.037 570.297L305.705 510.645C309.572 502.287 319.5 498.657 327.842 502.539C336.19 506.414 339.82 516.325 335.947 524.675L319.263 560.645H364.283L347.6 524.675C343.727 516.325 347.357 506.414 355.705 502.539C364.038 498.674 373.952 502.279 377.842 510.645L405.51 570.297C407.903 575.455 407.495 581.487 404.437 586.28C401.377 591.074 396.078 593.979 390.39 593.979Z" fill="#43525B"/>
<path d="M341.757 546.647C337.33 546.647 333.082 544.89 329.957 541.748L77.3033 288.468C76.6117 287.777 75.985 287.028 75.4317 286.23C42.6684 254.443 24.6667 212.183 24.6667 166.83C24.6667 74.8367 99.5367 0 191.562 0C257.545 0 314.698 38.4933 341.757 94.19C368.832 38.4933 426.01 0 492.017 0C584.042 0 658.912 74.8367 658.912 166.83C658.912 212.133 640.837 254.443 607.935 286.36C607.407 287.102 606.82 287.81 606.162 288.468L353.557 541.748C350.432 544.882 346.183 546.647 341.757 546.647ZM103.313 267.342L341.757 506.38L580.16 267.333C580.852 266.292 581.665 265.315 582.61 264.437C610.32 238.632 625.578 203.963 625.578 166.83C625.578 93.2217 565.667 33.3333 492.017 33.3333C418.352 33.3333 358.423 93.2217 358.423 166.83C358.423 176.033 350.962 183.497 341.757 183.497C332.553 183.497 325.09 176.033 325.09 166.83C325.09 93.2217 265.187 33.3333 191.562 33.3333C117.912 33.3333 58 93.2217 58 166.83C58 204.012 73.1783 238.632 100.742 264.298C101.733 265.227 102.588 266.252 103.313 267.342Z" fill="#43525B"/>
<path d="M106.732 192.683C97.5267 192.683 90.065 185.221 90.065 176.016C90.065 123.715 135.752 62.9229 194.653 62.9229C203.858 62.9229 211.32 70.3845 211.32 79.5895C211.32 88.7929 203.858 96.2562 194.653 96.2562C156.275 96.2562 123.398 140.111 123.398 176.016C123.398 185.221 115.935 192.683 106.732 192.683Z" fill="white"/>
<path d="M112.037 442.237L129.713 478.027L169.198 483.757L140.618 511.614L147.357 550.944L112.037 532.357L76.7333 550.944L83.4567 511.614L54.9083 483.757L94.3617 478.027L112.037 442.237Z" fill="white"/>
<path d="M76.7333 565.527C73.715 565.527 70.7116 564.592 68.1733 562.744C63.6733 559.489 61.4266 553.955 62.3616 548.487L67.79 516.707L44.7183 494.199C40.7483 490.315 39.3233 484.522 41.04 479.249C42.7583 473.967 47.3233 470.125 52.8083 469.329L84.6766 464.697L98.9583 435.784C103.875 425.822 120.2 425.83 125.115 435.775L139.397 464.697L171.29 469.329C176.783 470.125 181.348 473.967 183.065 479.249C184.783 484.53 183.35 490.324 179.378 494.199L156.283 516.707L161.728 548.479C162.663 553.955 160.417 559.48 155.925 562.744C151.425 566.015 145.477 566.424 140.56 563.852L112.037 548.837L83.53 563.852C81.3883 564.974 79.0616 565.527 76.7333 565.527ZM86.2316 493.945L93.645 501.172C97.0716 504.525 98.6416 509.342 97.8283 514.07L96.0866 524.275L105.242 519.45C109.49 517.22 114.568 517.22 118.832 519.45L127.987 524.275L126.245 514.079C125.432 509.342 127.003 504.517 130.437 501.172L137.85 493.945L127.622 492.457C122.868 491.772 118.758 488.785 116.635 484.489L112.037 475.172L107.438 484.48C105.315 488.785 101.205 491.772 96.46 492.457L86.2316 493.945Z" fill="#43525B"/>
<path d="M613.632 404.81L595.957 440.585L556.47 446.321L585.052 474.178L578.313 513.533L613.632 494.955L648.918 513.533L642.213 474.178L670.76 446.321L631.275 440.585L613.632 404.81Z" fill="white"/>
<path d="M578.313 528.117C575.293 528.117 572.283 527.182 569.743 525.333C565.252 522.07 563.005 516.545 563.942 511.077L569.385 479.272L546.29 456.763C542.318 452.888 540.887 447.095 542.603 441.813C544.312 436.54 548.878 432.69 554.37 431.893L586.28 427.255L600.553 398.348C603.012 393.375 608.082 390.227 613.632 390.227H613.64C619.19 390.227 624.26 393.383 626.71 398.357L640.96 427.255L672.86 431.893C678.353 432.69 682.912 436.532 684.628 441.813C686.345 447.087 684.922 452.882 680.95 456.763L657.87 479.272L663.298 511.083C664.227 516.553 661.972 522.078 657.48 525.342C652.995 528.588 647.038 529.011 642.123 526.44L613.632 511.433L585.1 526.44C582.968 527.563 580.64 528.117 578.313 528.117ZM587.81 456.502L595.232 463.737C598.667 467.082 600.237 471.908 599.423 476.635L597.673 486.873L606.845 482.048C611.093 479.818 616.178 479.818 620.427 482.048L629.582 486.873L627.833 476.628C627.035 471.908 628.598 467.09 632.023 463.737L639.438 456.51L629.175 455.013C624.423 454.33 620.322 451.343 618.197 447.038L613.623 437.752L609.033 447.047C606.902 451.343 602.8 454.33 598.055 455.013L587.81 456.502Z" fill="#43525B"/>
<path d="M478.443 622.981L496.118 658.756L535.605 664.47L507.023 692.35L513.762 731.705L478.443 713.101L443.123 731.705L449.895 692.35L421.315 664.47L460.8 658.756L478.443 622.981Z" fill="white"/>
<path d="M513.762 746.288C511.435 746.288 509.098 745.735 506.967 744.613L478.443 729.582L449.92 744.613C445.02 747.2 439.055 746.785 434.555 743.507C430.063 740.243 427.808 734.708 428.752 729.232L434.222 697.437L411.133 674.91C407.153 671.028 405.73 665.235 407.447 659.953C409.163 654.68 413.73 650.83 419.223 650.033L451.115 645.427L465.365 616.528C467.815 611.557 472.885 608.398 478.435 608.398H478.443C483.993 608.398 489.063 611.548 491.522 616.52L505.795 645.418L537.697 650.033C543.19 650.83 547.755 654.68 549.472 659.953C551.188 665.235 549.765 671.028 545.785 674.91L522.69 697.437L528.133 729.248C529.07 734.717 526.823 740.25 522.332 743.507C519.792 745.353 516.782 746.288 513.762 746.288ZM478.443 698.518C480.778 698.518 483.115 699.08 485.238 700.203L494.402 705.022L492.652 694.808C491.838 690.08 493.408 685.262 496.843 681.91L504.265 674.667L494.027 673.193C489.283 672.502 485.173 669.523 483.042 665.218L478.452 655.925L473.878 665.21C471.753 669.515 467.643 672.502 462.892 673.193L452.653 674.667L460.075 681.91C463.518 685.262 465.08 690.088 464.267 694.825L462.517 705.013L471.648 700.203C473.772 699.08 476.107 698.518 478.443 698.518Z" fill="#43525B"/>
</svg>
