<svg width="1166" height="1000" viewBox="0 0 1166 1000" fill="none" xmlns="http://www.w3.org/2000/svg">
<g clip-path="url(#clip0_3_834)">
<path d="M582.599 301.455C582.599 146.269 708.298 20.4697 863.665 20.4697C1018.83 20.4697 1144.73 146.269 1144.73 301.455C1144.73 382.896 1109.55 455.461 1054.37 506.875L1055.13 506.976L582.599 979.529L109.906 506.976C110.086 506.875 110.226 506.875 110.385 506.636C55.2919 455.301 20.4702 382.896 20.4702 301.455C20.4702 146.269 146.208 20.4697 301.595 20.4697C456.699 20.4697 582.599 146.269 582.599 301.455Z" fill="#FFA8A6"/>
<path d="M1086.56 131.697C1086.56 131.458 1086.72 131.238 1086.72 130.997C1091.39 137.134 1095.91 143.392 1100.07 149.889C1092.31 147.389 1086.56 140.333 1086.56 131.697ZM1105.95 267.392C1116.66 267.392 1125.34 258.716 1125.34 248.002C1125.34 237.286 1116.66 228.611 1105.95 228.611C1095.27 228.611 1086.56 237.286 1086.56 248.002C1086.56 258.716 1095.27 267.392 1105.95 267.392ZM1105.95 325.543C1095.27 325.543 1086.56 334.2 1086.56 344.914C1086.56 355.63 1095.27 364.326 1105.95 364.326C1116.66 364.326 1125.34 355.63 1125.34 344.914C1125.34 334.2 1116.66 325.543 1105.95 325.543ZM1086.56 461.219C1086.56 463.977 1087.2 466.615 1088.24 468.976C1094.75 460.298 1100.91 451.343 1106.43 441.949C1106.27 441.949 1106.11 441.869 1105.95 441.869C1095.27 441.869 1086.56 450.503 1086.56 461.219ZM718.255 92.9368C728.969 92.9368 737.644 84.2595 737.644 73.5454C737.644 65.8691 733.087 59.3514 726.611 56.2338C717.014 61.5908 707.858 67.6275 698.982 74.0449C699.263 84.499 707.739 92.9368 718.255 92.9368ZM786.781 31.3851C783.063 32.4249 779.424 33.4648 775.786 34.6644C775.987 34.6644 776.185 34.7831 776.427 34.7831C780.304 34.7831 783.702 33.3441 786.781 31.3851ZM892.73 34.7831C900.046 34.7831 906.242 30.5458 909.522 24.548C898.048 22.6689 886.372 21.4898 874.458 21.0312C876.937 28.9266 884.014 34.7831 892.73 34.7831ZM834.597 92.9368C845.272 92.9368 853.988 84.2595 853.988 73.5454C853.988 62.8313 845.272 54.1745 834.597 54.1745C823.883 54.1745 815.208 62.8313 815.208 73.5454C815.208 84.2595 823.883 92.9368 834.597 92.9368ZM950.861 92.9368C961.577 92.9368 970.253 84.2595 970.253 73.5454C970.253 62.8313 961.577 54.1745 950.861 54.1745C940.188 54.1745 931.511 62.8313 931.511 73.5454C931.511 84.2595 940.188 92.9368 950.861 92.9368ZM537.941 149.909C533.782 143.371 529.285 137.134 524.587 130.979C524.566 131.238 524.427 131.458 524.427 131.697C524.427 140.333 530.185 147.389 537.941 149.909ZM660.122 151.088C670.836 151.088 679.513 142.411 679.513 131.697C679.513 121.003 670.836 112.306 660.122 112.306C658.402 112.306 656.883 112.867 655.284 113.307C650.327 118.823 645.528 124.5 641.011 130.379C640.972 130.837 640.73 131.238 640.73 131.697C640.73 142.411 649.446 151.088 660.122 151.088ZM543.818 228.611C533.123 228.611 524.427 237.286 524.427 248.002C524.427 258.716 533.123 267.392 543.818 267.392C554.494 267.392 563.208 258.716 563.208 248.002C563.208 237.286 554.494 228.611 543.818 228.611ZM660.122 267.392C670.836 267.392 679.513 258.716 679.513 248.002C679.513 237.286 670.836 228.611 660.122 228.611C649.446 228.611 640.73 237.286 640.73 248.002C640.73 258.716 649.446 267.392 660.122 267.392ZM621.341 189.849C621.341 183.392 617.982 177.976 613.145 174.437C607.587 185.431 602.75 196.806 598.631 208.56C599.751 208.779 600.791 209.24 601.95 209.24C612.666 209.24 621.341 200.544 621.341 189.849ZM718.255 209.24C728.969 209.24 737.644 200.544 737.644 189.849C737.644 179.155 728.969 170.478 718.255 170.478C707.58 170.478 698.902 179.155 698.902 189.849C698.902 200.544 707.58 209.24 718.255 209.24ZM601.95 325.543C612.666 325.543 621.341 316.848 621.341 306.154C621.341 295.458 612.666 286.783 601.95 286.783C591.274 286.783 582.599 295.458 582.599 306.154C582.599 316.848 591.274 325.543 601.95 325.543ZM718.255 325.543C728.969 325.543 737.644 316.848 737.644 306.154C737.644 295.458 728.969 286.783 718.255 286.783C707.58 286.783 698.902 295.458 698.902 306.154C698.902 316.848 707.58 325.543 718.255 325.543ZM776.427 151.088C787.141 151.088 795.816 142.411 795.816 131.697C795.816 121.003 787.141 112.306 776.427 112.306C765.752 112.306 757.035 121.003 757.035 131.697C757.035 142.411 765.752 151.088 776.427 151.088ZM892.73 151.088C903.405 151.088 912.121 142.411 912.121 131.697C912.121 121.003 903.405 112.306 892.73 112.306C882.055 112.306 873.339 121.003 873.339 131.697C873.339 142.411 882.055 151.088 892.73 151.088ZM776.427 267.392C787.141 267.392 795.816 258.716 795.816 248.002C795.816 237.286 787.141 228.611 776.427 228.611C765.752 228.611 757.035 237.286 757.035 248.002C757.035 258.716 765.752 267.392 776.427 267.392ZM892.73 267.392C903.405 267.392 912.121 258.716 912.121 248.002C912.121 237.286 903.405 228.611 892.73 228.611C882.055 228.611 873.339 237.286 873.339 248.002C873.339 258.716 882.055 267.392 892.73 267.392ZM834.597 209.24C845.272 209.24 853.988 200.544 853.988 189.849C853.988 179.155 845.272 170.478 834.597 170.478C823.883 170.478 815.208 179.155 815.208 189.849C815.208 200.544 823.883 209.24 834.597 209.24ZM950.861 209.24C961.577 209.24 970.253 200.544 970.253 189.849C970.253 179.155 961.577 170.478 950.861 170.478C940.188 170.478 931.511 179.155 931.511 189.849C931.511 200.544 940.188 209.24 950.861 209.24ZM834.597 325.543C845.272 325.543 853.988 316.848 853.988 306.154C853.988 295.458 845.272 286.783 834.597 286.783C823.883 286.783 815.208 295.458 815.208 306.154C815.208 316.848 823.883 325.543 834.597 325.543ZM950.861 325.543C961.577 325.543 970.253 316.848 970.253 306.154C970.253 295.458 961.577 286.783 950.861 286.783C940.188 286.783 931.511 295.458 931.511 306.154C931.511 316.848 940.188 325.543 950.861 325.543ZM1009.03 151.088C1019.71 151.088 1028.42 142.411 1028.42 131.697C1028.42 121.003 1019.71 112.306 1009.03 112.306C998.319 112.306 989.644 121.003 989.644 131.697C989.644 142.411 998.319 151.088 1009.03 151.088ZM1009.03 267.392C1019.71 267.392 1028.42 258.716 1028.42 248.002C1028.42 237.286 1019.71 228.611 1009.03 228.611C998.319 228.611 989.644 237.286 989.644 248.002C989.644 258.716 998.319 267.392 1009.03 267.392ZM1067.17 209.24C1077.88 209.24 1086.56 200.544 1086.56 189.849C1086.56 179.155 1077.88 170.478 1067.17 170.478C1056.49 170.478 1047.78 179.155 1047.78 189.849C1047.78 200.544 1056.49 209.24 1067.17 209.24ZM1067.17 325.543C1077.88 325.543 1086.56 316.848 1086.56 306.154C1086.56 295.458 1077.88 286.783 1067.17 286.783C1056.49 286.783 1047.78 295.458 1047.78 306.154C1047.78 316.848 1056.49 325.543 1067.17 325.543ZM543.818 325.543C533.123 325.543 524.427 334.2 524.427 344.914C524.427 355.63 533.123 364.326 543.818 364.326C554.494 364.326 563.208 355.63 563.208 344.914C563.208 334.2 554.494 325.543 543.818 325.543ZM660.122 364.326C670.836 364.326 679.513 355.63 679.513 344.914C679.513 334.2 670.836 325.543 660.122 325.543C649.446 325.543 640.73 334.2 640.73 344.914C640.73 355.63 649.446 364.326 660.122 364.326ZM601.95 422.478C612.666 422.478 621.341 413.761 621.341 403.086C621.341 392.372 612.666 383.697 601.95 383.697C591.274 383.697 582.599 392.372 582.599 403.086C582.599 413.761 591.274 422.478 601.95 422.478ZM718.255 422.478C728.969 422.478 737.644 413.761 737.644 403.086C737.644 392.372 728.969 383.697 718.255 383.697C707.58 383.697 698.902 392.372 698.902 403.086C698.902 413.761 707.58 422.478 718.255 422.478ZM776.427 364.326C787.141 364.326 795.816 355.63 795.816 344.914C795.816 334.2 787.141 325.543 776.427 325.543C765.752 325.543 757.035 334.2 757.035 344.914C757.035 355.63 765.752 364.326 776.427 364.326ZM892.73 364.326C903.405 364.326 912.121 355.63 912.121 344.914C912.121 334.2 903.405 325.543 892.73 325.543C882.055 325.543 873.339 334.2 873.339 344.914C873.339 355.63 882.055 364.326 892.73 364.326ZM834.597 422.478C845.272 422.478 853.988 413.761 853.988 403.086C853.988 392.372 845.272 383.697 834.597 383.697C823.883 383.697 815.208 392.372 815.208 403.086C815.208 413.761 823.883 422.478 834.597 422.478ZM950.861 422.478C961.577 422.478 970.253 413.761 970.253 403.086C970.253 392.372 961.577 383.697 950.861 383.697C940.188 383.697 931.511 392.372 931.511 403.086C931.511 413.761 940.188 422.478 950.861 422.478ZM1009.03 364.326C1019.71 364.326 1028.42 355.63 1028.42 344.914C1028.42 334.2 1019.71 325.543 1009.03 325.543C998.319 325.543 989.644 334.2 989.644 344.914C989.644 355.63 998.319 364.326 1009.03 364.326ZM1067.17 422.478C1077.88 422.478 1086.56 413.761 1086.56 403.086C1086.56 392.372 1077.88 383.697 1067.17 383.697C1056.49 383.697 1047.78 392.372 1047.78 403.086C1047.78 413.761 1056.49 422.478 1067.17 422.478ZM543.818 441.869C533.123 441.869 524.427 450.503 524.427 461.219C524.427 471.934 533.123 480.609 543.818 480.609C554.494 480.609 563.208 471.934 563.208 461.219C563.208 450.503 554.494 441.869 543.818 441.869ZM660.122 480.609C670.836 480.609 679.513 471.934 679.513 461.219C679.513 450.503 670.836 441.869 660.122 441.869C649.446 441.869 640.73 450.503 640.73 461.219C640.73 471.934 649.446 480.609 660.122 480.609ZM543.818 558.131C533.123 558.131 524.427 566.827 524.427 577.523C524.427 588.237 533.123 596.914 543.818 596.914C554.494 596.914 563.208 588.239 563.208 577.523C563.208 566.829 554.494 558.131 543.818 558.131ZM660.122 596.914C670.836 596.914 679.513 588.239 679.513 577.523C679.513 566.827 670.836 558.131 660.122 558.131C649.446 558.131 640.73 566.827 640.73 577.523C640.73 588.237 649.446 596.914 660.122 596.914ZM601.95 538.76C612.666 538.76 621.341 530.065 621.341 519.39C621.341 508.675 612.666 499.998 601.95 499.998C591.274 499.998 582.599 508.673 582.599 519.39C582.599 530.067 591.274 538.76 601.95 538.76ZM718.255 538.76C728.969 538.76 737.644 530.065 737.644 519.39C737.644 508.675 728.969 499.998 718.255 499.998C707.58 499.998 698.902 508.673 698.902 519.39C698.902 530.067 707.58 538.76 718.255 538.76ZM601.95 655.066C612.666 655.066 621.341 646.39 621.341 635.674C621.341 624.979 612.666 616.303 601.95 616.303C591.274 616.303 582.599 624.979 582.599 635.674C582.599 646.39 591.274 655.066 601.95 655.066ZM718.255 655.066C728.969 655.066 737.644 646.39 737.644 635.674C737.644 624.979 728.969 616.303 718.255 616.303C707.58 616.303 698.902 624.979 698.902 635.674C698.902 646.39 707.58 655.066 718.255 655.066ZM776.427 480.609C787.141 480.609 795.816 471.934 795.816 461.219C795.816 450.503 787.141 441.869 776.427 441.869C765.752 441.869 757.035 450.503 757.035 461.219C757.035 471.934 765.752 480.609 776.427 480.609ZM892.73 480.609C903.405 480.609 912.121 471.934 912.121 461.219C912.121 450.503 903.405 441.869 892.73 441.869C882.055 441.869 873.339 450.503 873.339 461.219C873.339 471.934 882.055 480.609 892.73 480.609ZM776.427 596.914C787.141 596.914 795.816 588.239 795.816 577.523C795.816 566.827 787.141 558.131 776.427 558.131C765.752 558.131 757.035 566.827 757.035 577.523C757.035 588.237 765.752 596.914 776.427 596.914ZM892.73 596.914C903.405 596.914 912.121 588.239 912.121 577.523C912.121 566.827 903.405 558.131 892.73 558.131C882.055 558.131 873.339 566.827 873.339 577.523C873.339 588.237 882.055 596.914 892.73 596.914ZM834.597 538.76C845.272 538.76 853.988 530.065 853.988 519.39C853.988 508.675 845.272 499.998 834.597 499.998C823.883 499.998 815.208 508.673 815.208 519.39C815.208 530.067 823.883 538.76 834.597 538.76ZM950.861 538.76C961.577 538.76 970.253 530.065 970.253 519.39C970.253 508.675 961.577 499.998 950.861 499.998C940.188 499.998 931.511 508.673 931.511 519.39C931.511 530.067 940.188 538.76 950.861 538.76ZM834.597 655.066C845.272 655.066 853.988 646.39 853.988 635.674C853.988 624.979 845.272 616.303 834.597 616.303C823.883 616.303 815.208 624.979 815.208 635.674C815.208 646.39 823.883 655.066 834.597 655.066ZM932.79 629.339L944.505 617.585C938.989 619.542 934.749 623.8 932.79 629.339ZM1009.03 480.609C1019.71 480.609 1028.42 471.934 1028.42 461.219C1028.42 450.503 1019.71 441.869 1009.03 441.869C998.319 441.869 989.644 450.503 989.644 461.219C989.644 471.934 998.319 480.609 1009.03 480.609ZM990.923 571.167L1002.68 559.433C997.161 561.39 992.882 565.648 990.923 571.167ZM1049.1 513.013L1055.13 506.976L1054.37 506.876C1056.17 505.198 1057.77 503.318 1059.53 501.599C1054.57 503.738 1050.89 507.916 1049.1 513.013ZM543.818 655.066C533.123 655.066 524.427 663.723 524.427 674.437C524.427 685.151 533.123 693.828 543.818 693.828C554.494 693.828 563.208 685.153 563.208 674.437C563.208 663.723 554.494 655.066 543.818 655.066ZM660.122 693.828C670.836 693.828 679.513 685.153 679.513 674.437C679.513 663.723 670.836 655.066 660.122 655.066C649.446 655.066 640.73 663.723 640.73 674.437C640.73 685.151 649.446 693.828 660.122 693.828ZM601.95 751.98C612.666 751.98 621.341 743.304 621.341 732.609C621.341 721.895 612.666 713.217 601.95 713.217C591.274 713.217 582.599 721.893 582.599 732.609C582.599 743.302 591.274 751.98 601.95 751.98ZM718.255 751.98C728.969 751.98 737.644 743.304 737.644 732.609C737.644 721.895 728.969 713.217 718.255 713.217C707.58 713.217 698.902 721.893 698.902 732.609C698.902 743.302 707.58 751.98 718.255 751.98ZM776.427 693.828C787.141 693.828 795.816 685.153 795.816 674.437C795.816 663.723 787.141 655.066 776.427 655.066C765.752 655.066 757.035 663.723 757.035 674.437C757.035 685.151 765.752 693.828 776.427 693.828ZM873.339 674.437C873.339 678.475 874.899 682.033 876.978 685.132L903.405 658.705C900.286 656.566 896.769 655.068 892.73 655.068C882.055 655.066 873.339 663.723 873.339 674.437ZM815.208 732.609C815.208 736.627 816.685 740.164 818.845 743.284L845.233 716.857C842.154 714.738 838.636 713.219 834.597 713.219C823.883 713.217 815.208 721.893 815.208 732.609ZM543.818 771.369C533.123 771.369 524.427 780.026 524.427 790.74C524.427 801.454 533.123 810.131 543.818 810.131C554.494 810.131 563.208 801.456 563.208 790.74C563.208 780.026 554.494 771.369 543.818 771.369ZM660.122 810.131C670.836 810.131 679.513 801.456 679.513 790.74C679.513 780.026 670.836 771.369 660.122 771.369C649.446 771.369 640.73 780.026 640.73 790.74C640.73 801.456 649.446 810.131 660.122 810.131ZM543.818 887.674C533.123 887.674 524.427 896.329 524.427 907.045C524.427 917.739 533.123 926.435 543.818 926.435C554.494 926.435 563.208 917.739 563.208 907.045C563.208 896.329 554.494 887.674 543.818 887.674ZM640.73 907.045C640.73 911.082 642.29 914.621 644.37 917.72L670.797 891.291C667.679 889.173 664.16 887.672 660.122 887.672C649.446 887.674 640.73 896.329 640.73 907.045ZM601.95 868.303C612.666 868.303 621.341 859.587 621.341 848.912C621.341 838.198 612.666 829.521 601.95 829.521C591.274 829.521 582.599 838.196 582.599 848.912C582.599 859.587 591.274 868.303 601.95 868.303ZM698.902 848.912C698.902 852.951 700.423 856.467 702.542 859.587L728.928 833.16C725.849 831.042 722.291 829.523 718.255 829.523C707.58 829.523 698.902 838.198 698.902 848.912ZM582.599 965.217C582.599 969.254 584.118 972.773 586.218 975.89L612.666 949.463C609.546 947.345 605.988 945.826 601.95 945.826C591.274 945.826 582.599 954.501 582.599 965.217ZM757.035 790.74C757.035 794.779 758.554 798.336 760.673 801.415L787.1 775.009C783.982 772.869 780.464 771.371 776.427 771.371C765.752 771.369 757.035 780.026 757.035 790.74ZM156.124 92.9368C166.84 92.9368 175.515 84.2595 175.515 73.5454C175.515 65.8691 170.956 59.3719 164.48 56.2338C154.885 61.6318 145.729 67.6479 136.853 74.0653C137.154 84.5399 145.649 92.9368 156.124 92.9368ZM224.59 31.4055C220.932 32.4249 217.295 33.4648 213.696 34.6644C213.897 34.6848 214.095 34.7831 214.296 34.7831C218.155 34.7831 221.553 33.344 224.59 31.4055ZM330.601 34.7831C337.917 34.7831 344.093 30.5458 347.393 24.548C335.917 22.6689 324.243 21.4693 312.35 21.0312C314.788 28.9266 321.885 34.7831 330.601 34.7831ZM272.429 54.1745C261.754 54.1745 253.058 62.8313 253.058 73.5454C253.058 84.2595 261.754 92.9368 272.429 92.9368C283.143 92.9368 291.818 84.2595 291.818 73.5454C291.818 62.8313 283.143 54.1745 272.429 54.1745ZM388.753 54.1745C378.057 54.1745 369.361 62.8313 369.361 73.5454C369.361 84.2595 378.057 92.9368 388.753 92.9368C399.446 92.9368 408.142 84.2595 408.142 73.5454C408.142 62.8313 399.446 54.1745 388.753 54.1745ZM97.9927 151.088C108.668 151.088 117.382 142.411 117.382 131.697C117.382 121.003 108.668 112.306 97.9927 112.306C96.2937 112.306 94.7932 112.867 93.1945 113.307C88.1977 118.823 83.42 124.5 78.8817 130.418C78.8408 130.858 78.6013 131.257 78.6013 131.697C78.6013 142.411 87.297 151.088 97.9927 151.088ZM97.9927 228.611C87.297 228.611 78.6013 237.286 78.6013 248.002C78.6013 258.716 87.297 267.392 97.9927 267.392C108.668 267.392 117.382 258.716 117.382 248.002C117.382 237.286 108.668 228.611 97.9927 228.611ZM59.2304 189.849C59.2304 183.392 55.8733 177.994 51.0341 174.437C45.4376 185.431 40.6189 196.827 36.5208 208.56C37.6221 208.779 38.6599 209.24 39.8411 209.24C50.5347 209.24 59.2304 200.544 59.2304 189.849ZM156.124 170.478C145.449 170.478 136.773 179.155 136.773 189.849C136.773 200.544 145.449 209.24 156.124 209.24C166.84 209.24 175.515 200.544 175.515 189.849C175.515 179.155 166.84 170.478 156.124 170.478ZM39.8411 325.543C50.5347 325.543 59.2304 316.848 59.2304 306.154C59.2304 295.458 50.5347 286.783 39.8411 286.783C29.4852 286.783 21.1887 294.959 20.6298 305.173C20.6687 306.093 20.7895 306.934 20.7895 307.853C21.6881 317.707 29.7452 325.543 39.8411 325.543ZM156.124 286.783C145.449 286.783 136.773 295.458 136.773 306.154C136.773 316.848 145.449 325.543 156.124 325.543C166.84 325.543 175.515 316.848 175.515 306.154C175.515 295.458 166.84 286.783 156.124 286.783ZM214.296 112.306C203.602 112.306 194.905 121.003 194.905 131.697C194.905 142.411 203.602 151.088 214.296 151.088C224.992 151.088 233.687 142.411 233.687 131.697C233.687 121.003 224.992 112.306 214.296 112.306ZM330.601 112.306C319.906 112.306 311.21 121.003 311.21 131.697C311.21 142.411 319.906 151.088 330.601 151.088C341.295 151.088 349.97 142.411 349.97 131.697C349.97 121.003 341.295 112.306 330.601 112.306ZM214.296 228.611C203.602 228.611 194.905 237.286 194.905 248.002C194.905 258.716 203.602 267.392 214.296 267.392C224.992 267.392 233.687 258.716 233.687 248.002C233.687 237.286 224.992 228.611 214.296 228.611ZM330.601 228.611C319.906 228.611 311.21 237.286 311.21 248.002C311.21 258.716 319.906 267.392 330.601 267.392C341.295 267.392 349.97 258.716 349.97 248.002C349.97 237.286 341.295 228.611 330.601 228.611ZM272.429 170.478C261.754 170.478 253.058 179.155 253.058 189.849C253.058 200.544 261.754 209.24 272.429 209.24C283.143 209.24 291.818 200.544 291.818 189.849C291.818 179.155 283.143 170.478 272.429 170.478ZM388.753 170.478C378.057 170.478 369.361 179.155 369.361 189.849C369.361 200.544 378.057 209.24 388.753 209.24C399.446 209.24 408.142 200.544 408.142 189.849C408.142 179.155 399.446 170.478 388.753 170.478ZM272.429 286.783C261.754 286.783 253.058 295.458 253.058 306.154C253.058 316.848 261.754 325.543 272.429 325.543C283.143 325.543 291.818 316.848 291.818 306.154C291.818 295.458 283.143 286.783 272.429 286.783ZM388.753 286.783C378.057 286.783 369.361 295.458 369.361 306.154C369.361 316.848 378.057 325.543 388.753 325.543C399.446 325.543 408.142 316.848 408.142 306.154C408.142 295.458 399.446 286.783 388.753 286.783ZM446.904 112.306C436.19 112.306 427.513 121.003 427.513 131.697C427.513 142.411 436.19 151.088 446.904 151.088C457.6 151.088 466.296 142.411 466.296 131.697C466.296 121.003 457.6 112.306 446.904 112.306ZM446.904 228.611C436.19 228.611 427.513 237.286 427.513 248.002C427.513 258.716 436.19 267.392 446.904 267.392C457.6 267.392 466.296 258.716 466.296 248.002C466.296 237.286 457.6 228.611 446.904 228.611ZM505.056 209.24C515.752 209.24 524.427 200.544 524.427 189.849C524.427 179.155 515.752 170.478 505.056 170.478C494.362 170.478 485.685 179.155 485.685 189.849C485.685 200.544 494.362 209.24 505.056 209.24ZM505.056 325.543C515.752 325.543 524.427 316.848 524.427 306.154C524.427 295.458 515.752 286.783 505.056 286.783C494.362 286.783 485.685 295.458 485.685 306.154C485.685 316.848 494.362 325.543 505.056 325.543ZM97.9927 325.543C87.297 325.543 78.6013 334.2 78.6013 344.914C78.6013 355.63 87.297 364.326 97.9927 364.326C108.668 364.326 117.382 355.63 117.382 344.914C117.382 334.2 108.668 325.543 97.9927 325.543ZM59.2304 403.086C59.2304 392.372 50.5347 383.697 39.8411 383.697C37.5402 383.697 35.4216 384.256 33.3827 384.995C37.3007 397.351 42.06 409.285 47.5563 420.818C54.4138 417.821 59.2304 411.023 59.2304 403.086ZM156.124 383.697C145.449 383.697 136.773 392.372 136.773 403.086C136.773 413.761 145.449 422.478 156.124 422.478C166.84 422.478 175.515 413.761 175.515 403.086C175.515 392.372 166.84 383.697 156.124 383.697ZM214.296 325.543C203.602 325.543 194.905 334.2 194.905 344.914C194.905 355.63 203.602 364.326 214.296 364.326C224.992 364.326 233.687 355.63 233.687 344.914C233.687 334.2 224.992 325.543 214.296 325.543ZM330.601 325.543C319.906 325.543 311.21 334.2 311.21 344.914C311.21 355.63 319.906 364.326 330.601 364.326C341.295 364.326 349.97 355.63 349.97 344.914C349.97 334.2 341.295 325.543 330.601 325.543ZM272.429 383.697C261.754 383.697 253.058 392.372 253.058 403.086C253.058 413.761 261.754 422.478 272.429 422.478C283.143 422.478 291.818 413.761 291.818 403.086C291.818 392.372 283.143 383.697 272.429 383.697ZM388.753 383.697C378.057 383.697 369.361 392.372 369.361 403.086C369.361 413.761 378.057 422.478 388.753 422.478C399.446 422.478 408.142 413.761 408.142 403.086C408.142 392.372 399.446 383.697 388.753 383.697ZM446.904 325.543C436.19 325.543 427.513 334.2 427.513 344.914C427.513 355.63 436.19 364.326 446.904 364.326C457.6 364.326 466.296 355.63 466.296 344.914C466.296 334.2 457.6 325.543 446.904 325.543ZM505.056 422.478C515.752 422.478 524.427 413.761 524.427 403.086C524.427 392.372 515.752 383.697 505.056 383.697C494.362 383.697 485.685 392.372 485.685 403.086C485.685 413.761 494.362 422.478 505.056 422.478ZM97.9927 441.869C87.297 441.869 78.6013 450.503 78.6013 461.219C78.6013 471.934 87.297 480.609 97.9927 480.609C108.668 480.609 117.382 471.934 117.382 461.219C117.382 450.503 108.668 441.869 97.9927 441.869ZM156.124 500C145.449 500 136.773 508.675 136.773 519.392C136.773 530.067 145.449 538.762 156.124 538.762C166.84 538.762 175.515 530.067 175.515 519.392C175.515 508.675 166.84 500 156.124 500ZM214.296 441.869C203.602 441.869 194.905 450.503 194.905 461.219C194.905 471.934 203.602 480.609 214.296 480.609C224.992 480.609 233.687 471.934 233.687 461.219C233.687 450.503 224.992 441.869 214.296 441.869ZM330.601 441.869C319.906 441.869 311.21 450.503 311.21 461.219C311.21 471.934 319.906 480.609 330.601 480.609C341.295 480.609 349.97 471.934 349.97 461.219C349.97 450.503 341.295 441.869 330.601 441.869ZM214.296 558.131C203.602 558.131 194.905 566.827 194.905 577.523C194.905 588.237 203.602 596.914 214.296 596.914C224.992 596.914 233.687 588.239 233.687 577.523C233.687 566.829 224.992 558.131 214.296 558.131ZM330.601 558.131C319.906 558.131 311.21 566.827 311.21 577.523C311.21 588.237 319.906 596.914 330.601 596.914C341.295 596.914 349.97 588.239 349.97 577.523C349.97 566.829 341.295 558.131 330.601 558.131ZM272.429 500C261.754 500 253.058 508.675 253.058 519.392C253.058 530.067 261.754 538.762 272.429 538.762C283.143 538.762 291.818 530.067 291.818 519.392C291.818 508.675 283.143 500 272.429 500ZM388.753 500C378.057 500 369.361 508.675 369.361 519.392C369.361 530.067 378.057 538.762 388.753 538.762C399.446 538.762 408.142 530.067 408.142 519.392C408.142 508.675 399.446 500 388.753 500ZM272.429 616.303C261.754 616.303 253.058 624.979 253.058 635.674C253.058 646.388 261.754 655.066 272.429 655.066C283.143 655.066 291.818 646.39 291.818 635.674C291.818 624.981 283.143 616.303 272.429 616.303ZM388.753 616.303C378.057 616.303 369.361 624.979 369.361 635.674C369.361 646.388 378.057 655.066 388.753 655.066C399.446 655.066 408.142 646.39 408.142 635.674C408.142 624.981 399.446 616.303 388.753 616.303ZM446.904 441.869C436.19 441.869 427.513 450.503 427.513 461.219C427.513 471.934 436.19 480.609 446.904 480.609C457.6 480.609 466.296 471.934 466.296 461.219C466.296 450.503 457.6 441.869 446.904 441.869ZM446.904 558.131C436.19 558.131 427.513 566.827 427.513 577.523C427.513 588.237 436.19 596.914 446.904 596.914C457.6 596.914 466.296 588.239 466.296 577.523C466.296 566.829 457.6 558.131 446.904 558.131ZM505.056 538.76C515.752 538.76 524.427 530.065 524.427 519.39C524.427 508.675 515.752 499.998 505.056 499.998C494.362 499.998 485.685 508.673 485.685 519.39C485.685 530.067 494.362 538.76 505.056 538.76ZM505.056 655.066C515.752 655.066 524.427 646.39 524.427 635.674C524.427 624.979 515.752 616.303 505.056 616.303C494.362 616.303 485.685 624.979 485.685 635.674C485.685 646.39 494.362 655.066 505.056 655.066ZM330.601 655.066C319.906 655.066 311.21 663.723 311.21 674.437C311.21 685.151 319.906 693.828 330.601 693.828C341.295 693.828 349.97 685.153 349.97 674.437C349.97 663.723 341.295 655.066 330.601 655.066ZM388.753 713.217C378.057 713.217 369.361 721.893 369.361 732.609C369.361 743.304 378.057 751.98 388.753 751.98C399.446 751.98 408.142 743.304 408.142 732.609C408.142 721.893 399.446 713.217 388.753 713.217ZM446.904 655.066C436.19 655.066 427.513 663.723 427.513 674.437C427.513 685.151 436.19 693.828 446.904 693.828C457.6 693.828 466.296 685.153 466.296 674.437C466.296 663.723 457.6 655.066 446.904 655.066ZM505.056 751.98C515.752 751.98 524.427 743.304 524.427 732.609C524.427 721.895 515.752 713.217 505.056 713.217C494.362 713.217 485.685 721.893 485.685 732.609C485.685 743.302 494.362 751.98 505.056 751.98ZM446.904 771.369C436.19 771.369 427.513 780.026 427.513 790.74C427.513 801.454 436.19 810.131 446.904 810.131C457.6 810.131 466.296 801.456 466.296 790.74C466.296 780.026 457.6 771.369 446.904 771.369ZM505.056 829.523C494.362 829.523 485.685 838.198 485.685 848.914C485.685 859.589 494.362 868.305 505.056 868.305C515.752 868.305 524.427 859.589 524.427 848.914C524.427 838.198 515.752 829.523 505.056 829.523Z" fill="white"/>
<path d="M582.599 1000C577.361 1000 572.125 998 568.127 994.002L95.4339 521.449C94.4043 520.429 93.4933 519.289 92.7237 518.11C32.8935 460.54 0 383.795 0 301.456C0 135.236 135.293 0 301.595 0C429.323 0 538.76 79.8418 582.599 192.248C626.448 79.8418 735.906 0 863.665 0C1029.93 0 1165.2 135.236 1165.2 301.456C1165.2 383.576 1132.24 460.319 1072.26 518.112C1071.51 519.312 1070.63 520.431 1069.6 521.451L597.072 994.004C593.074 998 587.837 1000 582.599 1000ZM127.877 496.002L582.599 950.583L1036.97 496.182C1037.89 494.622 1039.04 493.183 1040.42 491.904C1094.48 441.509 1124.26 373.881 1124.26 301.456C1124.26 157.804 1007.35 40.9403 863.665 40.9403C719.972 40.9403 603.069 157.804 603.069 301.456C603.069 312.77 593.903 321.926 582.599 321.926C571.295 321.926 562.129 312.77 562.129 301.456C562.129 157.804 445.255 40.9403 301.595 40.9403C157.874 40.9403 40.9403 157.804 40.9403 301.456C40.9403 374 70.5545 441.547 124.34 491.665C125.738 492.962 126.919 494.422 127.877 496.002Z" fill="#43525B"/>
<path d="M546.256 477.332C522.069 477.332 502.358 457.641 502.358 433.393V360.748C502.358 336.558 522.069 316.868 546.256 316.868H618.901C643.17 316.868 662.84 336.558 662.84 360.748V433.393C662.84 457.641 643.17 477.332 618.901 477.332H546.256Z" fill="white"/>
<path d="M831.559 259.635C819.566 250.121 800.895 246.422 791.779 245.722L787.98 245.462L784.263 246.363C735.286 258.716 686.87 288.163 662.4 304.594L643.049 317.607L655.763 337.119C656.883 338.839 657.802 340.636 658.642 342.476L668.117 362.926L732.086 336.978L662.84 365.085V403.086L663.759 403.406L662.6 434.952C662.562 437.011 662.361 438.989 662.001 440.989L659.483 455.621L671.556 464.278C672.877 465.217 674.354 466.216 675.755 467.215C675.394 466.937 674.995 466.736 674.635 466.456L660.122 456.262L646.208 467.375C640.611 471.895 631.296 477.331 618.901 477.331H589.315H575.883H546.256C533.903 477.331 524.587 471.934 518.99 467.375L505.077 456.202L490.524 466.456C490.244 466.656 489.925 466.836 489.644 467.055C490.983 466.095 492.442 465.117 493.683 464.218L505.756 455.621L503.156 440.989C502.837 439.03 502.639 437.091 502.598 435.112L501.638 403.326L502.358 403.086V365.085L433.05 336.978L497.081 362.926L506.536 342.476C507.396 340.636 508.315 338.839 509.435 337.119L522.149 317.607L502.837 304.594C478.39 288.163 430.033 258.716 380.896 246.363L377.177 245.462L373.38 245.722C364.264 246.422 345.594 250.121 333.618 259.635C320.446 270.01 306.252 288.181 306.252 303.534V459.719C306.252 474.992 320.446 493.124 333.598 503.519C344.093 511.815 360.506 514.773 372.381 514.773C377.097 514.773 381.496 514.313 385.414 513.355C415.239 506.317 438.829 496.504 457.698 486.549C457.26 486.789 456.839 487.049 456.401 487.288L442.945 494.344L444.145 509.897C438.587 518.853 423.716 553.077 399.966 611.728L380.737 659.285L447.944 636.876C448.763 639.035 451.981 647.551 455.66 658.425L471.192 704.303L497.799 663.823C530.044 614.746 569.805 539.043 579.58 508.078L582.599 498.563L585.598 508.078C595.434 539.164 635.175 614.846 667.358 663.823L693.985 704.264L709.539 658.425C713.256 647.469 716.456 638.935 717.254 636.776L784.461 659.285L765.191 611.728C741.482 553.077 726.611 518.853 721.493 510.037L722.693 494.465L708.818 487.288C708.218 486.969 707.659 486.629 707.099 486.31C726.05 496.344 749.838 506.299 779.944 513.396C783.782 514.315 788.101 514.735 792.738 514.735C804.653 514.735 821.085 511.816 831.52 503.58C844.713 493.186 858.946 474.994 858.946 459.721V303.536C858.946 288.222 844.713 270.071 831.559 259.635ZM474.031 477.311C473.731 477.491 473.391 477.692 473.051 477.89C473.372 477.692 473.731 477.491 474.031 477.311ZM691.107 477.27C691.547 477.53 692.026 477.81 692.466 478.07C692.026 477.81 691.586 477.55 691.107 477.27Z" fill="#C0DFCF"/>
<path d="M618.901 497.801H546.256C510.763 497.801 481.888 468.914 481.888 433.392V360.747C481.888 325.264 510.763 296.397 546.256 296.397H618.901C654.415 296.397 683.31 325.264 683.31 360.747V433.392C683.31 468.914 654.415 497.801 618.901 497.801ZM546.256 337.338C533.344 337.338 522.828 347.833 522.828 360.747V433.392C522.828 446.325 533.344 456.861 546.256 456.861H618.901C631.846 456.861 642.37 446.325 642.37 433.392V360.747C642.37 347.833 631.846 337.338 618.901 337.338H546.256Z" fill="#43525B"/>
<path d="M372.16 535.202C354.789 535.202 334.738 530.525 320.956 519.649C304.733 506.855 285.782 483.487 285.782 459.717V303.531C285.782 279.684 304.723 256.315 320.945 243.542C336.947 230.866 361.526 225.069 377.558 225.069C379.136 225.069 380.716 225.249 382.256 225.61C450.253 241.642 514.411 286.961 532.464 300.473C541.509 307.251 543.348 320.084 536.572 329.14C529.794 338.175 517 340.054 507.916 333.258C496.381 324.601 436.389 281.264 375.419 266.089C367.183 266.609 353.499 269.989 346.312 275.686C334.749 284.781 326.722 297.654 326.722 303.531V459.717C326.722 465.555 334.769 478.408 346.312 487.503C353.1 492.862 370.422 495.799 380.716 493.462C437.21 480.127 469.694 456.439 487.155 443.725L499.959 459.717L511.263 476.809C492.883 490.203 454.65 518.069 390.081 533.321C384.794 534.543 378.667 535.202 372.16 535.202Z" fill="#43525B"/>
<path d="M493.431 381.916C490.872 381.916 488.275 381.437 485.755 380.417L425.364 355.949C414.889 351.712 409.833 339.778 414.081 329.283C418.328 318.827 430.252 313.789 440.737 318.008L501.128 342.476C511.603 346.713 516.661 358.647 512.413 369.142C509.185 377.099 501.529 381.916 493.431 381.916Z" fill="#43525B"/>
<path d="M433.05 446.685C424.486 446.685 416.498 441.269 413.63 432.692C410.052 421.978 415.839 410.384 426.563 406.805L486.954 386.634C497.619 383.017 509.265 388.833 512.863 399.567C516.442 410.283 510.655 421.878 499.928 425.456L439.537 445.625C437.39 446.346 435.2 446.685 433.05 446.685Z" fill="#43525B"/>
<path d="M793.028 535.202C786.541 535.202 780.435 534.564 775.166 533.323C710.558 518.071 672.326 490.225 653.954 476.832C644.82 470.175 642.431 457.08 649.086 447.944C655.753 438.808 668.197 436.571 677.294 443.167L678.074 443.748C695.525 456.46 727.999 480.129 784.523 493.464C794.748 495.922 812.098 492.864 818.876 487.505C830.419 478.371 838.476 465.536 838.476 459.719V303.533C838.476 297.697 830.429 284.824 818.876 275.708C811.668 269.991 797.996 266.611 789.759 266.091C729.049 281.205 668.848 324.603 657.264 333.26C648.188 340.056 635.373 338.177 628.608 329.121C621.841 320.067 623.699 307.232 632.755 300.475C650.867 286.942 715.215 241.564 782.922 225.612C784.462 225.251 786.042 225.071 787.62 225.071C803.663 225.071 828.241 230.868 844.284 243.603C860.465 256.376 879.417 279.766 879.417 303.533V459.719C879.417 483.409 860.475 506.796 844.263 519.631C830.46 530.525 810.389 535.202 793.028 535.202Z" fill="#43525B"/>
<path d="M671.767 381.915C663.679 381.915 656.013 377.099 652.785 369.142C648.538 358.667 653.586 346.733 664.06 342.475L724.392 318.007C734.887 313.789 746.811 318.806 751.058 329.282C755.306 339.757 750.258 351.691 739.783 355.949L679.452 380.417C676.934 381.436 674.326 381.915 671.767 381.915Z" fill="#43525B"/>
<path d="M732.087 446.685C729.939 446.685 727.749 446.345 725.6 445.625L665.27 425.456C654.544 421.877 648.757 410.283 652.345 399.549C655.923 388.853 667.569 383.056 678.244 386.634L738.574 406.805C749.3 410.383 755.087 421.978 751.498 432.712C748.639 441.269 740.653 446.685 732.087 446.685Z" fill="#43525B"/>
<path d="M697.064 723.933C691.427 723.933 685.93 721.593 681.992 717.317C642.83 674.698 562.229 529.628 562.229 494.164C562.229 482.85 571.394 473.693 582.699 473.693C593.944 473.693 603.069 482.749 603.17 493.985C604.598 512.016 650.587 602.571 688.108 658.066C693.077 642.873 697.754 630.499 698.125 629.539C702.012 619.304 713.315 613.906 723.741 617.404L748.839 625.781C730.557 580.462 709.688 530.385 703.69 520.812C697.703 511.215 700.612 498.601 710.198 492.606C719.823 486.608 732.437 489.507 738.404 499.103C750.659 518.693 794.557 629.639 803.233 651.669C806.141 659.065 804.502 667.482 799.034 673.259C793.569 679.015 785.252 681.136 777.696 678.577L729.769 662.586C724.811 677.079 719.123 695.291 717.274 706.726C716.026 714.482 710.458 720.819 702.951 723.077C701.013 723.652 699.023 723.933 697.064 723.933Z" fill="#43525B"/>
<path d="M468.134 723.933C466.175 723.933 464.206 723.653 462.267 723.074C454.761 720.834 449.193 714.499 447.934 706.761C446.065 695.306 440.368 677.075 435.411 662.582L387.543 678.574C380.006 681.132 371.681 679.014 366.213 673.255C360.735 667.479 359.096 659.061 362.005 651.666C370.672 629.636 414.531 518.71 426.795 499.099C432.772 489.503 445.414 486.584 455 492.602C464.587 498.598 467.495 511.212 461.508 520.808C455.52 530.384 434.659 580.44 416.39 625.757L441.437 617.401C451.891 613.902 463.166 619.28 467.066 629.556C467.424 630.516 472.103 642.89 477.08 658.083C514.642 602.529 560.7 511.772 562.018 493.9C562.829 482.905 572.305 472.951 583.209 474.331C594.214 474.73 602.949 483.147 602.949 494.16C602.949 529.643 522.358 674.695 483.206 717.313C479.268 721.594 473.772 723.933 468.134 723.933Z" fill="#43525B"/>
</g>
<defs>
<clipPath id="clip0_3_834">
<rect width="1165.2" height="1000" fill="white"/>
</clipPath>
</defs>
</svg>
