<svg width="895" height="1000" viewBox="0 0 895 1000" fill="none" xmlns="http://www.w3.org/2000/svg">
<path fill-rule="evenodd" clip-rule="evenodd" d="M447.167 424.308C404.118 316.813 241.014 283.327 133.154 332.052C-5.63662 394.718 -10.68 561.813 74.8986 662.778C137.199 736.753 232.939 790.711 313.956 847.306C371.195 887.306 423.887 917.77 447.167 981.746C469.965 917.77 523.139 887.306 579.877 847.306C660.894 790.711 757.151 736.753 819.451 662.778C905.014 561.813 899.968 394.718 760.681 332.052C653.316 283.327 490.232 316.813 447.167 424.308Z" fill="white"/>
<path d="M447.167 1000C439.502 1000 432.639 995.205 430.018 987.986C411.213 936.327 369.751 907.85 321.747 874.883L303.494 862.272C285.204 849.491 266.167 836.852 246.934 824.08C179.981 779.65 110.765 733.705 60.9422 674.533C10.335 614.836 -10.9483 532.597 5.43403 459.951C20.0512 395.147 62.742 343.817 125.648 315.413C159.66 300.047 199.464 291.919 240.73 291.919C330.499 291.919 407.541 327.863 447.167 385.85C486.793 327.863 563.763 291.919 653.425 291.919C694.637 291.919 734.335 300.047 768.22 315.431C831.305 343.809 874.158 395.172 888.828 460.03C905.264 532.625 884.015 614.836 833.373 674.579C783.783 733.473 714.656 779.258 647.81 823.536C628.237 836.487 608.88 849.312 590.324 862.272C583.834 866.851 577.311 871.362 570.875 875.801C523.495 908.527 482.567 936.8 464.369 987.869C461.784 995.124 454.921 999.973 447.22 1000C447.2 1000 447.185 1000 447.167 1000ZM240.728 328.426C204.614 328.426 169.996 335.431 140.674 348.683C73.7396 378.907 49.5504 430.235 41.048 467.981C27.1262 529.675 45.4324 599.791 88.8186 650.977C135.326 706.182 202.314 750.657 267.109 793.661C286.593 806.603 305.879 819.4 324.401 832.342L342.422 844.792C382.815 872.539 421.443 899.063 447.076 940.071C472.227 899.57 510.303 873.269 550.124 845.765C556.471 841.388 562.887 836.951 569.358 832.387C588.217 819.214 607.825 806.229 627.648 793.099C692.336 750.248 759.236 705.932 805.491 651.021C848.898 599.801 867.167 529.719 853.229 468.089C844.672 430.306 820.393 378.934 753.192 348.701C723.958 335.431 689.466 328.426 653.423 328.426C579.662 328.426 492.53 360.172 464.117 431.1C461.335 438.025 454.634 442.561 447.165 442.561C439.696 442.561 432.993 438.016 430.213 431.091C401.817 360.172 314.579 328.426 240.728 328.426Z" fill="#43525B"/>
<path d="M447.149 399.04C437.06 399.04 428.895 390.868 428.895 380.787V55.6595C428.895 45.5801 437.06 37.4062 447.149 37.4062C457.237 37.4062 465.402 45.5801 465.402 55.6595V380.787C465.402 390.868 457.235 399.04 447.149 399.04Z" fill="#43525B"/>
<path d="M647.488 29.1889C698.682 21.1866 739.555 20.4638 741.267 20.4291C744.244 20.4017 747.077 21.7835 748.861 24.171C750.644 26.5421 751.214 29.6525 750.323 32.4963C749.806 34.1537 737.684 73.1738 715.687 120.118C685.865 183.692 653.637 228.808 619.857 254.139C576.327 286.821 532.78 283.961 503.904 275.814C473.046 267.106 452.459 250.84 451.603 250.145C450.996 249.663 450.445 249.084 449.963 248.451C449.481 247.819 449.107 247.142 448.823 246.419C448.395 245.395 438.519 221.089 438.787 189.04C439.037 159.03 448.467 116.427 492.013 83.7534C525.756 58.4233 578.058 40.0623 647.488 29.1889Z" fill="#C0DFCF"/>
<path d="M551.105 297.222C537.006 297.222 522.673 295.199 508.502 291.196C473.547 281.33 450.606 262.907 449.642 262.124C448.038 260.848 446.417 259.182 444.989 257.32C443.385 255.128 442.244 253.078 441.406 250.948C441.05 250.117 429.784 222.703 430.087 186.704C430.39 152.559 441.14 104.084 490.641 66.9713C526.791 39.8232 581.836 20.3122 654.225 8.97513C703.494 1.26495 742.979 0.142376 750.394 0H750.412C759.626 0 767.862 4.13619 773.05 11.0706C778.327 18.0926 779.929 27.3452 777.292 35.7582C775.937 40.0988 763.531 79.2959 741.766 125.679C710.625 192.061 676.525 239.459 640.374 266.553C613.262 286.901 583.227 297.222 551.105 297.222ZM474.437 235.109C479.857 238.986 496.166 249.789 518.413 256.062C553.85 266.045 588.591 259.788 618.467 237.355C649.787 213.87 680.143 171.09 708.718 110.171C723.156 79.3689 733.245 52.0602 738.451 36.9702C722.532 37.7551 693.371 39.8049 659.858 45.0363C593.439 55.4461 543.885 72.648 512.548 96.1692C474.99 124.341 466.826 161.125 466.594 187.016C466.399 210.188 472.265 228.969 474.437 235.109Z" fill="#43525B"/>
<path d="M471.834 266.108C466.505 266.108 461.229 263.791 457.628 259.334C451.283 251.499 452.495 240.002 460.339 233.666L644.1 84.9657C651.927 78.6026 663.441 79.8493 669.769 87.6745C676.114 95.5088 674.902 107.007 667.061 113.344L483.298 262.044C479.928 264.781 475.863 266.108 471.834 266.108Z" fill="#43525B"/>
<path d="M256.736 100.776C210.674 93.5751 173.882 92.9417 172.349 92.907C169.675 92.8705 167.145 94.1008 165.541 96.2492C163.936 98.4049 163.401 101.203 164.186 103.762C164.65 105.25 175.56 140.358 195.365 182.622C222.192 239.833 251.211 280.421 281.621 303.229C320.801 332.649 359.982 330.055 385.989 322.756C413.743 314.905 432.281 300.261 433.031 299.645C433.601 299.2 434.101 298.683 434.528 298.105C434.955 297.561 435.277 296.946 435.561 296.294C435.954 295.376 444.83 273.496 444.582 244.645C444.369 217.639 435.883 179.289 396.667 149.885C366.308 127.095 319.231 110.554 256.736 100.776Z" fill="#C0DFCF"/>
<path d="M357.2 347.989C327.876 347.989 300.462 338.576 275.738 320.011C242.991 295.456 212.099 252.568 183.918 192.559C163.044 147.986 151.904 111.471 151.796 111.124C149.337 103.28 150.887 94.3418 156.022 87.4968C160.994 80.8289 168.98 76.8369 177.341 76.8369C184.738 76.9884 220.603 78.0581 264.667 84.9468C330.123 95.1705 379.927 112.843 412.726 137.478C457.859 171.338 467.663 215.554 467.932 246.669C468.216 280.52 457.414 305.68 457.306 305.921C456.932 306.981 455.917 308.852 454.579 310.76C452.761 313.193 451.157 314.816 449.375 316.207C449.375 316.207 428.306 333.381 396.041 342.508C383.1 346.144 370.034 347.989 357.2 347.989ZM191.19 113.897C196.004 127.701 204.685 150.83 216.966 177.069C242.582 231.588 269.73 269.869 297.645 290.805C315.933 304.53 335.951 311.483 357.2 311.483C366.701 311.483 376.433 310.101 386.113 307.374C405.507 301.892 419.677 292.658 424.651 289.121C426.825 282.863 431.602 266.855 431.425 246.99C431.139 213.7 417.467 186.678 390.801 166.669C362.849 145.661 318.518 130.304 259.034 121.008C230.71 116.587 206.078 114.698 191.19 113.897Z" fill="#43525B"/>
<path d="M428.538 319.976C424.509 319.976 420.462 318.647 417.074 315.911L251.672 182.096C243.829 175.759 242.617 164.261 248.964 156.427C255.292 148.601 266.772 147.364 274.631 153.718L440.035 287.534C447.877 293.87 449.089 305.368 442.744 313.202C439.143 317.658 433.867 319.976 428.538 319.976Z" fill="#43525B"/>
<path d="M447.148 565.681C447.148 507.714 494.101 460.752 552.105 460.752C610.037 460.752 657.061 507.714 657.061 565.681C657.061 596.091 643.924 623.204 623.318 642.403L623.621 642.438L447.148 818.892L270.641 642.438C270.712 642.403 270.765 642.403 270.836 642.314C250.249 623.133 237.236 596.091 237.236 565.681C237.236 507.714 284.189 460.752 342.21 460.752C400.159 460.752 447.148 507.714 447.148 565.681Z" fill="#FFA8A6"/>
<path d="M447.149 837.146C442.478 837.146 437.808 835.362 434.243 831.798L257.734 655.343C257.147 654.765 256.612 654.149 256.113 653.5C232.138 630.059 218.983 598.997 218.983 565.681C218.983 497.757 274.259 442.499 342.211 442.499C386.524 442.499 425.436 466.011 447.149 501.216C468.861 466.011 507.791 442.499 552.105 442.499C620.038 442.499 675.314 497.757 675.314 565.681C675.314 598.908 662.141 629.951 638.165 653.463C637.667 654.122 637.114 654.746 636.526 655.343L460.054 831.798C456.487 835.362 451.818 837.146 447.149 837.146ZM285.613 631.608L447.147 793.081L608.539 631.707C609.216 630.754 610.001 629.862 610.873 629.051C628.878 612.269 638.806 589.765 638.806 565.681C638.806 517.892 599.91 479.006 552.103 479.006C504.296 479.006 465.4 517.892 465.4 565.681C465.4 575.762 457.235 583.934 447.147 583.934C437.058 583.934 428.893 575.762 428.893 565.681C428.893 517.892 389.998 479.006 342.209 479.006C294.383 479.006 255.487 517.892 255.487 565.681C255.487 589.79 265.362 612.26 283.278 628.962C284.151 629.774 284.935 630.665 285.613 631.608Z" fill="#43525B"/>
</svg>
