<svg width="1166" height="1000" viewBox="0 0 1166 1000" fill="none" xmlns="http://www.w3.org/2000/svg">
<g clip-path="url(#clip0_3_777)">
<path d="M582.608 301.486C582.608 146.251 708.336 20.4424 863.69 20.4424C1018.88 20.4424 1144.77 146.251 1144.77 301.486C1144.77 382.896 1109.6 455.462 1054.46 506.867L1055.18 506.987L582.608 979.558L109.837 506.987C110.058 506.867 110.197 506.867 110.397 506.668C55.2782 455.303 20.4424 382.896 20.4424 301.486C20.4424 146.251 146.192 20.4424 301.566 20.4424C456.679 20.4424 582.608 146.251 582.608 301.486Z" fill="#FBD0C4"/>
<path d="M582.608 1000C577.376 1000 572.147 998.003 568.155 994.01L95.3841 521.44C94.3068 520.383 93.3685 519.206 92.5897 517.946C32.8386 460.372 0 383.714 0 301.486C0 135.251 135.292 0 301.566 0C429.331 0 538.787 79.8929 582.608 192.326C626.446 79.8929 735.905 0 863.69 0C1029.94 0 1165.22 135.251 1165.22 301.486C1165.22 383.613 1132.26 460.352 1072.27 518.167C1071.53 519.324 1070.65 520.422 1069.63 521.44L597.06 994.01C593.068 998.003 587.839 1000 582.608 1000ZM127.945 496.188L582.608 950.65L1037.11 496.147C1038.03 494.609 1039.17 493.172 1040.53 491.915C1094.56 441.527 1124.33 373.893 1124.33 301.486C1124.33 157.791 1007.41 40.8847 863.69 40.8847C719.974 40.8847 603.05 157.791 603.05 301.486C603.05 312.785 593.906 321.929 582.608 321.929C571.309 321.929 562.165 312.785 562.165 301.486C562.165 157.791 445.262 40.8847 301.566 40.8847C157.829 40.8847 40.8848 157.791 40.8848 301.486C40.8848 374.012 70.5303 441.568 124.331 491.715C125.749 493.033 126.966 494.55 127.945 496.188Z" fill="#43525B"/>
<path d="M692.665 682.231L902.188 467.214L723.004 292.609L513.482 507.626L692.665 682.231Z" fill="#C0DFCF"/>
<path d="M550.947 780.204C522.26 780.204 495.129 769.124 474.566 749.101L452.208 727.321C408.948 685.159 408.069 615.727 450.211 572.507L513.476 507.566L692.645 682.164L629.341 747.106C608.559 768.466 580.692 780.204 550.947 780.204Z" fill="white"/>
<path d="M723.028 292.543L786.312 227.601C807.094 206.28 834.924 194.542 864.708 194.542C893.416 194.542 920.547 205.562 941.108 225.586L963.506 247.445C984.409 267.848 996.147 295.157 996.545 324.404C996.905 353.629 985.866 381.279 965.503 402.22L902.2 467.161L723.028 292.543Z" fill="white"/>
<path d="M550.946 800.628C516.869 800.628 484.688 787.512 460.293 763.735L437.894 741.915C386.608 691.907 385.551 609.498 435.539 558.232L771.679 213.308C796.335 188.035 829.374 174.1 864.708 174.1C898.765 174.1 930.966 187.195 955.382 210.972L977.781 232.812C1002.61 257.008 1016.55 289.448 1016.99 324.145C1017.43 358.839 1004.33 391.639 980.095 416.493L643.975 761.378C619.32 786.672 586.281 800.628 550.946 800.628ZM864.708 214.984C840.492 214.984 817.854 224.527 800.946 241.856L464.804 586.78C430.547 621.896 431.287 678.372 466.442 712.648L488.84 734.468C505.55 750.758 527.609 759.743 550.946 759.743C575.16 759.743 597.8 750.18 614.708 732.831L950.83 387.947C967.419 370.917 976.403 348.438 976.103 324.664C975.804 300.887 966.262 278.668 949.233 262.077L926.835 240.239C910.125 223.948 888.066 214.984 864.708 214.984Z" fill="#43525B"/>
<path d="M683.701 693.904C678.552 693.904 673.4 691.966 669.429 688.094L508.165 530.903C500.08 523.039 499.92 510.082 507.805 501.997C515.692 493.91 528.666 493.792 536.712 501.638L697.976 658.827C706.061 666.693 706.221 679.65 698.334 687.735C694.342 691.848 689.012 693.904 683.701 693.904Z" fill="#43525B"/>
<path d="M893.236 478.879C888.086 478.879 882.935 476.943 878.963 473.069L717.699 315.918C709.614 308.054 709.454 295.098 717.339 287.013C725.226 278.926 738.201 278.787 746.247 286.653L907.51 443.804C915.595 451.668 915.755 464.624 907.868 472.709C903.876 476.822 898.546 478.879 893.236 478.879Z" fill="#43525B"/>
<path d="M700.03 585.004C706.22 591.032 706.359 600.914 700.31 607.104C694.282 613.271 684.421 613.431 678.192 607.402C672.002 601.374 671.922 591.451 677.912 585.263C683.961 579.094 693.842 578.975 700.03 585.004Z" fill="#43525B"/>
<path d="M743.67 540.207C749.879 546.215 750.02 556.117 743.971 562.325C737.961 568.474 728.059 568.595 721.871 562.605C715.683 556.536 715.562 546.674 721.591 540.505C727.621 534.297 737.521 534.178 743.67 540.207Z" fill="#43525B"/>
<path d="M787.35 495.388C793.54 501.417 793.658 511.319 787.63 517.528C781.622 523.677 771.699 523.816 765.55 517.808C759.321 511.779 759.203 501.877 765.27 495.669C771.28 489.519 781.182 489.38 787.35 495.388Z" fill="#43525B"/>
<path d="M831.029 450.591C837.199 456.64 837.319 466.522 831.309 472.71C825.24 478.9 815.358 479.018 809.19 472.99C803.021 466.962 802.882 457.08 808.89 450.871C814.92 444.702 824.802 444.563 831.029 450.591Z" fill="#43525B"/>
<path d="M655.233 541.345C661.423 547.374 661.541 557.235 655.513 563.443C649.523 569.613 639.603 569.772 633.433 563.724C627.225 557.654 627.125 547.793 633.135 541.623C639.183 535.476 649.045 535.296 655.233 541.345Z" fill="#43525B"/>
<path d="M698.873 496.548C705.102 502.576 705.22 512.437 699.171 518.646C693.163 524.815 683.261 524.975 677.053 518.946C670.865 512.897 670.785 502.995 676.793 496.826C682.822 490.638 692.724 490.517 698.873 496.548Z" fill="#43525B"/>
<path d="M742.553 451.73C748.743 457.797 748.882 467.66 742.833 473.848C736.843 480.018 726.922 480.157 720.753 474.128C714.524 468.118 714.444 458.198 720.434 452.028C726.483 445.84 736.365 445.72 742.553 451.73Z" fill="#43525B"/>
<path d="M786.232 406.951C792.401 412.981 792.54 422.863 786.491 429.071C780.483 435.22 770.581 435.398 764.393 429.349C758.203 423.321 758.044 413.419 764.113 407.231C770.141 401.043 780.044 400.922 786.232 406.951Z" fill="#43525B"/>
<path d="M610.476 497.664C616.625 503.712 616.744 513.576 610.736 519.764C604.708 525.933 594.826 526.093 588.615 520.062C582.448 514.034 582.327 504.113 588.358 497.964C594.345 491.756 604.248 491.635 610.476 497.664Z" fill="#43525B"/>
<path d="M654.096 452.866C660.264 458.915 660.405 468.779 654.395 474.987C648.387 481.154 638.484 481.314 632.276 475.265C626.088 469.236 626.006 459.334 631.996 453.167C638.024 446.958 647.927 446.838 654.096 452.866Z" fill="#43525B"/>
<path d="M697.755 408.09C703.963 414.118 704.084 424 698.035 430.19C692.007 436.357 682.143 436.517 675.916 430.488C669.727 424.439 669.608 414.537 675.636 408.37C681.706 402.18 691.567 402.041 697.755 408.09Z" fill="#43525B"/>
<path d="M741.395 363.292C747.624 369.32 747.743 379.202 741.714 385.392C735.686 391.56 725.784 391.719 719.575 385.691C713.406 379.662 713.287 369.74 719.316 363.59C725.365 357.382 735.226 357.264 741.395 363.292Z" fill="#43525B"/>
</g>
<defs>
<clipPath id="clip0_3_777">
<rect width="1165.22" height="1000" fill="white"/>
</clipPath>
</defs>
</svg>
