<svg width="881" height="1000" viewBox="0 0 881 1000" fill="none" xmlns="http://www.w3.org/2000/svg">
<path d="M862.647 62.6079V356.143C862.647 380.369 842.403 400.613 818.142 400.613H560.264L471.273 498.47V400.613H391.217C367.044 400.613 346.729 380.369 346.729 356.143V62.6079C346.729 38.381 367.044 18.1206 391.217 18.1206H818.142C842.403 18.1206 862.647 38.381 862.647 62.6079Z" fill="#C0DFCF"/>
<path d="M471.273 516.59C469.079 516.59 466.866 516.201 464.742 515.369C457.753 512.68 453.153 505.955 453.153 498.47V418.733H391.217C357.278 418.733 328.609 390.066 328.609 356.143V62.6077C328.609 28.6664 357.278 0 391.217 0H818.142C852.667 0 880.768 28.083 880.768 62.6077V356.143C880.768 390.65 852.667 418.733 818.142 418.733H568.28L484.686 510.661C481.181 514.519 476.28 516.59 471.273 516.59ZM391.217 36.2407C376.918 36.2407 364.85 48.3089 364.85 62.6077V356.143C364.85 370.424 376.918 382.492 391.217 382.492H471.273C481.288 382.492 489.393 390.596 489.393 400.612V451.61L546.851 388.419C550.283 384.65 555.168 382.492 560.264 382.492H818.142C832.441 382.492 844.527 370.424 844.527 356.143V62.6077C844.527 48.3089 832.441 36.2407 818.14 36.2407H391.217Z" fill="#43525B"/>
<path d="M574.014 412.416L546.514 388.809L590.931 337.103L618.43 360.708L574.014 412.416Z" fill="#43525B"/>
<path d="M600.009 169.648H453.435V133.408H600.009V169.648Z" fill="#43525B"/>
<path d="M665.57 240.838H453.435V204.597H665.57V240.838Z" fill="#43525B"/>
<path d="M785.654 311.975H453.435V275.734H785.654V311.975Z" fill="#43525B"/>
<path d="M716.269 117.605C711.614 106.952 700.961 99.4502 688.522 99.4502C671.8 99.4502 659.785 113.271 658.262 129.709C658.262 129.709 657.467 133.815 659.235 141.176C661.713 151.157 667.482 160.021 675.198 166.834L716.269 202.191L756.651 166.834C764.383 160.021 770.081 151.157 772.595 141.176C774.293 133.815 773.568 129.709 773.568 129.709C772.027 113.271 759.996 99.4502 743.272 99.4502C730.921 99.4502 720.959 106.952 716.269 117.605Z" fill="#FFA8A6"/>
<path d="M716.269 215.781C713.118 215.781 709.951 214.683 707.403 212.489L666.331 177.134C656.086 168.092 649.113 156.837 646.053 144.45C643.733 134.859 644.601 128.771 644.92 127.125C646.973 104.174 665.8 85.8599 688.522 85.8599C698.785 85.8599 708.483 89.4332 716.128 95.6449C723.63 89.3988 733.08 85.8599 743.272 85.8599C765.975 85.8599 784.822 104.174 787.105 128.435C787.229 128.948 787.99 134.894 785.83 144.236C782.646 156.924 775.673 168.179 765.64 177.027L725.223 212.418C722.657 214.667 719.471 215.781 716.269 215.781ZM688.522 113.04C678.63 113.04 672.614 122.064 671.8 130.965C671.693 131.762 671.481 133.973 672.454 138.008C674.17 144.911 678.24 151.387 684.187 156.642L716.199 184.194L747.697 156.607C753.572 151.439 757.624 144.945 759.41 137.849C760.313 133.921 760.119 131.603 760.101 131.567C759.198 122.064 753.182 113.04 743.272 113.04C736.919 113.04 731.469 116.791 728.709 123.074C726.533 128.01 721.649 131.195 716.269 131.195H716.251C710.853 131.195 705.97 127.993 703.812 123.037C701.157 116.969 695.157 113.04 688.522 113.04Z" fill="#43525B"/>
<path d="M792.502 731.539L833.681 725.168L797.032 705.384C735.452 672.17 653.591 596.591 644.479 588.115L643.788 587.442L643.009 586.877C614.076 566.562 583.906 556.263 553.346 556.263C502.453 556.263 467.345 585.355 467.361 585.355C451.913 596.874 438.323 602.732 426.998 602.732C415.23 602.732 409.073 596.822 406.418 593.335L405.587 592.239L404.559 591.318C376.016 565.749 344.961 552.776 312.33 552.776C256.253 552.776 214.154 590.699 209.836 594.805C134.984 661.428 79.1011 697.739 45.3555 716.516L10.9902 735.573L49.6736 742.493C53.2651 743.165 57.1591 743.589 61.1039 743.961L43.4257 743.236L56.8402 765.497C115.554 863.124 206.723 923.555 208.421 924.617C293.201 971.669 375.184 981.544 429.069 981.544C477.554 981.544 508.398 973.845 508.84 973.669C683.071 940.313 759.606 808.285 784.397 753.075L793.653 732.512L778.841 733.078C783.513 732.724 788.166 732.212 792.502 731.539ZM175.507 728.778C174.994 728.937 124.119 744.74 77.2601 744.74C123.482 744.74 174.693 729.044 175.559 728.761C208.81 717.366 238.434 711.596 263.49 711.596C267.861 711.596 271.701 711.826 275.276 712.127C271.701 711.826 267.825 711.596 263.49 711.596C238.434 711.596 208.669 717.418 175.507 728.778ZM298.615 716.851C297.678 716.55 296.598 716.161 295.431 715.789C296.58 716.161 297.678 716.534 298.615 716.851ZM293.962 715.347C291.838 714.745 289.397 714.144 286.565 713.595C289.379 714.144 291.82 714.711 293.962 715.347ZM286.317 713.56C283.68 713.082 280.654 712.658 277.416 712.339C280.654 712.658 283.664 713.082 286.317 713.56ZM304.491 719.542C304.685 719.665 305.039 719.788 305.182 719.895C336.467 735.928 361.79 743.43 380.423 746.793C361.683 743.414 336.202 735.874 304.792 719.754L304.491 719.542ZM399.464 749.147C398.224 749.058 396.739 748.899 395.394 748.792C396.739 748.899 398.224 749.058 399.464 749.147ZM390.757 748.35C388.173 748.067 385.236 747.589 382.246 747.076C385.236 747.589 388.173 748.067 390.757 748.35ZM416.771 748.721L415.566 748.88C415.461 748.88 415.23 748.899 415.107 748.917C415.814 748.846 416.381 748.757 416.664 748.703C419.389 748.88 422.044 748.88 424.715 748.951C422.486 748.899 420.255 748.88 417.974 748.792L416.771 748.721ZM411.443 749.199C411.867 749.181 412.241 749.163 412.628 749.147C412.241 749.163 411.904 749.181 411.443 749.199ZM503.638 736.122C512.203 733.114 518.999 730.14 523.741 727.859C519.033 730.14 512.203 733.114 503.638 736.122ZM492.951 739.572C493.605 739.378 494.313 739.201 494.931 739.007C494.313 739.201 493.639 739.378 492.951 739.572ZM498.365 737.892C499.728 737.45 501.125 737.006 502.417 736.564C501.125 737.006 499.728 737.45 498.365 737.892ZM526.856 726.319C526.058 726.727 525.138 727.169 524.13 727.663C525.138 727.169 526.056 726.727 526.856 726.319ZM546.195 716.427C561.645 710.074 579.464 706.872 599.39 706.872C579.463 706.872 561.645 710.074 546.195 716.427ZM626.623 708.729C626.552 708.729 626.445 708.711 626.375 708.693C626.445 708.711 626.552 708.729 626.623 708.729ZM613.511 707.385C613.315 707.367 613.085 707.367 612.873 707.33C613.119 707.367 613.313 707.367 613.511 707.385ZM670.632 718.886C672.721 719.594 674.401 720.16 675.18 720.444C675.002 720.39 674.79 720.355 674.596 720.303C674.56 720.267 673.127 719.754 670.632 718.886ZM679.514 721.488C686.061 723.186 692.556 724.849 698.854 726.177C692.556 724.849 686.063 723.186 679.514 721.488ZM768.081 733.504C766.559 733.556 765.019 733.663 763.392 733.663C765.126 733.663 766.806 733.522 768.523 733.485L768.081 733.504ZM709.154 728.053C713.294 728.832 717.524 729.698 721.505 730.3C717.489 729.698 713.296 728.832 709.154 728.053ZM735.716 731.963C738.141 732.212 740.689 732.636 743.061 732.813C740.687 732.636 738.141 732.212 735.716 731.963Z" fill="#FFA8A6"/>
<path d="M406.489 767.479C388.403 767.479 350.057 763.355 296.368 735.769C295.748 735.45 295.147 735.096 294.563 734.707C294.474 734.707 284.972 729.735 263.472 729.735C240.414 729.735 212.668 735.22 181.01 746.05C178.339 746.882 126.401 762.842 77.2436 762.842C47.0188 762.842 23.466 756.703 7.27362 744.581C2.01871 740.652 -0.706596 734.194 0.159558 727.682C1.02752 721.169 5.34561 715.648 11.4322 713.223C12.0864 712.959 82.3753 684.026 197.362 581.657C198.811 580.224 246.678 534.674 312.312 534.674C350.093 534.674 385.643 549.593 417.956 579.002C419.336 580.242 420.503 581.691 421.424 583.284C421.353 583.09 422.91 584.612 426.979 584.612C431.104 584.612 440.358 582.878 455.842 571.357C456.55 570.703 495.48 538.126 553.309 538.126C588.028 538.126 622.004 549.752 654.3 572.667C654.954 573.146 655.59 573.658 656.191 574.224C690.326 606.219 788.785 691.388 833.927 701.262C840.829 702.766 846.227 708.128 847.747 715.012C849.287 721.896 846.685 729.062 841.093 733.344C838.616 735.238 815.506 751.784 763.41 751.784C735.522 751.784 704.024 747.058 669.8 737.751C669.216 737.592 668.615 737.396 668.047 737.184C667.73 737.061 635.771 724.974 599.389 724.974C576.208 724.974 556.513 729.805 540.852 739.36C538.623 740.67 487.746 770.187 417.513 766.896C415.212 767.161 411.532 767.479 406.489 767.479ZM313.515 703.828C360.108 727.664 391.748 731.239 406.489 731.239C410.559 731.239 412.983 730.956 413.619 730.849C414.893 730.637 416.415 730.53 417.689 730.619C477.979 733.75 521.758 708.534 522.182 708.287C543.436 695.351 569.465 688.734 599.389 688.734C639.417 688.734 673.817 700.679 680.117 702.996C710.926 711.313 738.938 715.543 763.41 715.543C768.347 715.543 772.93 715.365 777.177 715.064C716.889 679.462 645.54 613.846 632.338 601.529C606.609 583.514 580.011 574.367 553.309 574.367C509.248 574.367 478.652 599.476 478.351 599.741C459.292 613.969 442.288 620.853 426.979 620.853C407.41 620.853 396.543 610.147 392.226 604.59C367.17 582.24 340.29 570.915 312.312 570.915C261.631 570.915 222.364 607.882 221.976 608.254C152.344 670.258 98.584 706.412 64.9091 726.16C68.8013 726.46 72.9255 726.602 77.2436 726.602C120.792 726.602 169.295 711.738 169.792 711.596C204.722 699.633 236.415 693.494 263.472 693.494C293.182 693.494 308.684 700.979 313.515 703.828Z" fill="#43525B"/>
<path d="M428.909 1000C370 1000 286.441 988.623 198.706 939.924C193.255 936.42 91.4697 868.84 31.5529 757.994C26.7927 749.182 30.0833 738.194 38.879 733.433C47.6909 728.708 58.6791 731.964 63.4393 740.759C118.88 843.341 216.471 908.302 217.446 908.938C364.904 990.71 503.815 956.274 505.194 955.921C712.323 916.264 773.337 733.663 775.833 725.912C778.893 716.409 789.033 711.084 798.606 714.197C808.127 717.241 813.383 727.399 810.357 736.936C807.614 745.52 740.777 947.727 513.158 991.259C510.875 991.879 478.668 1000 428.909 1000Z" fill="#43525B"/>
<path d="M432.218 915.257C394.615 915.257 350.164 909.346 302.721 890.995C293.378 887.386 288.741 876.892 292.35 867.566C295.962 858.241 306.49 853.569 315.78 857.195C433.032 902.532 531.012 862.805 532.003 862.416C541.17 858.576 551.858 862.912 555.681 872.184C559.539 881.422 555.168 892.021 545.912 895.861C543.028 897.064 498.169 915.257 432.218 915.257Z" fill="white"/>
</svg>
