<svg width="828" height="828" viewBox="0 0 828 828" fill="none" xmlns="http://www.w3.org/2000/svg">
<path d="M193.902 634.098L190.328 716.129L125.836 780.621L126.227 760.719C126.383 753.16 120.387 746.93 112.828 746.773H112.555C112.223 746.773 111.91 746.793 111.598 746.832C111.266 746.852 110.934 746.891 110.621 746.949V728.258L111.598 728.238L112.574 728.219L113.746 728.199C121.285 728.043 127.301 721.813 127.145 714.254C126.988 706.715 120.836 700.699 113.199 700.855L47.3789 702.164L111.871 637.672L193.902 634.098Z" fill="#FFDE83"/>
<path d="M702.379 364.469C702.066 364.391 701.754 364.312 701.441 364.215C695.113 362.32 690.914 356.09 691.812 349.332C692.965 340.602 693.551 331.852 693.551 323.355C693.551 240.016 625.738 172.223 542.398 172.223C495.875 172.223 452.594 193.297 423.668 230.035C421.07 233.316 417.125 235.25 412.926 235.25C408.746 235.25 404.781 233.316 402.184 230.035C373.258 193.297 329.977 172.223 283.453 172.223C200.113 172.223 132.301 240.016 132.301 323.355C132.301 380.875 158.844 444.312 211.168 511.91C215.66 517.711 214.742 525.953 209.254 530.641C209.078 530.797 208.902 530.953 208.727 531.09C208.648 531.148 208.57 531.207 208.492 531.266C208.219 531.461 207.945 531.617 207.652 531.793C207.672 531.812 207.691 531.832 207.711 531.852C214.801 541.441 225.992 555.797 239.02 569.605C239.02 569.625 239.02 569.625 239.039 569.625L393.629 415.035C384.938 409.742 374.723 406.676 363.805 406.676C356.246 406.676 350.133 400.562 350.133 393.004C350.133 385.465 356.246 379.332 363.805 379.332C410.602 379.332 448.668 417.398 448.668 464.195C448.668 471.734 442.535 477.867 434.996 477.867C427.438 477.867 421.324 471.734 421.324 464.195C421.324 453.277 418.258 443.062 412.965 434.371L269.254 578.082C282.184 591.285 296.07 604.703 310.719 618.121C311.246 618.551 311.637 618.863 312.027 619.215C313.121 620.191 314.352 621.187 315.66 622.242L317.281 623.57C319.664 625.523 321.793 627.281 323.902 628.824C325.523 630.016 327.281 631.168 329.137 632.398L329.645 632.73C331.734 634.117 334.195 635.719 336.617 637.145C338.238 638.102 340.055 639.098 342.438 640.348C344.996 641.695 347.574 642.965 350.094 644.137C352.301 645.133 354.098 645.914 355.758 646.598C358.238 647.613 360.973 648.629 364.137 649.703L365.055 650.016C366.559 650.523 368.062 651.051 369.586 651.5C372.789 652.457 376.031 653.238 378.785 653.863C379.41 654.019 380.055 654.176 380.699 654.332C381.734 654.586 382.77 654.84 383.805 655.035C387.398 655.738 391.07 656.227 394.215 656.617C394.938 656.715 395.66 656.812 396.383 656.93C397.027 657.027 397.652 657.125 398.316 657.184C403.414 657.672 408.102 657.926 412.672 657.926H413.18C417.75 657.926 422.438 657.672 427.555 657.184C428.18 657.125 428.805 657.027 429.43 656.93C430.152 656.812 430.875 656.715 431.598 656.617C434.723 656.246 438.414 655.738 442.047 655.035C443.082 654.84 444.117 654.586 445.133 654.332C445.777 654.176 446.402 654.02 447.027 653.883C449.801 653.238 453.043 652.457 456.266 651.5C457.809 651.031 459.332 650.523 460.836 649.996L461.676 649.723C464.84 648.648 467.594 647.613 470.113 646.578C471.813 645.894 473.59 645.113 475.738 644.137C478.238 643.004 480.836 641.715 483.453 640.328C485.816 639.078 487.594 638.102 489.215 637.145C491.695 635.699 494.156 634.098 496.227 632.711L496.773 632.359C498.609 631.148 500.328 629.996 501.93 628.824C504.059 627.281 506.188 625.543 508.434 623.687L510.211 622.242C511.5 621.187 512.73 620.191 513.824 619.215C514.215 618.883 514.586 618.551 514.977 618.258C583.16 555.816 632.496 495.738 661.637 439.684C664.606 434 671.012 431.305 676.949 432.75C677.281 432.828 677.613 432.867 677.926 432.965C678.238 433.062 678.551 433.18 678.844 433.297C682.418 425.152 686.031 416.207 689.547 406.715C689.566 406.656 689.586 406.598 689.605 406.539C689.312 406.519 689.039 406.48 688.746 406.422C688.707 406.422 688.668 406.402 688.629 406.383C688.316 406.324 687.984 406.227 687.672 406.148C687.164 405.992 686.676 405.836 686.188 405.641C685.367 405.289 684.566 404.859 683.824 404.371C683.082 403.883 682.379 403.297 681.754 402.672C679.195 400.133 677.75 396.617 677.75 393.004C677.75 389.41 679.195 385.875 681.754 383.336C682.379 382.711 683.082 382.144 683.824 381.637C684.566 381.148 685.367 380.719 686.188 380.387C687.008 380.035 687.867 379.781 688.746 379.605C691.363 379.059 694.078 379.41 696.5 380.406C696.813 380.523 697.125 380.621 697.418 380.758C697.711 380.895 697.984 381.09 698.277 381.266C698.297 381.187 698.336 381.129 698.355 381.051C700.055 375.719 701.676 370.387 703.316 364.742C703.336 364.703 703.336 364.684 703.355 364.645C703.023 364.586 702.691 364.547 702.379 364.469ZM283.453 250.348C243.18 250.348 210.426 283.102 210.426 323.355C210.426 332.984 211.695 343.199 214.176 353.727C215.914 361.09 211.363 368.453 204.02 370.172C202.965 370.426 201.91 370.543 200.875 370.543C194.664 370.543 189.059 366.305 187.574 360.016C184.605 347.418 183.082 335.094 183.082 323.355C183.082 268.023 228.121 223.004 283.453 223.004C290.992 223.004 297.125 229.117 297.125 236.676C297.125 244.234 290.992 250.348 283.453 250.348Z" fill="#F57070"/>
<path d="M788.102 39.8984L741.793 147.203L728.863 107.848C728.844 107.789 728.805 107.711 728.785 107.633C728.648 107.262 728.512 106.91 728.336 106.539C728.297 106.422 728.238 106.305 728.18 106.168C728.004 105.836 727.828 105.504 727.633 105.172C727.574 105.055 727.496 104.937 727.438 104.84C727.223 104.508 726.988 104.176 726.754 103.863C726.676 103.766 726.617 103.687 726.559 103.59C726.246 103.199 725.914 102.828 725.543 102.457C725.172 102.105 724.801 101.754 724.41 101.441C724.312 101.383 724.215 101.305 724.117 101.227C723.805 100.992 723.492 100.777 723.18 100.582C723.062 100.504 722.926 100.426 722.809 100.348C722.496 100.172 722.164 99.9961 721.852 99.8398C721.715 99.7617 721.578 99.7031 721.441 99.6445C721.09 99.4883 720.758 99.3516 720.406 99.2344C720.309 99.2148 720.23 99.1562 720.152 99.1367L680.797 86.207L788.102 39.8984Z" fill="#FFDE83"/>
<path d="M297.125 236.676C297.125 244.234 290.992 250.348 283.453 250.348C243.18 250.348 210.426 283.102 210.426 323.355C210.426 332.984 211.695 343.199 214.176 353.727C215.914 361.09 211.363 368.453 204.02 370.172C202.965 370.426 201.91 370.543 200.875 370.543C194.664 370.543 189.059 366.305 187.574 360.016C184.605 347.418 183.082 335.094 183.082 323.355C183.082 268.023 228.121 223.004 283.453 223.004C290.992 223.004 297.125 229.117 297.125 236.676Z" fill="#48446D"/>
<path d="M705.094 393.004C705.094 396.598 703.629 400.133 701.09 402.672C698.531 405.211 695.016 406.676 691.422 406.676C690.816 406.676 690.211 406.617 689.605 406.539C689.312 406.52 689.039 406.48 688.746 406.422C688.707 406.422 688.668 406.402 688.629 406.383C688.316 406.324 687.984 406.227 687.672 406.148C687.164 405.992 686.676 405.836 686.187 405.641C685.367 405.289 684.566 404.859 683.824 404.371C683.082 403.883 682.379 403.297 681.754 402.672C679.195 400.133 677.75 396.617 677.75 393.004C677.75 389.41 679.195 385.875 681.754 383.336C682.379 382.711 683.082 382.145 683.824 381.637C684.566 381.148 685.367 380.719 686.187 380.387C687.008 380.035 687.867 379.781 688.746 379.605C691.363 379.059 694.078 379.41 696.5 380.406C696.813 380.523 697.125 380.621 697.418 380.758C697.711 380.895 697.984 381.09 698.277 381.266C699.293 381.852 700.25 382.516 701.09 383.336C703.629 385.895 705.094 389.41 705.094 393.004Z" fill="#48446D"/>
<path d="M685.895 452.301C655.289 511.207 604 573.824 533.473 638.414C533.023 638.805 532.555 639.195 532.086 639.586L532.105 639.547C530.484 641.012 528.922 642.281 527.418 643.492L525.797 644.82C523.336 646.832 520.816 648.902 518.082 650.895C515.953 652.457 513.863 653.824 511.852 655.172L511.324 655.504C508.961 657.086 506.09 658.961 503.023 660.738C501.051 661.91 498.961 663.062 496.227 664.508C493.16 666.129 490.094 667.652 487.105 669C484.605 670.152 482.496 671.07 480.465 671.891C477.418 673.141 474.156 674.352 470.484 675.602L469.664 675.875C467.828 676.52 465.973 677.145 464.098 677.691C460.113 678.883 456.188 679.84 453.199 680.523L451.559 680.914C450.152 681.246 448.727 681.598 447.301 681.871C442.789 682.75 438.336 683.336 434.957 683.766C434.469 683.824 433.98 683.902 433.473 683.961C432.398 684.137 431.305 684.293 430.191 684.391C424.098 684.977 418.473 685.27 412.965 685.27H412.887C407.379 685.27 401.734 684.996 395.68 684.41C394.547 684.293 393.434 684.137 392.32 683.961C391.812 683.883 391.324 683.805 390.836 683.746C387.242 683.297 382.984 682.73 378.57 681.871C377.125 681.598 375.699 681.246 374.273 680.914L372.633 680.523C369.449 679.781 365.68 678.883 361.773 677.711C359.898 677.145 358.062 676.52 356.227 675.895L355.328 675.602C351.637 674.332 348.395 673.121 345.426 671.91C343.434 671.109 341.285 670.172 338.707 669C335.699 667.613 332.672 666.109 329.664 664.527C326.91 663.082 324.781 661.91 322.789 660.738C319.781 658.98 316.949 657.125 314.566 655.543L314.059 655.211C312.008 653.863 309.918 652.457 307.75 650.895C305.035 648.902 302.496 646.812 300.055 644.82L298.453 643.512C296.969 642.301 295.445 641.07 293.863 639.645C293.258 639.176 292.809 638.805 292.379 638.395C277.398 624.684 263.18 610.953 249.918 597.418L221.617 625.699L217.418 722.613C217.281 726.031 215.855 729.273 213.434 731.695L204.566 740.562L125.426 819.703L121.168 823.961C118.551 826.578 115.055 827.965 111.5 827.965C109.684 827.965 107.867 827.613 106.148 826.871C102.848 825.465 100.309 822.867 98.9609 819.703C98.1992 817.945 97.789 816.012 97.8281 814.02L98.9023 760.172C98.9023 759.859 98.9219 759.547 98.9609 759.254C98.9609 759.039 99 758.844 99.0195 758.648C99.0586 758.375 99.0976 758.121 99.1562 757.848C99.1758 757.672 99.2148 757.496 99.2539 757.32C99.2734 757.281 99.2734 757.223 99.293 757.184C99.3515 756.891 99.4297 756.617 99.5273 756.344C99.625 755.992 99.7617 755.641 99.8984 755.309C99.918 755.27 99.9375 755.211 99.957 755.172C100.094 754.82 100.27 754.469 100.445 754.156C100.602 753.824 100.797 753.512 100.992 753.199V753.18C101.109 752.984 101.227 752.789 101.402 752.594C101.539 752.359 101.695 752.145 101.871 751.949C102.086 751.656 102.34 751.383 102.594 751.109C102.672 751.012 102.75 750.934 102.848 750.836C103.023 750.641 103.219 750.465 103.434 750.289C103.531 750.191 103.648 750.094 103.746 750.016C103.941 749.84 104.137 749.664 104.352 749.527C104.508 749.41 104.684 749.273 104.859 749.176C104.977 749.098 105.074 749.02 105.191 748.941C105.211 748.922 105.23 748.922 105.25 748.902C105.484 748.766 105.699 748.629 105.934 748.492C105.953 748.492 105.992 748.473 106.012 748.453C106.051 748.453 106.07 748.434 106.09 748.414L106.109 748.395C106.461 748.238 106.773 748.062 107.125 747.926C107.301 747.848 107.477 747.769 107.652 747.711C107.828 747.633 107.984 747.594 108.18 747.535C108.238 747.496 108.316 747.477 108.395 747.457C108.687 747.359 109 747.262 109.293 747.203C109.312 747.184 109.312 747.184 109.332 747.184C109.449 747.164 109.547 747.145 109.664 747.125C109.957 747.047 110.25 746.988 110.543 746.969C110.562 746.949 110.582 746.949 110.602 746.949H110.621C110.934 746.891 111.266 746.852 111.598 746.832C111.91 746.793 112.223 746.773 112.555 746.773H112.828C120.387 746.93 126.383 753.16 126.227 760.719L125.836 780.621L190.328 716.129L193.902 634.098L111.871 637.672L47.3789 702.164L113.199 700.855C120.836 700.699 126.988 706.715 127.145 714.254C127.301 721.812 121.285 728.043 113.746 728.199L112.574 728.219L111.598 728.238L110.621 728.258L13.9804 730.172H13.707C8.23826 730.172 3.27733 726.91 1.12889 721.852C-1.05861 716.715 0.0937276 710.777 4.03904 706.832L96.3047 614.566C98.7265 612.145 101.969 610.719 105.387 610.582L202.301 606.363L393.629 415.035C384.938 409.742 374.723 406.676 363.805 406.676C356.246 406.676 350.133 400.562 350.133 393.004C350.133 385.465 356.246 379.332 363.805 379.332C410.602 379.332 448.668 417.398 448.668 464.195C448.668 471.734 442.535 477.867 434.996 477.867C427.437 477.867 421.324 471.734 421.324 464.195C421.324 453.277 418.258 443.062 412.965 434.371L269.254 578.082C282.184 591.285 296.07 604.703 310.719 618.121C311.246 618.551 311.637 618.863 312.027 619.215C313.121 620.191 314.352 621.187 315.66 622.242L317.281 623.57C319.664 625.523 321.793 627.281 323.902 628.824C325.523 630.016 327.281 631.168 329.137 632.398L329.645 632.73C331.734 634.117 334.195 635.719 336.617 637.145C338.238 638.102 340.055 639.098 342.437 640.348C344.996 641.695 347.574 642.965 350.094 644.137C352.301 645.133 354.098 645.914 355.758 646.598C358.238 647.613 360.973 648.629 364.137 649.703L365.055 650.016C366.559 650.523 368.062 651.051 369.586 651.5C372.789 652.457 376.031 653.238 378.785 653.863C379.41 654.02 380.055 654.176 380.699 654.332C381.734 654.586 382.77 654.84 383.805 655.035C387.398 655.738 391.07 656.227 394.215 656.617C394.937 656.715 395.66 656.812 396.383 656.93C397.027 657.027 397.652 657.125 398.316 657.184C403.414 657.672 408.102 657.926 412.672 657.926H413.18C417.75 657.926 422.437 657.672 427.555 657.184C428.18 657.125 428.805 657.027 429.43 656.93C430.152 656.812 430.875 656.715 431.598 656.617C434.723 656.246 438.414 655.738 442.047 655.035C443.082 654.84 444.117 654.586 445.133 654.332C445.777 654.176 446.402 654.02 447.027 653.883C449.801 653.238 453.043 652.457 456.266 651.5C457.809 651.031 459.332 650.523 460.836 649.996L461.676 649.723C464.84 648.648 467.594 647.613 470.113 646.578C471.812 645.895 473.59 645.113 475.738 644.137C478.238 643.004 480.836 641.715 483.453 640.328C485.816 639.078 487.594 638.102 489.215 637.145C491.695 635.699 494.156 634.098 496.227 632.711L496.773 632.359C498.609 631.148 500.328 629.996 501.93 628.824C504.059 627.281 506.188 625.543 508.434 623.687L510.211 622.242C511.5 621.187 512.73 620.191 513.824 619.215C514.215 618.883 514.586 618.551 514.977 618.258C583.16 555.816 632.496 495.738 661.637 439.684C664.605 434 671.012 431.305 676.949 432.75C677.281 432.828 677.613 432.867 677.926 432.965C678.238 433.062 678.551 433.18 678.844 433.297C679.254 433.473 679.664 433.648 680.074 433.863C686.773 437.34 689.391 445.602 685.895 452.301Z" fill="#48446D"/>
<path d="M823.961 4.03915C819.996 0.0743051 814.02 -1.05851 808.883 1.14852L636.871 75.3673C631.656 77.6134 628.375 82.8673 628.629 88.5313C628.883 94.2149 632.613 99.1368 638.004 100.914L690.484 118.18L636.754 171.91C609.352 154.801 577.027 144.879 542.398 144.879C492.926 144.879 446.598 165.016 412.926 200.66C379.273 165.016 332.926 144.879 283.453 144.879C185.035 144.879 104.957 224.938 104.957 323.356C104.957 387.066 133.414 456.148 189.547 528.648C192.242 532.145 196.285 533.961 200.367 533.961C202.887 533.961 205.406 533.219 207.652 531.793C207.945 531.617 208.219 531.461 208.492 531.266C208.57 531.207 208.648 531.148 208.727 531.09C208.902 530.953 209.078 530.797 209.254 530.641C214.742 525.953 215.66 517.711 211.168 511.91C158.844 444.313 132.301 380.875 132.301 323.356C132.301 240.016 200.113 172.223 283.453 172.223C329.977 172.223 373.258 193.297 402.184 230.035C404.781 233.316 408.746 235.25 412.926 235.25C417.125 235.25 421.07 233.316 423.668 230.035C452.594 193.297 495.875 172.223 542.398 172.223C625.738 172.223 693.551 240.016 693.551 323.356C693.551 331.852 692.965 340.602 691.812 349.332C690.914 356.09 695.113 362.32 701.441 364.215C701.754 364.313 702.066 364.391 702.379 364.469C702.691 364.547 703.023 364.586 703.355 364.645C703.414 364.664 703.492 364.664 703.57 364.684C711.07 365.66 717.926 360.406 718.922 352.906C720.23 342.984 720.895 333.043 720.895 323.356C720.895 269.469 696.871 221.09 659 188.336L709.82 137.516L727.086 189.996C728.863 195.387 733.785 199.117 739.469 199.371C739.664 199.391 739.879 199.391 740.074 199.391C745.504 199.391 750.465 196.168 752.633 191.129L826.852 19.1173C829.059 13.9806 827.926 8.00399 823.961 4.03915ZM741.793 147.203L728.863 107.848C728.844 107.789 728.805 107.711 728.785 107.633C728.648 107.262 728.512 106.91 728.336 106.539C728.297 106.422 728.238 106.305 728.18 106.168C728.004 105.836 727.828 105.504 727.633 105.172C727.574 105.055 727.496 104.938 727.438 104.84C727.223 104.508 726.988 104.176 726.754 103.863C726.676 103.766 726.617 103.688 726.559 103.59C726.246 103.199 725.914 102.828 725.543 102.457C725.172 102.106 724.801 101.754 724.41 101.441C724.312 101.383 724.215 101.305 724.117 101.227C723.805 100.992 723.492 100.777 723.18 100.582C723.062 100.504 722.926 100.426 722.809 100.348C722.496 100.172 722.164 99.9962 721.852 99.8399C721.715 99.7618 721.578 99.7032 721.441 99.6446C721.09 99.4884 720.758 99.3516 720.406 99.2344C720.309 99.2149 720.23 99.1563 720.152 99.1368L680.797 86.2071L788.102 39.8985L741.793 147.203Z" fill="#48446D"/>
</svg>
